<?xml version="1.0" encoding="UTF-8"?>
<!DOCTYPE svg PUBLIC "-//W3C//DTD SVG 1.1//EN" "http://www.w3.org/Graphics/SVG/1.1/DTD/svg11.dtd">
<!-- Creator: CorelDRAW 2020 (64-Bit) -->
<svg xmlns="http://www.w3.org/2000/svg" xml:space="preserve" width="12mm" height="11.9999mm" version="1.1" style="shape-rendering:geometricPrecision; text-rendering:geometricPrecision; image-rendering:optimizeQuality; fill-rule:evenodd; clip-rule:evenodd"
viewBox="0 0 126.91 126.91"
 xmlns:xlink="http://www.w3.org/1999/xlink"
 xmlns:xodm="http://www.corel.com/coreldraw/odm/2003">
 <defs>
  <style type="text/css">
   <![CDATA[
    .fil0 {fill:#FEFEFE;fill-rule:nonzero}
    .fil1 {fill:#724684;fill-rule:nonzero}
   ]]>
  </style>
 </defs>
 <g id="Слой_x0020_15">
  <metadata id="CorelCorpID_0Corel-Layer"/>
  <path class="fil0" d="M126.91 63.46c0,35.05 -28.41,63.45 -63.46,63.45 -35.05,0 -63.46,-28.41 -63.46,-63.45 0,-35.05 28.41,-63.46 63.46,-63.46 35.05,0 63.46,28.41 63.46,63.46z"/>
 </g>
 <g id="Слой_x0020_24">
  <metadata id="CorelCorpID_1Corel-Layer"/>
  <path class="fil1" d="M51.27 76.31c1.88,1.88 5.69,5.46 8.28,6.09 2.6,0.64 4.51,-0.81 6.54,-2.55 1.06,-0.91 1.54,-1.97 4.13,-2.44 2.68,-0.48 10.22,4.53 12.03,6.68 5.5,6.53 0.57,13.83 -6.87,14.45 -9.2,0.77 -21.46,-7.6 -30.11,-16.25 -8.65,-8.65 -17.02,-20.91 -16.25,-30.11 0.62,-7.43 7.93,-12.37 14.46,-6.87 2.15,1.81 7.16,9.36 6.68,12.03 -0.47,2.58 -1.52,3.06 -2.44,4.12 -1.74,2.03 -3.19,3.95 -2.55,6.54 0.64,2.6 4.21,6.4 6.09,8.28zm45.1 -5.69c-0.87,-0.14 -1.66,-0.92 -1.82,-1.83 -3.73,-22.23 -14,-33.3 -34.31,-37.04 -0.94,-0.17 -1.74,-1.08 -1.8,-2.02 -0.05,-0.94 0.64,-1.56 1.6,-1.39 22.14,4.07 33.81,16.62 37.86,40.68 0.16,0.95 -0.46,1.68 -1.39,1.61 -0.05,-0 -0.1,-0.01 -0.15,-0.02zm-9.9 -1.55c-0.9,-0.14 -1.71,-0.98 -1.83,-1.9 -1.7,-13.6 -9.87,-22.41 -23.63,-25.48 -0.94,-0.21 -1.72,-1.14 -1.73,-2.07 -0.02,-0.93 0.76,-1.51 1.67,-1.31 15.53,3.47 25.14,13.85 27.06,29.25 0.12,0.95 -0.54,1.63 -1.47,1.53 -0.02,-0 -0.05,-0.01 -0.07,-0.01zm-10.29 -1.83c-0.85,-0.13 -1.64,-0.9 -1.81,-1.79 -1.26,-6.62 -6,-11.49 -12.69,-13.01 -0.94,-0.21 -1.71,-1.14 -1.72,-2.08 -0.01,-0.93 0.76,-1.49 1.68,-1.3 8.33,1.9 14.49,8.24 16.07,16.54 0.18,0.96 -0.42,1.7 -1.34,1.65 -0.06,-0 -0.13,-0.01 -0.19,-0.02z"/>
 </g>
</svg>
