<?xml version="1.0" encoding="UTF-8"?>
<!DOCTYPE svg PUBLIC "-//W3C//DTD SVG 1.1//EN" "http://www.w3.org/Graphics/SVG/1.1/DTD/svg11.dtd">
<!-- Creator: CorelDRAW 2020 (64-Bit) -->
<svg xmlns="http://www.w3.org/2000/svg" xml:space="preserve" width="12mm" height="12mm" version="1.1" style="shape-rendering:geometricPrecision; text-rendering:geometricPrecision; image-rendering:optimizeQuality; fill-rule:evenodd; clip-rule:evenodd"
viewBox="0 0 126.91 126.91"
 xmlns:xlink="http://www.w3.org/1999/xlink"
 xmlns:xodm="http://www.corel.com/coreldraw/odm/2003">
 <defs>
  <style type="text/css">
   <![CDATA[
    .fil0 {fill:#FEFEFE;fill-rule:nonzero}
    .fil1 {fill:#3C5899;fill-rule:nonzero}
   ]]>
  </style>
 </defs>
 <g id="Слой_x0020_11">
  <metadata id="CorelCorpID_0Corel-Layer"/>
  <path class="fil0" d="M126.91 63.46c0,35.05 -28.41,63.46 -63.46,63.46 -35.04,0 -63.45,-28.41 -63.45,-63.46 0,-35.05 28.41,-63.46 63.45,-63.46 35.05,0 63.46,28.41 63.46,63.46z"/>
 </g>
 <g id="Слой_x0020_20">
  <metadata id="CorelCorpID_1Corel-Layer"/>
  <path class="fil1" d="M54.91 97.34l13.65 0 0 -34.17 9.52 0 1.02 -11.44 -10.54 0c0,0 0,-4.27 0,-6.52 0,-2.7 0.54,-3.76 3.15,-3.76 2.1,0 7.39,0 7.39,0l0 -11.87c0,0 -7.79,0 -9.45,0 -10.16,0 -14.73,4.47 -14.73,13.03 0,7.46 0,9.12 0,9.12l-7.1 0 0 11.58 7.1 0 0 34.03z"/>
 </g>
</svg>
