<?xml version="1.0" encoding="UTF-8"?>
<!DOCTYPE svg PUBLIC "-//W3C//DTD SVG 1.1//EN" "http://www.w3.org/Graphics/SVG/1.1/DTD/svg11.dtd">
<!-- Creator: CorelDRAW 2020 (64-Bit) -->
<svg xmlns="http://www.w3.org/2000/svg" xml:space="preserve" width="12mm" height="12mm" version="1.1" style="shape-rendering:geometricPrecision; text-rendering:geometricPrecision; image-rendering:optimizeQuality; fill-rule:evenodd; clip-rule:evenodd"
viewBox="0 0 126.91 126.91"
 xmlns:xlink="http://www.w3.org/1999/xlink"
 xmlns:xodm="http://www.corel.com/coreldraw/odm/2003">
 <defs>
  <style type="text/css">
   <![CDATA[
    .fil0 {fill:#FEFEFE;fill-rule:nonzero}
    .fil1 {fill:url(#id0);fill-rule:nonzero}
   ]]>
  </style>
  <linearGradient id="id0" gradientUnits="userSpaceOnUse" x1="30.56" y1="63.46" x2="94.64" y2="63.46">
   <stop offset="0" style="stop-opacity:1; stop-color:#963DBB"/>
   <stop offset="0.490196" style="stop-opacity:1; stop-color:#D13B7C"/>
   <stop offset="1" style="stop-opacity:1; stop-color:#F8C971"/>
  </linearGradient>
 </defs>
 <g id="Слой_x0020_17">
  <metadata id="CorelCorpID_0Corel-Layer"/>
  <path class="fil0" d="M126.91 63.45c0,35.05 -28.41,63.46 -63.46,63.46 -35.04,0 -63.45,-28.41 -63.45,-63.46 0,-35.04 28.41,-63.45 63.45,-63.45 35.05,0 63.46,28.41 63.46,63.45z"/>
 </g>
 <g id="Слой_x0020_26">
  <metadata id="CorelCorpID_1Corel-Layer"/>
  <path class="fil1" d="M62.6 37.19c8.55,0 9.57,0.03 12.95,0.19 3.12,0.14 4.82,0.66 5.95,1.1 1.5,0.58 2.56,1.27 3.68,2.4 1.12,1.12 1.82,2.19 2.4,3.68 0.44,1.13 0.96,2.83 1.1,5.95 0.15,3.38 0.19,4.39 0.19,12.95 0,8.56 -0.03,9.57 -0.19,12.95 -0.14,3.12 -0.66,4.82 -1.1,5.95 -0.58,1.5 -1.28,2.56 -2.4,3.68 -1.12,1.12 -2.19,1.81 -3.68,2.4 -1.13,0.44 -2.83,0.96 -5.95,1.1 -3.38,0.15 -4.39,0.19 -12.95,0.19 -8.56,0 -9.57,-0.03 -12.95,-0.19 -3.12,-0.14 -4.82,-0.66 -5.95,-1.1 -1.5,-0.58 -2.56,-1.28 -3.68,-2.4 -1.12,-1.12 -1.81,-2.19 -2.4,-3.68 -0.44,-1.13 -0.96,-2.83 -1.1,-5.95 -0.15,-3.38 -0.19,-4.39 -0.19,-12.95 0,-8.56 0.03,-9.57 0.19,-12.95 0.14,-3.12 0.67,-4.82 1.1,-5.95 0.58,-1.49 1.28,-2.56 2.4,-3.68 1.12,-1.12 2.19,-1.81 3.68,-2.4 1.13,-0.44 2.83,-0.96 5.95,-1.1 3.38,-0.15 4.39,-0.19 12.95,-0.19zm20.95 9.16c0,2.12 -1.72,3.85 -3.85,3.85 -2.12,0 -3.85,-1.72 -3.85,-3.85 0,-2.12 1.72,-3.85 3.85,-3.85 2.12,0 3.85,1.72 3.85,3.85zm-20.95 0.65c-9.09,0 -16.46,7.37 -16.46,16.46 0,9.09 7.37,16.46 16.46,16.46 9.09,0 16.45,-7.37 16.45,-16.46 0,-9.09 -7.37,-16.46 -16.45,-16.46zm0 27.14l0 0c-5.9,0 -10.68,-4.78 -10.68,-10.68 0,-5.9 4.78,-10.68 10.68,-10.68 5.9,0 10.68,4.78 10.68,10.68 0,5.9 -4.78,10.68 -10.68,10.68zm0 -42.72l0 0c-8.7,0 -9.79,0.04 -13.21,0.19 -3.41,0.16 -5.74,0.7 -7.78,1.49 -2.11,0.82 -3.89,1.91 -5.68,3.7 -1.78,1.78 -2.88,3.57 -3.7,5.68 -0.79,2.04 -1.33,4.37 -1.49,7.78 -0.16,3.42 -0.19,4.51 -0.19,13.21 0,8.7 0.04,9.79 0.19,13.21 0.15,3.41 0.7,5.74 1.49,7.78 0.82,2.11 1.91,3.89 3.7,5.68 1.78,1.78 3.57,2.88 5.68,3.7 2.04,0.79 4.37,1.33 7.78,1.49 3.42,0.16 4.51,0.19 13.21,0.19 8.7,0 9.79,-0.04 13.21,-0.19 3.41,-0.16 5.74,-0.7 7.78,-1.49 2.11,-0.82 3.89,-1.91 5.68,-3.7 1.78,-1.78 2.88,-3.57 3.7,-5.68 0.79,-2.04 1.33,-4.37 1.49,-7.78 0.16,-3.42 0.19,-4.51 0.19,-13.21 0,-8.7 -0.04,-9.79 -0.19,-13.21 -0.16,-3.41 -0.7,-5.74 -1.49,-7.78 -0.82,-2.11 -1.91,-3.9 -3.7,-5.68 -1.78,-1.78 -3.57,-2.88 -5.68,-3.7 -2.04,-0.79 -4.37,-1.33 -7.78,-1.49 -3.42,-0.16 -4.51,-0.19 -13.21,-0.19z"/>
 </g>
</svg>
