<?xml version="1.0" encoding="UTF-8"?>
<!DOCTYPE svg PUBLIC "-//W3C//DTD SVG 1.1//EN" "http://www.w3.org/Graphics/SVG/1.1/DTD/svg11.dtd">
<!-- Creator: CorelDRAW 2020 (64-Bit) -->
<svg xmlns="http://www.w3.org/2000/svg" xml:space="preserve" width="140.983mm" height="19.1764mm" version="1.1" style="shape-rendering:geometricPrecision; text-rendering:geometricPrecision; image-rendering:optimizeQuality; fill-rule:evenodd; clip-rule:evenodd"
viewBox="0 0 13965.64 1899.59"
 xmlns:xlink="http://www.w3.org/1999/xlink"
 xmlns:xodm="http://www.corel.com/coreldraw/odm/2003">
 <defs>
  <style type="text/css">
   <![CDATA[
    .fil0 {fill:#724684}
    .fil1 {fill:#FDCB03}
    .fil3 {fill:#452C52;fill-rule:nonzero}
    .fil2 {fill:#FEFEFE;fill-rule:nonzero}
   ]]>
  </style>
 </defs>
 <g id="Слой_x0020_38">
  <metadata id="CorelCorpID_0Corel-Layer"/>
  <g id="_2386526717216">
   <polygon class="fil0" points="4481.73,1222 4821.17,874.9 5241.32,874.9 5241.32,1604.35 5338.84,1604.35 5232.46,1899.57 4818.09,1899.57 4818.09,1277.75 4480.17,1628.05 4144.55,1275.97 4144.55,1899.57 3719.63,1899.57 3719.63,1188.64 3607.15,1188.64 3730.03,874.9 4157.67,874.9 "/>
   <polygon class="fil0" points="6166.25,1252.19 6453.82,874.88 6874.24,874.88 6874.24,1585.85 6986.71,1585.85 6863.84,1899.59 6449.28,1899.59 6449.28,1535.77 6170.6,1899.56 5741.32,1899.56 5741.32,1188.63 5628.81,1188.63 5751.72,874.88 6166.25,874.88 "/>
   <path class="fil0" d="M7403.55 1585.86l483.37 -710.97 39.78 0c148.65,0 297.32,0 445.96,0l75.16 0 0 710.97 211.04 0 -118.51 313.7 -1248.69 0 0 -313.7 111.9 0zm687.78 0l0 -373.83 -6.29 0 -254.14 373.83 260.44 0z"/>
   <polygon class="fil0" points="9528.9,1266.84 9824.59,874.89 10335.96,874.89 9909.59,1410.47 10301.25,1899.57 9789.27,1899.57 9528.9,1554.39 9528.9,1899.57 9103.99,1899.57 9103.99,1188.64 8991.47,1188.64 9114.38,874.89 9528.9,874.89 "/>
   <path class="fil0" d="M11425.65 1796.41l-309.6 0 -35.43 103.18 -473.21 0 316.8 -710.97 -96.2 0 153.28 -313.71 541.79 0 404.13 1024.68 -469.62 0 -31.95 -103.18zm-87.91 -284.16l-58.8 -189.96 -65.27 189.96 124.07 0z"/>
   <polygon class="fil0" points="13108.55,1222 13447.98,874.9 13868.14,874.9 13868.14,1604.35 13965.64,1604.35 13859.23,1899.57 13444.9,1899.57 13444.9,1277.75 13106.98,1628.05 12771.36,1275.97 12771.36,1899.57 12346.45,1899.57 12346.45,1188.64 12233.97,1188.64 12356.83,874.9 12784.48,874.9 "/>
   <polygon class="fil0" points="707,1157.58 1136.68,403.29 1871.42,1690.33 1891.33,1725.33 1850.51,1725.33 1446.89,1725.33 1144.35,1195.49 920.04,1594.46 -0,1589.52 254.65,1152.96 "/>
   <polygon class="fil1" points="42.29,1565.37 268.56,1177.49 721.09,1182.11 1136.67,452.49 1850.14,1700.97 1461.03,1700.97 1144.19,1146.02 905.78,1569.99 "/>
   <polygon class="fil0" points="1192.09,346.31 1395.28,0 1898.59,886.58 2332.66,101.57 2771.36,872.73 3228.5,868.11 3056.64,1198.9 2568.17,1204.97 2337.28,794.22 1889.36,1574.61 "/>
   <path class="fil1" d="M3717.31 1113.46l64.01 -163.39 343.68 0 355.46 380.72 372.33 -380.72 313.38 0 0 729.46 65.71 0 -52.22 144.86 -286.42 0 0 -732.85 -412.78 427.93 -411.07 -431.27 0 736.18 -274.6 0 0 -710.93 -77.48 0zm8626.79 0l64.03 -163.39 343.69 0 355.47 380.72 372.33 -380.72 313.33 0 0 729.46 65.71 0 -52.21 144.86 -286.42 0 0 -732.85 -412.74 427.93 -411.11 -431.27 0 736.18 -274.6 0 0 -710.93 -77.48 0zm-527.29 710.93l-303.82 0 -31.92 -103.14 -418.66 0 -35.42 103.14 -303.83 0 316.8 -710.93 -91.58 0 79.84 -163.39 84.58 0 55.37 0 248.4 0 55.39 0 344.85 874.32zm-377.16 -236.99l-156.97 -507.31 -174.3 507.31 331.27 0zm-2337.98 -473.95l63.99 -163.39 288.09 0 0 138.14 0 736.18 -274.61 0 0 -710.93 -77.47 0zm1078.38 -163.39l-318.03 0 -347.44 460.56 312.14 413.76 318.04 0 -331.34 -413.76 366.63 -460.56zm-2813.23 874.32l1121.55 0 61.75 -163.37 -177.46 0 0 -710.95c-148.64,0 -297.31,0 -445.96,0l-483.38 710.95 -76.5 0 0 163.37zm799.63 -163.37l-477.53 0 356.33 -524.16 121.2 0 0 524.16zm-2427.45 -547.57l63.99 -163.39 288.09 0 0 524.67 399.95 -524.67 308.04 0 0 710.95 77.48 0 -64.01 163.4 -288.11 0 0 -510.39 -390.94 510.36 -317.02 0 0 -710.93 -77.48 0z"/>
   <g>
    <path class="fil2" d="M13792.96 1303.83c-89.13,6.12 -180.12,12.08 -272.91,17.86l0 -230.11 -235.61 244.25c-109.37,6.29 -221.11,12.33 -334.88,18.18l-253.35 -265.8 0 278.27c-90.29,4.25 -181.9,8.34 -274.6,12.29l0 -265.31 -77.51 0 64.03 -163.4 343.69 0 355.46 380.76 372.32 -380.76 313.35 0 0 353.78zm-2140.68 103.45c-87.88,2.8 -176.37,5.5 -265.86,8.04l-103.74 -335.23 -117.22 341.18c-87.86,2.25 -176.31,4.4 -265.52,6.41l140 -314.22 -91.58 0 79.84 -163.4 84.58 0 55.37 0 248.41 0 55.38 0 180.34 457.23zm-1811.15 37.95c-98.87,1.07 -198.25,2.02 -298.32,2.79l-28.2 -37.39 347.4 -460.57 318.07 0 -366.67 460.57 27.72 34.6zm-387.39 3.4c-91.13,0.62 -182.6,1.16 -274.61,1.53l0 -336.7 -77.47 0 63.99 -163.4 288.09 0 0 138.15 0 360.43zm-1081.09 1.42c-68.97,-0.29 -137.67,-0.67 -206.17,-1.11l0 -312.07 -121.2 0 -210.38 309.43c-81.68,-0.79 -162.87,-1.7 -243.73,-2.7l335.53 -493.53c148.64,0 297.32,0 445.95,0l0 499.99zm-1573.59 -19.69c-92.2,-1.94 -183.86,-4 -274.65,-6.21l0 -110.11 -82.74 108.02c-102.3,-2.61 -203.75,-5.34 -304.13,-8.25l353.48 -463.74 308.04 0 0 480.3zm-707.99 -17.93c-92.37,-2.74 -183.98,-5.6 -274.6,-8.61l0 -290.36 -77.48 0 64 -163.4 288.08 0 0 462.37zm-924.91 -33.15c-92.19,-3.91 -183.12,-7.98 -272.93,-12.18l0 -275.51 -253.81 263.1c-113.22,-5.79 -224.34,-11.8 -333.23,-18.03l-236.82 -248.45 0 234.33c-93.36,-5.8 -184.91,-11.76 -274.59,-17.88l0 -191.2 -77.49 0 64.01 -163.4 343.68 0 355.46 380.76 372.37 -380.76 313.34 0 0 429.22z"/>
   </g>
   <path class="fil3" d="M3719.02 484.2c18.57,19.8 46.34,30.75 73.74,30.75 41.14,0 74.94,-24.68 74.94,-65.49 0,-25.59 -14.28,-43.58 -36.24,-50.26l0 -0.62c14.61,-7.92 29.84,-22.53 29.84,-48.15 0,-38.38 -31.69,-59.09 -66.4,-59.09 -21.04,0 -46,4.25 -69.48,23.76l15.84 28.64c15.56,-12.79 32.31,-18.29 46.95,-18.29 22.54,0 33.18,13.42 33.18,29.85 0,17.09 -14.03,29.87 -33.51,29.87l-21.34 0 0 31.7 26.5 0c21.05,0 34.45,11.26 34.45,30.16 0,21.04 -15.23,33.21 -38.41,33.21 -19.47,0 -37.76,-10.68 -48.73,-22.24l-21.34 26.2zm247.68 27.11l40.23 0 18.28 -55.46 75.88 0 18.57 55.46 40.23 0 -75.88 -216.35 -41.43 0 -75.88 216.35zm68.25 -87.44l19.5 -57.89c3.68,-12.22 8.55,-33.51 8.55,-33.51l0.61 0c0,0 4.87,21.29 8.51,33.51l19.18 57.89 -56.35 0zm236.44 87.44l39.28 0 0 -182.52 96.6 0 0 182.52 39.29 0 0 -216.35 -175.17 0 0 216.35zm286.67 0l40.23 0 18.28 -55.46 75.86 0 18.6 55.46 40.2 0 -75.86 -216.35 -41.46 0 -75.85 216.35zm68.25 -87.44l19.51 -57.89c3.64,-12.22 8.51,-33.51 8.51,-33.51l0.61 0c0,0 4.86,21.29 8.54,33.51l19.19 57.89 -56.36 0zm218.75 -21.66c0,63.7 43.86,112.74 111.83,112.74 38.7,0 66.39,-16.14 84.99,-35.04l-20.71 -28.31c-16.46,16.15 -39.61,27.4 -62.75,27.4 -46.92,0 -72.84,-36.85 -72.84,-77.36 0,-39.95 25,-74.35 72.5,-74.35 21.05,0 43.91,9.73 59.14,22.85l18.89 -29.25c-21.04,-20.44 -51.5,-29.55 -79.84,-29.55 -65.2,0 -111.2,48.15 -111.2,110.88zm313.48 109.1l39.3 0 0 -90.83 99.03 0 0 90.83 39.03 0 0 -216.35 -39.03 0 0 91.74 -99.03 0 0 -91.74 -39.3 0 0 216.35zm487.79 0l38.99 0 0 -216.35 -38.99 0 0 216.35zm-175.21 0l80.43 0c39.32,0 66.73,-28.34 66.73,-69.78 0,-43.25 -28.02,-70.69 -67.6,-70.69l-40.24 0 0 -75.89 -39.32 0 0 216.35zm39.32 -33.84l0 -72.79 33.5 0c21.62,0 34.42,14.61 34.42,36.85 0,21.95 -12.17,35.94 -33.8,35.94l-34.13 0zm310.44 33.84l134.35 0 0 -33.84 -95.08 0 0 -58.18 72.84 0 0 -33.84 -72.84 0 0 -56.66 90.2 0 0 -33.84 -129.48 0 0 216.35zm462.49 -80.43c22.55,0 43.86,-7.92 54.56,-13.4l0.57 0c0,0 -0.57,5.78 -0.57,10.01l0 83.81 39.9 0 0 -216.35 -39.9 0 0 87.49c-8.54,5.45 -25.59,12.79 -44.53,12.79 -25.58,0 -36.23,-13.41 -36.23,-38.13l0 -62.15 -39.94 0 0 71.03c0,40.52 21.03,64.9 66.13,64.9zm206.25 80.43l40.24 0 18.27 -55.46 75.86 0 18.6 55.46 40.2 0 -75.85 -216.35 -41.43 0 -75.89 216.35zm68.25 -87.44l19.51 -57.89c3.64,-12.22 8.51,-33.51 8.51,-33.51l0.61 0c0,0 4.86,21.29 8.55,33.51l19.18 57.89 -56.36 0zm218.74 -21.66c0,63.7 43.86,112.74 111.83,112.74 38.7,0 66.4,-16.14 85.01,-35.04l-20.72 -28.31c-16.46,16.15 -39.6,27.4 -62.75,27.4 -46.92,0 -72.84,-36.85 -72.84,-77.36 0,-39.95 25,-74.35 72.5,-74.35 21.04,0 43.87,9.73 59.14,22.85l18.89 -29.25c-21.04,-20.44 -51.5,-29.55 -79.85,-29.55 -65.19,0 -111.2,48.15 -111.2,110.88zm362.56 109.1l38.99 0 0 -182.52 70.98 0 0 -33.84 -180.95 0 0 33.84 70.99 0 0 182.52zm223.61 0l38.99 0 82.29 -124.62c7.89,-12.8 17.95,-33.51 17.95,-33.51l0.62 0c0,0 -2.15,20.71 -2.15,33.51l0 124.62 39.04 0 0 -216.35 -39.04 0 -81.65 124.63c-7.89,12.83 -18.29,33.84 -18.29,33.84l-0.58 0c0,0 2.11,-20.71 2.11,-33.51l0 -124.95 -39.29 0 0 216.35zm464.64 0l39.28 0 0 -90.83 99.04 0 0 90.83 39 0 0 -216.35 -39 0 0 91.74 -99.04 0 0 -91.74 -39.28 0 0 216.35zm288.77 0l40.28 0 18.28 -55.46 75.85 0 18.57 55.46 40.23 0 -75.84 -216.35 -41.44 0 -75.93 216.35zm68.29 -87.44l19.48 -57.89c3.67,-12.22 8.54,-33.51 8.54,-33.51l0.61 0c0,0 4.87,21.29 8.54,33.51l19.2 57.89 -56.37 0zm388.77 87.44l39.32 0 0 -182.52 85 0 0 -33.84 -124.32 0 0 216.35zm237.02 0l39.33 0 0 -74.65 44.15 0c40.52,0 68.87,-29.26 68.87,-71.3 0,-42.05 -28.34,-70.4 -68.87,-70.4l-83.48 0 0 216.35zm39.33 -108.77l0 -73.75 37.46 0c22.24,0 35.65,14.32 35.65,36.56 0,22.54 -13.41,37.19 -36.27,37.19l-36.85 0zm224.2 97.5c13.11,9.11 26.82,14.9 43.28,14.9 31.36,0 46.3,-25.88 55.46,-49.03l66.73 -170.96 -41.15 0 -34.74 96.9c-4.87,14.03 -8.84,28.34 -8.84,28.34l-0.62 0c0,0 -5.15,-14.31 -12.16,-28.64l-46 -96.6 -43.29 0 84.71 167.29c-4.57,11.88 -10.64,18.9 -21.61,18.9 -10.06,0 -18.9,-6.4 -24.39,-10.69l-17.36 29.59zm255.59 -15.85c18.6,19.8 46.34,30.75 73.73,30.75 41.15,0 74.98,-24.68 74.98,-65.49 0,-25.59 -14.31,-43.58 -36.26,-50.26l0 -0.62c14.6,-7.92 29.86,-22.53 29.86,-48.15 0,-38.38 -31.69,-59.09 -66.42,-59.09 -21.01,0 -46.02,4.25 -69.5,23.76l15.86 28.64c15.54,-12.79 32.3,-18.29 46.94,-18.29 22.54,0 33.22,13.42 33.22,29.85 0,17.09 -14.04,29.87 -33.55,29.87l-21.3 0 0 31.7 26.5 0c21,0 34.41,11.26 34.41,30.16 0,21.04 -15.23,33.21 -38.38,33.21 -19.51,0 -37.79,-10.68 -48.78,-22.24l-21.33 26.2zm258.68 -82.57c0,63.67 48.12,113.31 111.8,113.31 63.7,0 111.83,-49.65 111.83,-113.31 0,-61.86 -48.12,-110.3 -111.83,-110.3 -63.67,0 -111.8,48.44 -111.8,110.3zm40.52 0c0,-42.05 31.65,-74.35 71.27,-74.35 39.64,0 71.29,32.3 71.29,74.35 0,43.86 -31.65,77.36 -71.29,77.36 -39.62,0 -71.27,-33.5 -71.27,-77.36zm305.57 109.68l78.33 0c39.89,0 74.64,-19.51 74.64,-62.76 0,-21.95 -11.3,-43.86 -35.08,-50.88l0 -0.62c16.47,-8.83 26.21,-26.2 26.21,-46.29 0,-35.66 -27.7,-55.8 -67.01,-55.8l-77.09 0 0 216.35zm39.29 -127.96l0 -54.55 37.51 0c17.94,0 27.39,11.26 27.39,26.83 0,15.55 -9.74,27.73 -26.82,27.73l-38.09 0zm0 94.13l0 -62.44 42.05 0c19.8,0 31.4,13.09 31.4,31.08 0,18.28 -11.27,31.35 -31.4,31.35l-42.05 0zm411.61 33.84l39 0 0 -216.35 -39 0 0 216.35zm-175.17 0l80.44 0c39.28,0 66.72,-28.34 66.72,-69.78 0,-43.25 -28.05,-70.69 -67.64,-70.69l-40.23 0 0 -75.89 -39.29 0 0 216.35zm39.29 -33.84l0 -72.79 33.51 0c21.62,0 34.41,14.61 34.41,36.85 0,21.95 -12.17,35.94 -33.8,35.94l-34.13 0zm310.43 33.84l134.37 0 0 -33.84 -95.05 0 0 -58.18 72.8 0 0 -33.84 -72.8 0 0 -56.66 90.2 0 0 -33.84 -129.53 0 0 216.35zm384.8 0l40.23 0 18.28 -55.46 75.89 0 18.57 55.46 40.23 0 -75.89 -216.35 -41.42 0 -75.89 216.35zm68.25 -87.44l19.51 -57.89c3.64,-12.22 8.54,-33.51 8.54,-33.51l0.61 0c0,0 4.87,21.29 8.51,33.51l19.19 57.89 -56.36 0zm236.43 87.44l78.29 0c39.91,0 74.65,-19.51 74.65,-62.76 0,-21.95 -11.26,-43.86 -35.03,-50.88l0 -0.62c16.46,-8.83 26.2,-26.2 26.2,-46.29 0,-35.66 -27.74,-55.8 -67.01,-55.8l-77.1 0 0 216.35zm39.3 -127.96l0 -54.55 37.46 0c17.99,0 27.45,11.26 27.45,26.83 0,15.55 -9.78,27.73 -26.83,27.73l-38.09 0zm0 94.13l0 -62.44 42.05 0c19.8,0 31.36,13.09 31.36,31.08 0,18.28 -11.27,31.35 -31.36,31.35l-42.05 0zm279.65 33.84l39.03 0 0 -182.52 70.99 0 0 -33.84 -181 0 0 33.84 70.99 0 0 182.52zm203.19 -109.68c0,63.67 48.15,113.31 111.83,113.31 63.67,0 111.83,-49.65 111.83,-113.31 0,-61.86 -48.15,-110.3 -111.83,-110.3 -63.67,0 -111.83,48.44 -111.83,110.3zm40.52 0c0,-42.05 31.7,-74.35 71.31,-74.35 39.61,0 71.3,32.3 71.3,74.35 0,43.86 -31.69,77.36 -71.3,77.36 -39.61,0 -71.31,-33.5 -71.31,-77.36zm297.36 109.68l39.33 0 8.83 -120.99c1.2,-14.27 0.29,-33.79 0.29,-33.79l0.61 0c0,0 7.02,21.33 11.9,33.79l35.04 83.8 34.12 0 35.04 -83.8c4.87,-12.46 11.89,-33.5 11.89,-33.5l0.61 0c0,0 -0.91,19.23 0.33,33.5l8.84 120.99 39.28 0 -17.65 -216.35 -41.76 0 -42.66 106.96c-4.87,12.8 -10.65,31.69 -10.65,31.69l-0.61 0c0,0 -5.79,-18.89 -10.66,-31.69l-42.65 -106.96 -41.76 0 -17.66 216.35zm340.31 -109.68c0,63.67 48.15,113.31 111.83,113.31 63.67,0 111.83,-49.65 111.83,-113.31 0,-61.86 -48.16,-110.3 -111.83,-110.3 -63.67,0 -111.83,48.44 -111.83,110.3zm40.52 0c0,-42.05 31.7,-74.35 71.3,-74.35 39.61,0 71.3,32.3 71.3,74.35 0,43.86 -31.69,77.36 -71.3,77.36 -39.6,0 -71.3,-33.5 -71.3,-77.36zm305.57 109.68l83.48 0c39.33,0 66.77,-26.82 66.77,-65.81 0,-41.14 -28.06,-66.73 -67.67,-66.73l-43.25 0 0 -49.98 93.54 0 0 -33.84 -132.87 0 0 216.35zm39.33 -33.84l0 -64.86 36.56 0c21.62,0 34.41,13.08 34.41,32.89 0,19.51 -12.17,31.98 -33.8,31.98l-37.18 0zm231.21 33.84l38.99 0 82.28 -124.62c7.92,-12.8 17.99,-33.51 17.99,-33.51l0.62 0c0,0 -2.15,20.71 -2.15,33.51l0 124.62 39 0 0 -216.35 -39 0 -81.66 124.63c-7.91,12.83 -18.27,33.84 -18.27,33.84l-0.62 0c0,0 2.14,-20.71 2.14,-33.51l0 -124.95 -39.32 0 0 216.35zm290.33 -33.5l0 35.94c60.04,-2.14 84.1,-54.22 84.1,-159.04l0 -25.91 56.99 0 0 182.52 39.32 0 0 -216.35 -133.78 0 0 59.14c0,83.8 -14.6,119.42 -46.63,123.71zm315.64 33.5l38.99 0 82.28 -124.62c7.92,-12.8 17.99,-33.51 17.99,-33.51l0.62 0c0,0 -2.15,20.71 -2.15,33.51l0 124.62 39 0 0 -216.35 -39 0 -81.65 124.63c-7.92,12.83 -18.28,33.84 -18.28,33.84l-0.62 0c0,0 2.15,-20.71 2.15,-33.51l0 -124.95 -39.33 0 0 216.35z"/>
  </g>
 </g>
</svg>
