<?xml version="1.0" encoding="UTF-8"?>
<!DOCTYPE svg PUBLIC "-//W3C//DTD SVG 1.1//EN" "http://www.w3.org/Graphics/SVG/1.1/DTD/svg11.dtd">
<!-- Creator: CorelDRAW 2020 (64-Bit) -->
<svg xmlns="http://www.w3.org/2000/svg" xml:space="preserve" width="12mm" height="12mm" version="1.1" style="shape-rendering:geometricPrecision; text-rendering:geometricPrecision; image-rendering:optimizeQuality; fill-rule:evenodd; clip-rule:evenodd"
viewBox="0 0 126.91 126.91"
 xmlns:xlink="http://www.w3.org/1999/xlink"
 xmlns:xodm="http://www.corel.com/coreldraw/odm/2003">
 <defs>
  <style type="text/css">
   <![CDATA[
    .fil0 {fill:#FEFEFE;fill-rule:nonzero}
    .fil1 {fill:#724684;fill-rule:nonzero}
   ]]>
  </style>
 </defs>
 <g id="Слой_x0020_13">
  <metadata id="CorelCorpID_0Corel-Layer"/>
  <path class="fil0" d="M126.91 63.46c0,35.05 -28.41,63.46 -63.46,63.46 -35.04,0 -63.45,-28.41 -63.45,-63.46 0,-35.05 28.41,-63.46 63.45,-63.46 35.05,0 63.46,28.41 63.46,63.46z"/>
 </g>
 <g id="Слой_x0020_22">
  <metadata id="CorelCorpID_1Corel-Layer"/>
  <path class="fil1" d="M86.29 95.01c0,1.95 -1.59,3.54 -3.54,3.54l-38.59 0c-1.95,0 -3.54,-1.59 -3.54,-3.54l0 -63.1c0,-1.95 1.59,-3.54 3.54,-3.54l38.59 0c1.95,0 3.54,1.59 3.54,3.54l0 63.1zm-5.5 -7.03l-34.67 0 0 -52.1 34.67 0 0 52.1zm0.77 -53.63l-36.2 0c-0.42,0 -0.77,0.34 -0.77,0.77l0 53.63c0,0.42 0.34,0.77 0.77,0.77l36.2 0c0.42,0 0.77,-0.34 0.77,-0.77l0 -53.63c0,-0.42 -0.34,-0.77 -0.77,-0.77zm-18.1 62.38c-1.54,0 -2.79,-1.25 -2.79,-2.79 0,-1.54 1.25,-2.79 2.79,-2.79 1.54,0 2.79,1.25 2.79,2.79 0,1.54 -1.25,2.79 -2.79,2.79zm0 -7.11c-2.38,0 -4.32,1.94 -4.32,4.32 0,2.38 1.94,4.32 4.32,4.32 2.38,0 4.32,-1.94 4.32,-4.32 0,-2.38 -1.94,-4.32 -4.32,-4.32zm-5.04 -56.96c0.3,0 0.55,-0.25 0.55,-0.54 0,-0.31 -0.25,-0.55 -0.55,-0.55 -0.31,0 -0.55,0.25 -0.55,0.55 0,0.3 0.25,0.54 0.55,0.54zm2.38 0.16l5.32 0c0.39,0 0.71,-0.32 0.71,-0.71 0,-0.38 -0.32,-0.71 -0.71,-0.71l-5.32 0c-0.39,0 -0.71,0.32 -0.71,0.71 0,0.39 0.32,0.71 0.71,0.71zm2.66 -2.87c0.39,0 0.71,-0.31 0.71,-0.7 0,-0.4 -0.32,-0.71 -0.71,-0.71 -0.39,0 -0.71,0.31 -0.71,0.71 0,0.39 0.32,0.7 0.71,0.7zm19.29 -4.66l-38.59 0c-3.64,0 -6.61,2.97 -6.61,6.61l0 63.1c0,3.65 2.96,6.61 6.61,6.61l38.59 0c3.64,0 6.61,-2.96 6.61,-6.61l0 -63.1c0,-3.64 -2.96,-6.61 -6.61,-6.61z"/>
 </g>
</svg>
