<?xml version="1.0" encoding="UTF-8"?>
<!DOCTYPE svg PUBLIC "-//W3C//DTD SVG 1.1//EN" "http://www.w3.org/Graphics/SVG/1.1/DTD/svg11.dtd">
<!-- Creator: CorelDRAW 2020 (64-Bit) -->
<svg xmlns="http://www.w3.org/2000/svg" xml:space="preserve" width="12mm" height="12mm" version="1.1" style="shape-rendering:geometricPrecision; text-rendering:geometricPrecision; image-rendering:optimizeQuality; fill-rule:evenodd; clip-rule:evenodd"
viewBox="0 0 126.91 126.91"
 xmlns:xlink="http://www.w3.org/1999/xlink"
 xmlns:xodm="http://www.corel.com/coreldraw/odm/2003">
 <defs>
  <style type="text/css">
   <![CDATA[
    .fil1 {fill:#724684}
    .fil0 {fill:#FEFEFE;fill-rule:nonzero}
   ]]>
  </style>
 </defs>
 <g id="Слой_x0020_12">
  <metadata id="CorelCorpID_0Corel-Layer"/>
  <path class="fil0" d="M126.91 63.46c0,35.05 -28.41,63.46 -63.46,63.46 -35.04,0 -63.45,-28.41 -63.45,-63.46 0,-35.05 28.41,-63.46 63.45,-63.46 35.05,0 63.46,28.41 63.46,63.46z"/>
 </g>
 <g id="Слой_x0020_21">
  <metadata id="CorelCorpID_1Corel-Layer"/>
  <path class="fil1" d="M45.87 80.17l13.6 0.02 -0.02 12.57c-0.75,-0 -1.98,-0.45 -2.63,-0.67 -0.81,-0.28 -1.53,-0.68 -2.18,-1.07 -1.08,-0.65 -1.93,-1.32 -2.78,-2.11 -0.85,-0.8 -1.64,-1.59 -2.35,-2.56 -1.65,-2.25 -1.76,-2.37 -3.12,-5.04 -0.11,-0.22 -0.48,-0.95 -0.51,-1.13zm32.71 -12.2c0.16,0.04 0.18,0.13 0.29,0.23l2.85 2.68c0.23,0.19 0.31,0.29 0.53,0.49 0.18,0.17 0.36,0.28 0.53,0.46 0.1,0.1 0.15,0.19 0.25,0.28 0.52,0.48 0.79,0.69 1.31,1.23 0.18,0.18 0.34,0.28 0.52,0.46 0.21,0.21 0.33,0.32 0.52,0.51l2.07 1.94c0.36,0.28 0.32,0.31 0.53,0.49 0.57,0.51 1.06,1.03 1.57,1.46l0.49 0.49c0.29,0.3 0.41,0.32 0.78,0.73l1.3 1.2c0.2,0.2 0.34,0.34 0.52,0.5 0.09,0.08 0.18,0.15 0.26,0.23l1.81 1.71c0.11,0.1 0.41,0.35 0.46,0.49 -0.45,0.04 -1.03,-0.01 -1.5,-0.01 -0.89,0 -4.12,-0.05 -4.53,0.04 -0.71,0.15 -1.36,0.78 -1.4,1.63 -0.02,0.53 0.61,1.68 0.82,2.16 0.42,0.94 3.72,8.01 3.77,8.27 -0.09,0.09 -3.04,1.46 -3.22,1.48 -0.13,-0.14 -3.69,-8.02 -3.93,-8.52 -0.39,-0.8 -0.55,-1.47 -1.43,-1.69 -0.49,-0.12 -0.93,0.01 -1.28,0.25 -0.38,0.25 -3.66,3.71 -3.93,3.82l0.01 -23.03zm13.25 18.78c0.4,-0.06 1.19,-0.02 1.63,-0.02 0.55,0 1.1,0 1.65,0 1.1,0 2.2,0 3.3,0 0.52,0 1.06,0.05 1.51,-0.14 0.38,-0.17 0.67,-0.45 0.81,-0.84 0.45,-1.15 -0.3,-1.68 -0.81,-2.19 -0.15,-0.16 -0.29,-0.25 -0.45,-0.4l-11.86 -11.14c-0.15,-0.13 -0.29,-0.24 -0.42,-0.38l-5.91 -5.55c-0.17,-0.14 -0.3,-0.23 -0.45,-0.4l-2.09 -1.97c-0.31,-0.29 -0.52,-0.54 -0.87,-0.78 -0.88,-0.61 -1.86,-0.18 -2.26,0.47 -0.37,0.59 -0.24,2.25 -0.24,3.08l0 26.26c0,0.86 -0.15,2.39 0.25,3.02 0.16,0.24 0.56,0.59 0.98,0.67 0.92,0.19 1.36,-0.3 1.77,-0.71l4.51 -4.47c0.16,0.18 3.2,6.92 3.26,7.05 0.52,1.2 0.98,2.84 2.54,2.51 0.42,-0.09 1.33,-0.6 1.8,-0.79 0.62,-0.26 1.11,-0.52 1.75,-0.8 0.66,-0.29 3.13,-1.33 3.45,-1.72 0.5,-0.61 0.49,-1.21 0.12,-1.99 -0.27,-0.58 -0.53,-1.17 -0.79,-1.75 -0.31,-0.67 -3.18,-6.87 -3.19,-7.03zm-43.91 2.63l0.99 1.1c-0.26,-0.07 -1.71,-0.74 -2.03,-0.9 -1.9,-0.96 -3.8,-2.15 -5.4,-3.43 -1.07,-0.85 -2.95,-2.52 -3.83,-3.53 -0.43,-0.5 -1.86,-2.05 -1.99,-2.45l6.66 0.02c0.14,0.17 0.54,1.21 0.66,1.47 0.52,1.1 0.85,1.76 1.44,2.79 0.25,0.44 0.51,0.9 0.78,1.32 0.67,1.06 1.83,2.66 2.72,3.61zm-3.64 -13.22c-0.64,-1.91 -1.11,-3.9 -1.48,-5.87 -0.22,-1.17 -0.41,-2.46 -0.54,-3.69 -0.06,-0.58 -0.34,-3.57 -0.24,-3.95l17.44 0.01 -0.02 14.31 -14.88 -0.02 -0.28 -0.79zm-6.01 -13.52c0.08,-0 0.24,-0.01 0.31,-0.01 0.24,0.02 0.11,-0.03 0.24,0.09 0.1,3.66 0.57,7.45 1.44,10.99l0.89 3.24 -7.4 0.02c-0.33,-0 -0.33,-0.13 -0.46,-0.36 -0.73,-1.29 -1,-1.9 -1.61,-3.29 -0.66,-1.5 -1.23,-3.31 -1.62,-4.94 -0.22,-0.94 -0.97,-4.98 -0.79,-5.72 0.4,-0.08 1.89,-0.03 2.39,-0.02l6.6 0zm3.74 -3.2c-0.05,-0.42 0.05,-1.46 0.08,-1.93 0.13,-1.88 0.31,-3.44 0.63,-5.3 0.37,-2.17 0.93,-4.34 1.58,-6.36 0.31,-0.96 0.13,-0.73 1.27,-0.73 1.98,-0.01 3.95,0.03 5.93,0 0.41,-0.01 7.62,-0.03 7.93,0.01 0.08,0.26 0.02,11.04 0.02,12.52 0,0.53 0.06,1.3 -0,1.8l-17.45 -0.01zm50.83 -0c-0.64,0.08 -1.72,0.02 -2.41,0.01 -0.98,-0.01 -6.69,0.06 -7.13,-0.03 -0.08,-0.55 -0.07,-1.39 -0.12,-1.99 -0.11,-1.53 -0.19,-2.29 -0.38,-3.8 -0.01,-0.08 -0.02,-0.17 -0.03,-0.24 -0,-0.01 -0,-0.02 -0.01,-0.04l-0.09 -0.63c-0.25,-1.53 -0.51,-2.87 -0.87,-4.34l-0.89 -3.26c1.03,-0.05 2.25,-0 3.31,-0l4.11 -0c0.36,-0 0.35,0.07 0.47,0.33 0.18,0.37 0.38,0.68 0.58,1.07 1.2,2.39 1.98,4.47 2.64,7.17 0.31,1.24 0.88,4.55 0.8,5.75zm-63.58 -0.01c-0.11,-1.13 0.52,-4.54 0.8,-5.74 0.2,-0.84 0.46,-1.72 0.73,-2.57 0.14,-0.42 0.27,-0.82 0.43,-1.22 0.15,-0.38 0.29,-0.76 0.45,-1.15 0.52,-1.23 0.98,-2.17 1.63,-3.32 0.13,-0.24 0.13,-0.32 0.49,-0.32 0.74,0.01 7.09,-0.03 7.34,0.02l-0.89 3.27c-0.54,2.19 -0.99,4.88 -1.2,7.15l-0.25 3.9 -9.54 -0.02zm33.42 -17.5c-0.1,-0.21 -0.04,-5.52 -0.03,-6.3 0.01,-0.87 -0.07,-5.87 0.02,-6.27 0.54,-0.03 2.12,0.45 2.61,0.65 1.79,0.73 3.42,1.7 4.82,3.03 0.08,0.08 0.14,0.11 0.22,0.18 0.42,0.33 1.22,1.26 1.59,1.67 1.14,1.27 2.57,3.38 3.33,4.87 0.16,0.3 1.03,1.97 1.03,2.18l-13.58 -0.01zm-16.81 0c-0.01,-0.13 0.39,-0.92 0.49,-1.11 0.85,-1.71 1.34,-2.57 2.44,-4.12 0.54,-0.76 0.94,-1.21 1.45,-1.85 0.78,-0.98 1.98,-2.02 2.95,-2.8l0.57 -0.41c0.01,-0.01 0.02,-0.01 0.03,-0.02 0.95,-0.67 1.94,-1.19 3.06,-1.63 0.53,-0.21 1.99,-0.67 2.58,-0.65 0.11,0.35 0.03,2.6 0.03,3.15 0,1.35 0.06,9.24 -0.04,9.43l-13.55 -0.01zm-10.21 0c0.03,-0.14 0.9,-1.22 1.12,-1.47 0.77,-0.9 2.19,-2.41 3.09,-3.15 0.27,-0.22 0.4,-0.39 0.79,-0.69 0.28,-0.22 0.52,-0.43 0.81,-0.66 1.08,-0.86 2.23,-1.63 3.52,-2.41 0.52,-0.31 3.34,-1.8 3.94,-1.95 -0.07,0.17 -0.38,0.42 -0.51,0.57l-1.46 1.71c-0.61,0.76 -1.22,1.62 -1.76,2.48 -0.55,0.89 -1.01,1.74 -1.53,2.71 -0.26,0.49 -0.45,0.93 -0.7,1.44 -0.08,0.16 -0.59,1.4 -0.66,1.43l-6.65 -0zm44.61 0c-0.57,0 -0.51,0.09 -0.71,-0.39 -0.68,-1.64 -1.73,-3.59 -2.63,-5.04 -1.02,-1.64 -2.07,-3 -3.33,-4.38 -0.16,-0.17 -0.41,-0.34 -0.52,-0.57 0.71,0.15 3.37,1.63 4.02,1.97 1.39,0.73 4.04,2.74 5.15,3.77 0.93,0.87 1.02,0.89 1.87,1.83l1.07 1.16c0.19,0.21 1.25,1.45 1.27,1.65l-6.19 -0zm-17.61 17.49c-0.06,-0.47 -0.01,-10 -0.01,-10.97 0,-0.61 0,-1.22 0,-1.83 0,-1.34 -0.18,-1.54 0.32,-1.52 2.4,0.07 4.9,0.01 7.31,0 1.22,0 2.44,0 3.66,0 0.61,0 1.22,0 1.83,0 0.55,0 1.27,-0.05 1.79,0 0.18,0.3 0.38,1.12 0.51,1.52 0.17,0.52 0.31,1.06 0.46,1.6 0.62,2.24 1,4.58 1.29,6.92 0.05,0.44 0.28,3.7 0.33,3.78 0.1,0.18 1.87,1.72 2.12,1.98l1.06 1c0.79,0.63 0.39,0.72 1.33,0.72 0.62,-0 7.75,-0.05 8.19,0.02 0.16,0.96 -0.56,4.73 -0.81,5.8 -0.05,0.2 -0.33,1.2 -0.3,1.3 0.04,0.16 1.09,1.05 1.27,1.22 0.09,0.08 0.1,0.13 0.19,0.21 0.3,0.27 0.77,0.82 1.11,0.97 0.09,-0.42 0.29,-0.96 0.42,-1.41 1.69,-5.67 1.82,-12.03 0.45,-17.77 -0.23,-0.97 -0.5,-1.97 -0.8,-2.86 -0.08,-0.24 -0.16,-0.45 -0.24,-0.7 -0.01,-0.03 -0.02,-0.07 -0.03,-0.1 -0.34,-1.07 -0.85,-2.1 -1.29,-3.12 -0.17,-0.39 -0.39,-0.79 -0.6,-1.22 -0.71,-1.45 -2.46,-4.25 -3.58,-5.56l-1.68 -1.98c-0.28,-0.33 -0.61,-0.62 -0.9,-0.93 -0.71,-0.77 -1.57,-1.5 -2.38,-2.21l-0.49 -0.4c-1.73,-1.38 -3.49,-2.62 -5.48,-3.66 -6.69,-3.52 -13.38,-4.82 -21.15,-3.92 -4.03,0.46 -7.94,1.83 -11.19,3.43 -0.8,0.39 -1.63,0.86 -2.35,1.3 -1.16,0.7 -2.22,1.42 -3.25,2.23l-1.02 0.81c-0.18,0.14 -0.32,0.27 -0.51,0.43 -0.15,0.13 -0.32,0.29 -0.48,0.42l-3.57 3.7c-1.38,1.59 -2.64,3.46 -3.73,5.41 -1.65,2.95 -3.23,6.93 -3.86,10.76 -0.74,4.49 -0.77,8.99 0.17,13.39 0.42,1.95 0.99,3.91 1.68,5.64 0.51,1.28 1.09,2.54 1.74,3.74 0.21,0.38 0.41,0.8 0.63,1.15 0.73,1.15 1.4,2.22 2.19,3.29 0.59,0.79 1.24,1.53 1.86,2.29 0.08,0.09 0.14,0.14 0.22,0.22 0.15,0.16 0.26,0.29 0.42,0.47 0.59,0.66 1.22,1.18 1.83,1.82 0.3,0.31 0.65,0.56 0.98,0.85l0.51 0.43c0.11,0.09 0.13,0.12 0.23,0.21 0.08,0.07 0.17,0.14 0.25,0.19 3.11,2.38 6.28,4.25 10,5.57 0.25,0.09 0.43,0.15 0.66,0.22 4.75,1.58 9.53,2.05 14.57,1.62 1.43,-0.12 3.32,-0.42 4.69,-0.8 0.32,-0.09 1.09,-0.32 1.39,-0.35l-0.01 -6.11c-0.23,0.09 -0.59,0.52 -0.81,0.7 -1.41,1.18 -2.94,2.17 -4.72,2.82 -0.41,0.15 -1.96,0.63 -2.41,0.57l0.02 -12.55c0.51,-0.14 6.65,0.08 7.9,-0.04 0.07,-0.16 0.09,-2.91 0,-3.18l-7.91 -0.02c-0.08,-0.37 -0.02,-3 -0.02,-3.6 -0,-1.19 0,-2.38 0,-3.57l0 -6.24c0,-0.15 0,-0.3 -0,-0.45 -0,-0.04 -0.01,-0.2 -0,-0.23 0.02,-0.19 0.03,-0.17 0.16,-0.21 0.19,-0.06 1.64,-0.01 1.86,-0.01 1.79,0 4.31,0.08 5.95,-0.01 -0.02,-0.51 0.07,-2.84 -0.03,-3.18l-7.92 -0.02z"/>
 </g>
</svg>
