<?xml version="1.0" encoding="UTF-8"?>
<!DOCTYPE svg PUBLIC "-//W3C//DTD SVG 1.1//EN" "http://www.w3.org/Graphics/SVG/1.1/DTD/svg11.dtd">
<!-- Creator: CorelDRAW 2020 (64-Bit) -->
<svg xmlns="http://www.w3.org/2000/svg" xml:space="preserve" width="12mm" height="12mm" version="1.1" style="shape-rendering:geometricPrecision; text-rendering:geometricPrecision; image-rendering:optimizeQuality; fill-rule:evenodd; clip-rule:evenodd"
viewBox="0 0 126.91 126.91"
 xmlns:xlink="http://www.w3.org/1999/xlink"
 xmlns:xodm="http://www.corel.com/coreldraw/odm/2003">
 <defs>
  <style type="text/css">
   <![CDATA[
    .fil0 {fill:#FEFEFE;fill-rule:nonzero}
    .fil1 {fill:#199DD9;fill-rule:nonzero}
   ]]>
  </style>
 </defs>
 <g id="Слой_x0020_18">
  <metadata id="CorelCorpID_0Corel-Layer"/>
  <path class="fil0" d="M126.91 63.46c0,35.05 -28.41,63.46 -63.46,63.46 -35.04,0 -63.45,-28.41 -63.45,-63.46 0,-35.05 28.41,-63.46 63.45,-63.46 35.05,0 63.46,28.41 63.46,63.46z"/>
 </g>
 <g id="Слой_x0020_27">
  <metadata id="CorelCorpID_1Corel-Layer"/>
  <path class="fil1" d="M93.2 36.76c-0.7,-1.55 -2.16,-2.41 -4.11,-2.41 -1.42,0 -2.67,0.45 -2.81,0.51 -0.42,0.16 -41.62,15.91 -58.52,22.84 -1.48,0.61 -2.44,1.46 -2.85,2.54 -0.63,1.67 0.55,3.39 1.68,3.89 4.2,1.85 12.93,4.42 15.67,5.2 0.9,3 4.06,13.46 5.52,17.95 0.38,1.17 1.51,1.86 3.02,1.86 0.22,0 0.36,-0.01 0.36,-0.01 0.4,-0.05 0.76,-0.25 1.01,-0.55 0.21,-0.25 0.36,-0.55 0.39,-0.9l0.87 -12.64c1.65,1.24 4.06,3.04 6.72,5.03 5.26,3.93 11.52,8.59 15.03,11.12 1.24,0.9 2.45,1.35 3.58,1.35 2.54,0 4,-2.17 4.47,-4.03 2.9,-11.3 7.16,-32.66 9.71,-45.42l0.56 -2.79c0.35,-1.76 0.05,-2.78 -0.29,-3.54zm-42.68 35.21l0 0 -0.78 11.23c-1.91,-6.1 -4.72,-15.46 -4.75,-15.58 -0.01,-0.03 -0.04,-0.05 -0.05,-0.08l-0.01 -0.07 32.22 -20.98c0,0 2.2,-1.5 3.03,-1.69 1.13,-0.25 1.4,0.2 1.19,0.47 -0.78,1.05 -4.47,4.23 -4.47,4.23l-25.68 21.27 0 0.01c-0.4,0.27 -0.67,0.69 -0.7,1.18z"/>
 </g>
</svg>
