<?xml version="1.0" encoding="UTF-8"?>
<!DOCTYPE svg PUBLIC "-//W3C//DTD SVG 1.1//EN" "http://www.w3.org/Graphics/SVG/1.1/DTD/svg11.dtd">
<!-- Creator: CorelDRAW 2020 (64-Bit) -->
<svg xmlns="http://www.w3.org/2000/svg" xml:space="preserve" width="12mm" height="12mm" version="1.1" style="shape-rendering:geometricPrecision; text-rendering:geometricPrecision; image-rendering:optimizeQuality; fill-rule:evenodd; clip-rule:evenodd"
viewBox="0 0 126.91 126.91"
 xmlns:xlink="http://www.w3.org/1999/xlink"
 xmlns:xodm="http://www.corel.com/coreldraw/odm/2003">
 <defs>
  <style type="text/css">
   <![CDATA[
    .fil0 {fill:#FEFEFE;fill-rule:nonzero}
    .fil1 {fill:#5281B9;fill-rule:nonzero}
   ]]>
  </style>
 </defs>
 <g id="Слой_x0020_16">
  <metadata id="CorelCorpID_0Corel-Layer"/>
  <path class="fil0" d="M126.91 63.45c0,35.05 -28.41,63.46 -63.46,63.46 -35.04,0 -63.45,-28.41 -63.45,-63.46 0,-35.04 28.41,-63.45 63.45,-63.45 35.05,0 63.46,28.41 63.46,63.45z"/>
 </g>
 <g id="Слой_x0020_25">
  <metadata id="CorelCorpID_1Corel-Layer"/>
  <path class="fil1" d="M28.42 45.58c3.28,-0 10.29,-0 12.66,-0 0.49,0 0.93,0.29 1.13,0.74 2.91,6.32 6.45,12.05 10.72,17.09 0.37,0.59 1.25,0.53 1.52,-0.12 1.33,-3.24 3.79,-11.13 -0.97,-16.74 -0.42,-0.5 -0.25,-1.28 0.35,-1.53 4.82,-2.01 9.54,-2.3 14.13,-0.25 0.96,0.43 1.59,1.39 1.59,2.45l1.08 16.25c0,0.72 0.66,1.3 1.37,1.15 5.29,-1.12 8.41,-9.05 11.49,-17.33 0.38,-1.02 1.34,-1.7 2.43,-1.7l11.66 0c0.95,0 1.72,0.85 1.55,1.79 -1.1,5.87 -7,13.49 -10.09,17.15 -1.07,1.27 -1.08,3.11 -0.01,4.38l10.42 12.41c0.75,0.89 0.11,2.25 -1.05,2.25l-13.19 0c-1.08,0 -2.12,-0.45 -2.85,-1.25l-9.22 -7.68c-0.48,-0.52 -1.39,-0.71 -1.84,-0.16 -1.14,1.39 -1.05,3.1 -1.59,6.99 -0.17,1.22 -1.26,2.09 -2.49,2.09l-9.02 0c-1.28,0 -2.55,-0.27 -3.71,-0.82 -5.17,-2.45 -19.31,-11.15 -27.27,-35.5 -0.27,-0.82 0.35,-1.67 1.21,-1.67z"/>
 </g>
</svg>
