<?xml version="1.0" encoding="UTF-8"?>
<!DOCTYPE svg PUBLIC "-//W3C//DTD SVG 1.1//EN" "http://www.w3.org/Graphics/SVG/1.1/DTD/svg11.dtd">
<!-- Creator: CorelDRAW 2020 (64-Bit) -->
<svg xmlns="http://www.w3.org/2000/svg" xml:space="preserve" width="12mm" height="11.9999mm" version="1.1" style="shape-rendering:geometricPrecision; text-rendering:geometricPrecision; image-rendering:optimizeQuality; fill-rule:evenodd; clip-rule:evenodd"
viewBox="0 0 126.91 126.91"
 xmlns:xlink="http://www.w3.org/1999/xlink"
 xmlns:xodm="http://www.corel.com/coreldraw/odm/2003">
 <defs>
  <style type="text/css">
   <![CDATA[
    .fil1 {fill:#22B63A}
    .fil0 {fill:#FEFEFE;fill-rule:nonzero}
   ]]>
  </style>
 </defs>
 <g id="Слой_x0020_19">
  <metadata id="CorelCorpID_0Corel-Layer"/>
  <path class="fil0" d="M126.91 63.46c0,35.05 -28.41,63.45 -63.46,63.45 -35.05,0 -63.46,-28.41 -63.46,-63.45 0,-35.05 28.41,-63.46 63.46,-63.46 35.05,0 63.46,28.41 63.46,63.46z"/>
 </g>
 <g id="Слой_x0020_28">
  <metadata id="CorelCorpID_1Corel-Layer"/>
  <path class="fil1" d="M97.71 61.72c-0.46,-18.05 -15.33,-32.54 -33.63,-32.54 -18.08,0 -32.83,14.16 -33.61,31.93 -0.02,0.49 -0.03,0.98 -0.03,1.46 0,6.32 1.76,12.21 4.82,17.25l-6.07 17.91 18.63 -5.92c4.82,2.65 10.36,4.16 16.26,4.16 18.59,0 33.65,-14.95 33.65,-33.39 0,-0.28 0,-0.57 -0.02,-0.85zm-18.21 7.59c-0.83,-0.41 -4.88,-2.39 -5.64,-2.66 -0.76,-0.28 -1.31,-0.41 -1.86,0.41 -0.55,0.82 -2.14,2.66 -2.61,3.2 -0.49,0.55 -0.96,0.61 -1.8,0.2 -0.82,-0.41 -3.48,-1.26 -6.63,-4.06 -2.44,-2.16 -4.11,-4.84 -4.58,-5.65 -0.47,-0.82 -0.05,-1.26 0.36,-1.67 0.38,-0.38 0.82,-0.96 1.24,-1.43 0.11,-0.14 0.21,-0.27 0.3,-0.39 0.19,-0.3 0.33,-0.58 0.52,-0.98 0.28,-0.55 0.14,-1.02 -0.06,-1.43 -0.21,-0.41 -1.86,-4.44 -2.55,-6.08 -0.68,-1.64 -1.37,-1.35 -1.86,-1.35 -0.47,0 -1.02,-0.08 -1.57,-0.08 -0.55,0 -1.45,0.2 -2.21,1.02 -0.76,0.82 -2.88,2.8 -2.88,6.84 0,0.95 0.17,1.89 0.43,2.79 0.84,2.88 2.63,5.26 2.95,5.67 0.41,0.54 5.7,9.07 14.08,12.36 8.4,3.26 8.4,2.17 9.91,2.03 1.51,-0.13 4.88,-1.97 5.56,-3.89 0.69,-1.9 0.69,-3.54 0.49,-3.89 -0.21,-0.33 -0.76,-0.54 -1.57,-0.95zm-15.42 21.33l0 0c-5.75,0 -11.09,-1.7 -15.56,-4.65l-10.87 3.47 3.53 -10.43c-3.39,-4.63 -5.39,-10.32 -5.39,-16.46 0,-0.91 0.05,-1.83 0.14,-2.72 1.39,-14.21 13.48,-25.35 28.15,-25.35 14.85,0 27.06,11.42 28.19,25.88 0.06,0.73 0.1,1.45 0.1,2.19 0,15.48 -12.7,28.07 -28.29,28.07z"/>
 </g>
</svg>
