<?xml version="1.0" encoding="UTF-8"?>
<!DOCTYPE svg PUBLIC "-//W3C//DTD SVG 1.1//EN" "http://www.w3.org/Graphics/SVG/1.1/DTD/svg11.dtd">
<!-- Creator: CorelDRAW 2020 (64-Bit) -->
<svg xmlns="http://www.w3.org/2000/svg" xml:space="preserve" width="15.655mm" height="9.457mm" version="1.1" style="shape-rendering:geometricPrecision; text-rendering:geometricPrecision; image-rendering:optimizeQuality; fill-rule:evenodd; clip-rule:evenodd"
viewBox="0 0 156.55 94.57"
 xmlns:xlink="http://www.w3.org/1999/xlink"
 xmlns:xodm="http://www.corel.com/coreldraw/odm/2003">
 <defs>
  <style type="text/css">
   <![CDATA[
    .fil0 {fill:#714684}
   ]]>
  </style>
 </defs>
 <g id="Слой_x0020_1">
  <metadata id="CorelCorpID_0Corel-Layer"/>
  <path class="fil0" d="M78.275 0c43.232,0 78.275,29.649 78.275,47.285 0,17.636 -35.043,47.285 -78.275,47.285 -43.232,0 -78.275,-29.649 -78.275,-47.285 0,-17.636 35.043,-47.285 78.275,-47.285zm23.908 47.285c0,-13.204 -10.704,-23.908 -23.908,-23.908 -13.204,0 -23.908,10.704 -23.908,23.908 0,13.204 10.704,23.908 23.908,23.908 13.204,0 23.908,-10.704 23.908,-23.908zm-8.959 -9.922c0,-3.873 -3.139,-7.012 -7.012,-7.012 -3.873,0 -7.012,3.139 -7.012,7.012 0,3.873 3.139,7.012 7.012,7.012 3.873,0 7.012,-3.139 7.012,-7.012zm-14.949 -28.194c21.05,0 38.116,17.066 38.116,38.116 0,21.05 -17.066,38.116 -38.116,38.116 -21.05,0 -38.116,-17.066 -38.116,-38.116 0,-21.05 17.066,-38.116 38.116,-38.116z"/>
 </g>
</svg>
