<?xml version="1.0" encoding="UTF-8"?>
<!DOCTYPE svg PUBLIC "-//W3C//DTD SVG 1.1//EN" "http://www.w3.org/Graphics/SVG/1.1/DTD/svg11.dtd">
<!-- Creator: CorelDRAW 2020 (64-Bit) -->
<svg xmlns="http://www.w3.org/2000/svg" xml:space="preserve" width="48.8652mm" height="49.7344mm" version="1.1" style="shape-rendering:geometricPrecision; text-rendering:geometricPrecision; image-rendering:optimizeQuality; fill-rule:evenodd; clip-rule:evenodd"
viewBox="0 0 25.34 25.79"
 xmlns:xlink="http://www.w3.org/1999/xlink"
 xmlns:xodm="http://www.corel.com/coreldraw/odm/2003">
 <defs>
  <style type="text/css">
   <![CDATA[
    .str0 {stroke:#714684;stroke-width:1.24;stroke-miterlimit:22.9256}
    .fil0 {fill:none}
   ]]>
  </style>
 </defs>
 <g id="Слой_x0020_1">
  <metadata id="CorelCorpID_0Corel-Layer"/>
  <path class="fil0 str0" d="M2.43 7.72l4.48 0 0 4.68c0,1.51 1.23,2.74 2.74,2.74l6.85 0 0 3.36c0,0.99 -0.81,1.81 -1.81,1.81l-8.69 0 -3.57 3.88 0 -3.88c-0.99,0 -1.81,-0.81 -1.81,-1.81l0 -8.98c0,-0.99 0.81,-1.81 1.81,-1.81zm8.22 -7.1l12.26 0c0.99,0 1.81,0.81 1.81,1.81l0 8.98c0,0.99 -0.81,1.81 -1.81,1.81l0 3.88 -3.57 -3.88 -8.69 0c-0.99,0 -1.81,-0.81 -1.81,-1.81l0 -8.98c0,-0.99 0.81,-1.81 1.81,-1.81zm1.38 3.06l9.49 0c0.28,0 0.5,0.23 0.5,0.5l0 0c0,0.28 -0.23,0.5 -0.5,0.5l-9.49 0c-0.28,0 -0.5,-0.23 -0.5,-0.5l0 0c0,-0.28 0.23,-0.5 0.5,-0.5zm0 2.73l9.49 0c0.28,0 0.5,0.23 0.5,0.5l0 0c0,0.28 -0.23,0.5 -0.5,0.5l-9.49 0c-0.28,0 -0.5,-0.23 -0.5,-0.5l0 0c0,-0.28 0.23,-0.5 0.5,-0.5zm0 2.73l9.49 0c0.28,0 0.5,0.23 0.5,0.5l0 0c0,0.28 -0.23,0.5 -0.5,0.5l-9.49 0c-0.28,0 -0.5,-0.23 -0.5,-0.5l0 0c0,-0.28 0.23,-0.5 0.5,-0.5z"/>
 </g>
</svg>
