<?xml version="1.0" encoding="UTF-8"?>
<!DOCTYPE svg PUBLIC "-//W3C//DTD SVG 1.1//EN" "http://www.w3.org/Graphics/SVG/1.1/DTD/svg11.dtd">
<!-- Creator: CorelDRAW 2020 (64-Bit) -->
<svg xmlns="http://www.w3.org/2000/svg" xml:space="preserve" width="30mm" height="42.6058mm" version="1.1" style="shape-rendering:geometricPrecision; text-rendering:geometricPrecision; image-rendering:optimizeQuality; fill-rule:evenodd; clip-rule:evenodd"
viewBox="0 0 892.94 1268.15"
 xmlns:xlink="http://www.w3.org/1999/xlink"
 xmlns:xodm="http://www.corel.com/coreldraw/odm/2003">
 <defs>
  <style type="text/css">
   <![CDATA[
    .fil0 {fill:#714684}
   ]]>
  </style>
 </defs>
 <g id="Слой_x0020_1">
  <metadata id="CorelCorpID_0Corel-Layer"/>
  <g id="_1591913401040">
   <path class="fil0" d="M460.31 505.2l-309.4 0 -44.22 0 0 -465.22 48.03 -39.98 51.38 40.22 49.3 -40.22 50.22 40.22 50.22 -40.22 49.55 40.22 50.89 -40.22 48.26 40.47 0 464.74 -44.22 0zm-27.4 -348.48l0 -44.97 -22.94 0 0 47.26 -69.49 0 0 14.88 69.49 0 0 23.76 -38.43 0c-17.8,0 -32.27,4.69 -43.42,14.06 -5.52,4.63 -9.66,10.11 -12.41,16.43 -2.76,6.35 -4.14,13.58 -4.14,21.71 0,8.34 1.3,15.78 3.89,22.3 2.58,6.48 6.46,12.11 11.63,16.88 5.18,4.78 11.36,8.38 18.53,10.77 7.24,2.42 15.51,3.63 24.82,3.63l62.48 0 0 -87.84 19.46 0 0 -17.66 -19.46 0 0 -24.04 19.46 0 0 -14.88 -19.46 0 0 -2.29zm-57.76 58.86l34.82 0 0 70.19 -35.37 0c-6.06,0 -11.49,-0.77 -16.27,-2.3 -4.85,-1.56 -9.02,-3.91 -12.51,-7.04 -3.49,-3.15 -6.12,-6.87 -7.88,-11.16 -1.74,-4.26 -2.61,-9.03 -2.61,-14.31 0,-5.29 0.89,-10.09 2.65,-14.39 1.77,-4.32 4.43,-8.1 7.97,-11.34 7.02,-6.43 16.76,-9.64 29.2,-9.64zm75.26 190.47l-289.61 0c-2.34,0 -4.24,-1.91 -4.24,-4.24l0 -14.55c0,-2.34 1.9,-4.24 4.24,-4.24l289.61 0c2.34,0 4.25,1.91 4.25,4.24l0 14.55c0,2.34 -1.91,4.24 -4.25,4.24zm0 49.79l-289.61 0c-2.34,0 -4.24,-1.91 -4.24,-4.25l0 -14.54c0,-2.34 1.9,-4.25 4.24,-4.25l289.61 0c2.34,0 4.25,1.91 4.25,4.25l0 14.54c0,2.34 -1.91,4.25 -4.25,4.25zm-175.2 -300.16l-114.88 0c-2.34,0 -4.25,-1.91 -4.25,-4.25l0 -14.54c0,-2.34 1.91,-4.24 4.25,-4.24l114.88 0c2.34,0 4.24,1.91 4.24,4.24l0 14.54c0,2.34 -1.91,4.25 -4.24,4.25zm0 49.78l-114.88 0c-2.34,0 -4.25,-1.91 -4.25,-4.24l0 -14.55c0,-2.34 1.91,-4.24 4.25,-4.24l114.88 0c2.34,0 4.24,1.91 4.24,4.24l0 14.55c0,2.34 -1.91,4.24 -4.24,4.24zm0 49.79l-114.88 0c-2.34,0 -4.25,-1.91 -4.25,-4.24l0 -14.55c0,-2.34 1.91,-4.24 4.25,-4.24l114.88 0c2.34,0 4.24,1.91 4.24,4.24l0 14.55c0,2.34 -1.91,4.24 -4.24,4.24z"/>
   <path class="fil0" d="M54.83 352.31l36.75 0 0 90.35c0,7.25 5.93,13.18 13.18,13.18l401.71 0c7.25,0 13.18,-5.93 13.18,-13.18l0 -90.35 36.75 0c30.16,0 54.83,24.67 54.83,54.83l0 806.18c0,30.15 -24.67,54.83 -54.83,54.83l-501.56 0c-30.16,0 -54.83,-24.67 -54.83,-54.83l0 -806.18c0,-30.16 24.67,-54.83 54.83,-54.83zm595.48 298.64l194.47 0c26.49,0 48.16,21.67 48.16,48.16l0 470.11c0,26.49 -21.67,48.16 -48.16,48.16l-194.47 0 0 -566.43zm144.21 78.65l19.46 0c6.62,0 12.04,5.42 12.04,12.04l0 115.78c0,6.62 -5.42,12.04 -12.04,12.04l-19.46 0c-6.62,0 -12.04,-5.42 -12.04,-12.04l0 -115.78c0,-6.62 5.42,-12.04 12.04,-12.04zm-69.45 0l19.46 0c6.62,0 12.04,5.42 12.04,12.04l0 212.84c0,6.62 -5.42,12.04 -12.04,12.04l-19.46 0c-6.62,0 -12.04,-5.42 -12.04,-12.04l0 -212.84c0,-6.62 5.42,-12.04 12.04,-12.04zm-608.36 -201.08l377.81 0c16.56,0 30.1,13.55 30.1,30.1l0 167.77c0,16.56 -13.54,30.1 -30.1,30.1l-377.81 0c-16.56,0 -30.1,-13.54 -30.1,-30.1l0 -167.77c0,-16.55 13.55,-30.1 30.1,-30.1zm153.07 320.08l71.66 0c12.87,0 23.4,10.53 23.4,23.4l0 14.86c0,12.87 -10.53,23.4 -23.4,23.4l-71.66 0c-12.87,0 -23.4,-10.53 -23.4,-23.4l0 -14.86c0,-12.87 10.53,-23.4 23.4,-23.4zm159.77 0l71.67 0c12.87,0 23.4,10.53 23.4,23.4l0 14.86c0,12.87 -10.53,23.4 -23.4,23.4l-71.67 0c-12.87,0 -23.4,-10.53 -23.4,-23.4l0 -14.86c0,-12.87 10.53,-23.4 23.4,-23.4zm-319.55 0l71.67 0c12.87,0 23.4,10.53 23.4,23.4l0 14.86c0,12.87 -10.53,23.4 -23.4,23.4l-71.67 0c-12.87,0 -23.4,-10.53 -23.4,-23.4l0 -14.86c0,-12.87 10.53,-23.4 23.4,-23.4zm159.77 130.16l71.66 0c12.87,0 23.4,10.53 23.4,23.4l0 14.86c0,12.87 -10.53,23.4 -23.4,23.4l-71.66 0c-12.87,0 -23.4,-10.53 -23.4,-23.4l0 -14.86c0,-12.87 10.53,-23.4 23.4,-23.4zm159.77 0l71.67 0c12.87,0 23.4,10.53 23.4,23.4l0 14.86c0,12.87 -10.53,23.4 -23.4,23.4l-71.67 0c-12.87,0 -23.4,-10.53 -23.4,-23.4l0 -14.86c0,-12.87 10.53,-23.4 23.4,-23.4zm-319.55 0l71.67 0c12.87,0 23.4,10.53 23.4,23.4l0 14.86c0,12.87 -10.53,23.4 -23.4,23.4l-71.67 0c-12.87,0 -23.4,-10.53 -23.4,-23.4l0 -14.86c0,-12.87 10.53,-23.4 23.4,-23.4zm159.77 130.16l71.66 0c12.87,0 23.4,10.53 23.4,23.4l0 14.86c0,12.87 -10.53,23.4 -23.4,23.4l-71.66 0c-12.87,0 -23.4,-10.53 -23.4,-23.4l0 -14.86c0,-12.87 10.53,-23.4 23.4,-23.4zm159.77 0l71.67 0c12.87,0 23.4,10.53 23.4,23.4l0 14.86c0,12.87 -10.53,23.4 -23.4,23.4l-71.67 0c-12.87,0 -23.4,-10.53 -23.4,-23.4l0 -14.86c0,-12.87 10.53,-23.4 23.4,-23.4zm-319.55 0l71.67 0c12.87,0 23.4,10.53 23.4,23.4l0 14.86c0,12.87 -10.53,23.4 -23.4,23.4l-71.67 0c-12.87,0 -23.4,-10.53 -23.4,-23.4l0 -14.86c0,-12.87 10.53,-23.4 23.4,-23.4z"/>
  </g>
 </g>
</svg>
