<?xml version="1.0" encoding="UTF-8"?>
<!DOCTYPE svg PUBLIC "-//W3C//DTD SVG 1.1//EN" "http://www.w3.org/Graphics/SVG/1.1/DTD/svg11.dtd">
<!-- Creator: CorelDRAW 2020 (64-Bit) -->
<svg xmlns="http://www.w3.org/2000/svg" xml:space="preserve" width="10.6962mm" height="10.542mm" version="1.1" style="shape-rendering:geometricPrecision; text-rendering:geometricPrecision; image-rendering:optimizeQuality; fill-rule:evenodd; clip-rule:evenodd"
viewBox="0 0 545.79 537.92"
 xmlns:xlink="http://www.w3.org/1999/xlink"
 xmlns:xodm="http://www.corel.com/coreldraw/odm/2003">
 <defs>
  <style type="text/css">
   <![CDATA[
    .str0 {stroke:#714684;stroke-width:38.27;stroke-miterlimit:22.9256}
    .fil1 {fill:none}
    .fil0 {fill:#714684}
   ]]>
  </style>
 </defs>
 <g id="Слой_x0020_1">
  <metadata id="CorelCorpID_0Corel-Layer"/>
  <g id="_2836258789520">
   <path class="fil0" d="M131.25 109.97c26.33,23.63 85.06,63.45 45.9,95.18 -39.15,31.73 -70.21,48.6 -41.85,85.06 28.36,36.45 89.11,97.21 108.69,108.69 19.57,11.48 39.15,33.75 76.28,-8.1 37.13,-41.85 43.88,-64.8 103.96,4.05 60.08,68.85 83.71,61.43 -0.67,125.55 -84.38,64.13 -264.62,-64.12 -307.15,-121.5 -42.53,-57.38 -165.38,-186.99 -95.18,-280.14 52.65,-77.63 99.23,-14.85 110.03,-8.78z"/>
   <path class="fil1 str0" d="M265.62 19.08c128.57,9.74 262.99,62.32 261.03,272.72"/>
   <path class="fil1 str0" d="M259.51 103.89c89.1,6.75 182.26,43.19 180.91,189.01"/>
  </g>
 </g>
</svg>
