<?xml version="1.0" encoding="UTF-8"?>
<!DOCTYPE svg PUBLIC "-//W3C//DTD SVG 1.1//EN" "http://www.w3.org/Graphics/SVG/1.1/DTD/svg11.dtd">
<!-- Creator: CorelDRAW 2020 (64-Bit) -->
<svg xmlns="http://www.w3.org/2000/svg" xml:space="preserve" width="29.9998mm" height="28.075mm" version="1.1" style="shape-rendering:geometricPrecision; text-rendering:geometricPrecision; image-rendering:optimizeQuality; fill-rule:evenodd; clip-rule:evenodd"
viewBox="0 0 3080.42 2882.78"
 xmlns:xlink="http://www.w3.org/1999/xlink"
 xmlns:xodm="http://www.corel.com/coreldraw/odm/2003">
 <defs>
  <style type="text/css">
   <![CDATA[
    .fil0 {fill:#714684}
   ]]>
  </style>
 </defs>
 <g id="Слой_x0020_1">
  <metadata id="CorelCorpID_0Corel-Layer"/>
  <path class="fil0" d="M1287.78 2123.48c203.12,-73.93 427.72,30.8 501.66,233.93 73.92,203.12 -30.8,427.72 -233.93,501.66 -203.13,73.92 -427.73,-30.8 -501.66,-233.93 -73.93,-203.12 30.8,-427.73 233.93,-501.66zm1727.66 -129.5l-1143.44 416.18c8.19,45.21 9.36,90.55 4.13,134.71l1183.07 -430.61c16.67,-6.06 25.35,-24.66 19.28,-41.33l-21.72 -59.66c-6.06,-16.68 -24.68,-25.33 -41.33,-19.28zm-230.08 -756.1l-1216.66 442.83c-33.37,12.15 -50.69,49.33 -38.56,82.66l120.83 331.99c85.99,49.74 156.31,127.59 195.67,226.44l1177.26 -428.5c33.38,-12.15 50.69,-49.33 38.57,-82.66l-194.45 -534.22c-12.13,-33.33 -49.3,-50.68 -82.66,-38.55zm-565.79 -556.73l-896.01 326.11c-33.34,12.14 -50.67,49.34 -38.54,82.67l165.98 456.04c12.13,33.33 49.31,50.68 82.66,38.55l896 -326.13c33.35,-12.14 50.67,-49.32 38.55,-82.66l-165.98 -456.03c-12.14,-33.34 -49.32,-50.68 -82.66,-38.55zm-1548.74 -443.03l657.07 1805.29c53.08,-11.18 106.51,-12.58 158.14,-5.21l-712.73 -1958.21c-11.46,-31.48 -29.08,-41.5 -66.12,-38.14l-276.39 15.8c-25.2,-36.93 -68.63,-60.23 -116.27,-57.43l-191 11.27c-72.06,4.25 -127.53,66.67 -123.29,138.73l0 0.01c4.25,72.07 66.68,127.54 138.74,123.29l191 -11.26c40.66,-2.4 76.04,-23.33 98.39,-54.05l185.08 -10.93c29.31,0.29 45.52,7.33 57.37,40.82zm677.13 2050.7c111.82,-40.69 235.44,16.95 276.14,128.76 40.7,111.82 -16.95,235.45 -128.76,276.14 -111.81,40.7 -235.44,-16.94 -276.14,-128.76 -40.69,-111.81 16.95,-235.45 128.76,-276.14z"/>
 </g>
</svg>
