<?xml version="1.0" encoding="UTF-8"?>
<!DOCTYPE svg PUBLIC "-//W3C//DTD SVG 1.1//EN" "http://www.w3.org/Graphics/SVG/1.1/DTD/svg11.dtd">
<!-- Creator: CorelDRAW 2020 (64-Bit) -->
<svg xmlns="http://www.w3.org/2000/svg" xml:space="preserve" width="60mm" height="80.994mm" version="1.1" style="shape-rendering:geometricPrecision; text-rendering:geometricPrecision; image-rendering:optimizeQuality; fill-rule:evenodd; clip-rule:evenodd"
viewBox="0 0 5985.77 8080.2"
 xmlns:xlink="http://www.w3.org/1999/xlink"
 xmlns:xodm="http://www.corel.com/coreldraw/odm/2003">
 <defs>
  <style type="text/css">
   <![CDATA[
    .fil0 {fill:#714684;fill-rule:nonzero}
   ]]>
  </style>
 </defs>
 <g id="Слой_x0020_1">
  <metadata id="CorelCorpID_0Corel-Layer"/>
  <path class="fil0" d="M801.23 8080.2l0 -1945.67 -801.23 0 0 -801.13 801.23 0 0 -801.14 -801.23 0 0 -915.62 801.23 0 0 -3616.64 2666.65 0c785.84,0 1401.96,206.06 1848.36,618.09 446.39,411.94 669.54,972.84 669.54,1682.4 0,694.28 -238.44,1241.77 -715.33,1642.38 -476.88,400.52 -1092.99,600.82 -1848.35,600.82l-1487.85 0 0 789.71 2861.21 0 0 801.13 -2861.21 0 0 1945.67 -1133.02 0zm1133.02 -4463.55l1339.09 0c488.31,0 867.87,-123.95 1138.78,-371.92 270.82,-247.98 406.27,-577.99 406.27,-990.02 0,-412.03 -133.56,-738.27 -400.61,-978.59 -267.05,-240.33 -640.95,-360.49 -1121.6,-360.49l-1361.93 0 0 2701.02z"/>
 </g>
</svg>
