<?xml version="1.0" encoding="UTF-8"?>
<!DOCTYPE svg PUBLIC "-//W3C//DTD SVG 1.1//EN" "http://www.w3.org/Graphics/SVG/1.1/DTD/svg11.dtd">
<!-- Creator: CorelDRAW 2020 (64-Bit) -->
<svg xmlns="http://www.w3.org/2000/svg" xml:space="preserve" width="32.6451mm" height="38.7316mm" version="1.1" style="shape-rendering:geometricPrecision; text-rendering:geometricPrecision; image-rendering:optimizeQuality; fill-rule:evenodd; clip-rule:evenodd"
viewBox="0 0 58.48 69.38"
 xmlns:xlink="http://www.w3.org/1999/xlink"
 xmlns:xodm="http://www.corel.com/coreldraw/odm/2003">
 <defs>
  <style type="text/css">
   <![CDATA[
    .fil0 {fill:#5B5B5B}
   ]]>
  </style>
 </defs>
 <g id="Слой_x0020_1">
  <metadata id="CorelCorpID_0Corel-Layer"/>
  <path class="fil0" d="M4.35 0l0 0c2.4,0 4.35,1.95 4.35,4.35l0 1.97 24.86 0c2.39,0 4.35,1.95 4.35,4.35l0 0c0,2.39 -1.95,4.35 -4.35,4.35l-24.86 0 0 7.32 40.5 0c2.39,0 4.35,1.95 4.35,4.35l0 0c0,2.39 -1.95,4.35 -4.35,4.35l-40.5 0 0 7.32 45.44 0c2.39,0 4.35,1.95 4.35,4.35l0 0c0,2.39 -1.95,4.35 -4.35,4.35l-45.44 0 0 7.32 24.86 0c2.39,0 4.35,1.95 4.35,4.35l0 0c0,2.39 -1.95,4.35 -4.35,4.35l-24.86 0 0 1.97c0,2.39 -1.95,4.35 -4.35,4.35l0 0c-2.39,0 -4.35,-1.95 -4.35,-4.35l0 -6.31 0 -16.02 0 -16.02 0 -16.02 0 -6.32c0,-2.39 1.95,-4.35 4.35,-4.35z"/>
 </g>
</svg>
