<?xml version="1.0" encoding="UTF-8"?>
<!DOCTYPE svg PUBLIC "-//W3C//DTD SVG 1.1//EN" "http://www.w3.org/Graphics/SVG/1.1/DTD/svg11.dtd">
<!-- Creator: CorelDRAW 2020 (64-Bit) -->
<svg xmlns="http://www.w3.org/2000/svg" xml:space="preserve" width="29.1522mm" height="22.8711mm" version="1.1" style="shape-rendering:geometricPrecision; text-rendering:geometricPrecision; image-rendering:optimizeQuality; fill-rule:evenodd; clip-rule:evenodd"
viewBox="0 0 7924.76 6217.3"
 xmlns:xlink="http://www.w3.org/1999/xlink"
 xmlns:xodm="http://www.corel.com/coreldraw/odm/2003">
 <defs>
  <style type="text/css">
   <![CDATA[
    .fil0 {fill:#714684}
   ]]>
  </style>
 </defs>
 <g id="Слой_x0020_1">
  <metadata id="CorelCorpID_0Corel-Layer"/>
  <path class="fil0" d="M738.86 2986.93l-0.92 1775.96 3010.5 1454.4 1.63 -3271.96 -102.24 213.5c-34.03,76.47 -69.18,150.03 -102.38,226.72 -66.14,152.75 -136.87,304.87 -205.38,453.67 -33.65,73.15 -61.06,155.19 -125.48,196.7 -88.57,57.06 -158.21,43.14 -248.11,-1.88 -146.79,-73.53 -300.57,-139.97 -447.78,-211.19 -163.51,-79.11 -1754.76,-836.18 -1779.85,-835.94zm7185.89 -819.55l-3013.14 1412.57 -662.29 -1481.15 3053.53 -1128.44 621.89 1197.02zm-7924.76 0l3013.16 1412.57 662.26 -1481.15 -3053.53 -1128.44 -621.89 1197.02zm7185.89 819.55l0.92 1775.96 -3010.5 1454.4 -1.63 -3271.96 102.24 213.5c34.03,76.47 69.18,150.03 102.38,226.72 66.14,152.75 136.87,304.87 205.38,453.67 33.65,73.15 61.06,155.19 125.48,196.7 88.57,57.06 158.21,43.14 248.11,-1.88 146.79,-73.53 300.57,-139.97 447.78,-211.19 163.51,-79.11 1754.76,-836.18 1779.85,-835.94zm-5960.71 -2250.19l2736.73 1015.79 2737.65 -1015.43 -2736.59 -737.1 -2737.79 736.74z"/>
 </g>
</svg>
