<?xml version="1.0" encoding="UTF-8"?>
<!DOCTYPE svg PUBLIC "-//W3C//DTD SVG 1.1//EN" "http://www.w3.org/Graphics/SVG/1.1/DTD/svg11.dtd">
<!-- Creator: CorelDRAW 2020 (64-Bit) -->
<svg xmlns="http://www.w3.org/2000/svg" xml:space="preserve" width="20.0975mm" height="18.3556mm" version="1.1" style="shape-rendering:geometricPrecision; text-rendering:geometricPrecision; image-rendering:optimizeQuality; fill-rule:evenodd; clip-rule:evenodd"
viewBox="0 0 20.25 18.5"
 xmlns:xlink="http://www.w3.org/1999/xlink"
 xmlns:xodm="http://www.corel.com/coreldraw/odm/2003">
 <defs>
  <style type="text/css">
   <![CDATA[
    .fil0 {fill:#714684}
   ]]>
  </style>
 </defs>
 <g id="Слой_x0020_1">
  <metadata id="CorelCorpID_0Corel-Layer"/>
  <path class="fil0" d="M2.29 2.12l0.28 0 0 1.24c0,0.93 0.76,1.68 1.68,1.68l0 0c0.93,0 1.68,-0.76 1.68,-1.68l0 -1.24 8.38 0 0 1.24c0,0.93 0.76,1.68 1.68,1.68l0 0c0.93,0 1.68,-0.76 1.68,-1.68l0 -1.24 0.28 0c1.26,0 2.29,1.03 2.29,2.29l0 11.81c0,1.26 -1.03,2.29 -2.29,2.29l-15.68 0c-1.26,0 -2.29,-1.03 -2.29,-2.29l0 -11.81c0,-1.26 1.03,-2.29 2.29,-2.29zm3.22 8.39l2.5 0 0 2.5 -2.5 0 0 -2.5zm3.37 0l2.5 0 0 2.5 -2.5 0 0 -2.5zm3.37 0l2.5 0 0 2.5 -2.5 0 0 -2.5zm3.37 0l2.5 0 0 2.5 -2.5 0 0 -2.5zm-13.48 0l2.5 0 0 2.5 -2.5 0 0 -2.5zm3.37 -3.35l2.5 0 0 2.5 -2.5 0 0 -2.5zm3.37 0l2.5 0 0 2.5 -2.5 0 0 -2.5zm3.37 0l2.5 0 0 2.5 -2.5 0 0 -2.5zm3.37 0l2.5 0 0 2.5 -2.5 0 0 -2.5zm-10.11 6.71l2.5 0 0 2.5 -2.5 0 0 -2.5zm3.37 0l2.5 0 0 2.5 -2.5 0 0 -2.5zm3.37 0l2.5 0 0 2.5 -2.5 0 0 -2.5zm-10.11 0l2.5 0 0 2.5 -2.5 0 0 -2.5zm2.12 -13.86l0 0c0.46,0 0.84,0.38 0.84,0.84l0 2.51c0,0.46 -0.38,0.84 -0.84,0.84l-0 0c-0.46,0 -0.84,-0.38 -0.84,-0.84l0 -2.51c0,-0.46 0.38,-0.84 0.84,-0.84zm11.75 0l0 0c0.46,0 0.84,0.38 0.84,0.84l0 2.51c0,0.46 -0.38,0.84 -0.84,0.84l-0 0c-0.46,0 -0.84,-0.38 -0.84,-0.84l0 -2.51c0,-0.46 0.38,-0.84 0.84,-0.84zm-14.71 6.28l17.67 0 0 10.01c0,0.52 -0.43,0.95 -0.95,0.95l-15.76 0c-0.52,0 -0.95,-0.43 -0.95,-0.95l0 -10.01z"/>
 </g>
</svg>
