<?xml version="1.0" encoding="UTF-8"?>
<!DOCTYPE svg PUBLIC "-//W3C//DTD SVG 1.1//EN" "http://www.w3.org/Graphics/SVG/1.1/DTD/svg11.dtd">
<!-- Creator: CorelDRAW 2020 (64-Bit) -->
<svg xmlns="http://www.w3.org/2000/svg" xml:space="preserve" width="17.7976mm" height="17.8537mm" version="1.1" style="shape-rendering:geometricPrecision; text-rendering:geometricPrecision; image-rendering:optimizeQuality; fill-rule:evenodd; clip-rule:evenodd"
viewBox="0 0 112.09 112.44"
 xmlns:xlink="http://www.w3.org/1999/xlink"
 xmlns:xodm="http://www.corel.com/coreldraw/odm/2003">
 <defs>
  <style type="text/css">
   <![CDATA[
    .fil0 {fill:#714684}
   ]]>
  </style>
 </defs>
 <g id="Слой_x0020_1">
  <metadata id="CorelCorpID_0Corel-Layer"/>
  <path class="fil0" d="M107.86 65.76l0.3 18.5 0.29 18.51 -11.92 -7.54c-8.66,9.01 -19.91,14.66 -31.8,16.52 -13,2.04 -26.77,-0.44 -38.74,-8.01 -13.12,-8.3 -21.64,-21.14 -24.8,-35.18 -0.58,-2.56 -0.97,-5.16 -1.19,-7.79l9.41 -4.28 2.68 -1.22c-0.07,3.57 0.29,7.13 1.07,10.59 2.47,10.97 9.13,21 19.39,27.49 9.39,5.94 20.15,7.89 30.29,6.3 8.49,-1.33 16.57,-5.14 23.07,-11.15l-11.75 -7.43 16.85 -7.67 16.85 -7.66zm-51.82 -41.28c4.27,0 8.13,2 10.9,5.22 2.68,3.12 4.35,7.41 4.35,12.13 0,0.48 -0.02,0.94 -0.04,1.37 4.61,1.48 3.95,5.46 3.95,9.28 -0,6.53 0.15,14.52 0,20.92 -0.06,2.27 -1.13,3.68 -2.43,4.53 -1.73,1.13 -3.91,0.84 -6.13,0.84 -16.83,0.01 -4.34,0.01 -21.17,0 -2.23,0 -4.4,0.29 -6.14,-0.84 -1.31,-0.85 -2.38,-2.26 -2.43,-4.53 -0.15,-6.4 0,-14.39 0,-20.92 -0,-3.82 -0.67,-7.81 3.95,-9.28 -0.03,-0.43 -0.04,-0.89 -0.04,-1.37 0,-4.71 1.66,-9 4.35,-12.13 2.77,-3.22 6.63,-5.22 10.9,-5.22zm7.3 8.3c-1.89,-2.19 -4.47,-3.55 -7.3,-3.55 -2.83,0 -5.42,1.36 -7.3,3.55 -1.97,2.3 -3.2,5.49 -3.2,9.05 0,0.45 0.03,0.85 0.08,1.22l20.83 0c0.06,-0.37 0.08,-0.77 0.08,-1.22 0,-3.55 -1.22,-6.75 -3.2,-9.05zm-5.47 28.22l0 6.61c0,1.01 -0.82,1.83 -1.83,1.83l0 0c-1.01,0 -1.83,-0.82 -1.83,-1.83l0 -6.61c-1.31,-0.67 -2.2,-2.03 -2.2,-3.59 0,-2.23 1.81,-4.03 4.03,-4.03 2.23,0 4.03,1.81 4.03,4.03 0,1.57 -0.89,2.93 -2.2,3.59zm-53.65 -14.32l-0.3 -18.5 -0.29 -18.51 11.92 7.54c8.66,-9.01 19.91,-14.66 31.79,-16.52 13.01,-2.03 26.77,0.44 38.74,8.01 13.12,8.3 21.64,21.14 24.8,35.18 0.57,2.56 0.97,5.16 1.19,7.79l-9.41 4.28 -2.68 1.22c0.07,-3.57 -0.29,-7.13 -1.07,-10.59 -2.47,-10.97 -9.13,-21 -19.38,-27.5 -9.39,-5.94 -20.15,-7.89 -30.29,-6.29 -8.5,1.33 -16.57,5.14 -23.07,11.15l11.75 7.43 -16.85 7.67 -16.84 7.66z"/>
 </g>
</svg>
