<?xml version="1.0" encoding="UTF-8"?>
<!DOCTYPE svg PUBLIC "-//W3C//DTD SVG 1.1//EN" "http://www.w3.org/Graphics/SVG/1.1/DTD/svg11.dtd">
<!-- Creator: CorelDRAW 2020 (64-Bit) -->
<svg xmlns="http://www.w3.org/2000/svg" xml:space="preserve" width="16.6743mm" height="19.8062mm" version="1.1" style="shape-rendering:geometricPrecision; text-rendering:geometricPrecision; image-rendering:optimizeQuality; fill-rule:evenodd; clip-rule:evenodd"
viewBox="0 0 98.78 117.34"
 xmlns:xlink="http://www.w3.org/1999/xlink"
 xmlns:xodm="http://www.corel.com/coreldraw/odm/2003">
 <defs>
  <style type="text/css">
   <![CDATA[
    .fil0 {fill:#714684;fill-rule:nonzero}
   ]]>
  </style>
 </defs>
 <g id="Слой_x0020_1">
  <metadata id="CorelCorpID_0Corel-Layer"/>
  <path class="fil0" d="M31.28 36.83c-2.69,1.57 -5.16,3.48 -7.35,5.66 -6.51,6.51 -10.54,15.51 -10.54,25.46 0,9.94 4.03,18.94 10.54,25.45 6.5,6.52 15.5,10.54 25.46,10.54 9.95,0 18.96,-4.03 25.47,-10.53 6.5,-6.51 10.53,-15.52 10.53,-25.47 0,-9.95 -4.02,-18.96 -10.53,-25.47 -2.19,-2.18 -4.67,-4.09 -7.36,-5.66l0 -14.84c6.36,2.51 12.07,6.29 16.82,11.04l0 0.02c8.94,8.94 14.47,21.28 14.47,34.9 0,13.62 -5.53,25.96 -14.47,34.9l-0.02 0.02c-8.94,8.93 -21.28,14.47 -34.9,14.47 -13.62,0 -25.96,-5.53 -34.9,-14.47l-0.03 0c-8.94,-8.94 -14.47,-21.29 -14.47,-34.92 0,-13.64 5.53,-25.99 14.47,-34.92 4.75,-4.75 10.46,-8.54 16.82,-11.04l0 14.85zm18.11 -36.83l0 0c-3.68,0 -6.7,3.01 -6.7,6.7l0 61.62c0,3.68 3.01,6.7 6.7,6.7l0 0c3.68,0 6.7,-3.01 6.7,-6.7l0 -61.62c0,-3.68 -3.01,-6.7 -6.7,-6.7z"/>
 </g>
</svg>
