<?xml version="1.0" encoding="UTF-8"?>
<!DOCTYPE svg PUBLIC "-//W3C//DTD SVG 1.1//EN" "http://www.w3.org/Graphics/SVG/1.1/DTD/svg11.dtd">
<!-- Creator: CorelDRAW 2020 (64-Bit) -->
<svg xmlns="http://www.w3.org/2000/svg" xml:space="preserve" width="17.6447mm" height="9.0182mm" version="1.1" style="shape-rendering:geometricPrecision; text-rendering:geometricPrecision; image-rendering:optimizeQuality; fill-rule:evenodd; clip-rule:evenodd"
viewBox="0 0 156.87 80.17"
 xmlns:xlink="http://www.w3.org/1999/xlink"
 xmlns:xodm="http://www.corel.com/coreldraw/odm/2003">
 <defs>
  <style type="text/css">
   <![CDATA[
    .fil0 {fill:#714684}
   ]]>
  </style>
 </defs>
 <g id="Слой_x0020_1">
  <metadata id="CorelCorpID_0Corel-Layer"/>
  <path class="fil0" d="M28.24 0l71.09 0c2.62,0 4.76,2.14 4.76,4.76l0 60.63c0,2.62 -2.14,4.75 -4.76,4.75l-38.29 0c-0.35,-7.05 -6.15,-12.68 -13.22,-12.68 -3.56,0 -6.95,1.39 -9.5,3.92 -2.39,2.39 -3.79,5.46 -3.96,8.76l-6.12 0c-2.62,0 -4.76,-2.14 -4.76,-4.75l0 -12.84 -19.76 0c-2.05,0 -3.72,-1.5 -3.72,-3.33l52.62 0c0,-1.83 -1.68,-3.33 -3.72,-3.33l-25.42 0 0 -8.43 -12.16 0c-2.05,0 -3.72,-1.5 -3.72,-3.33l52.62 0c0.04,-1.87 -1.64,-3.36 -3.69,-3.36l-33.05 -0.17 0 -8.52 -4.6 0c-2.05,0 -3.72,-1.5 -3.72,-3.33l52.62 0c0,-1.83 -1.68,-3.33 -3.73,-3.33l-40.57 0 0 -10.65c0,-2.62 2.14,-4.76 4.76,-4.76zm108.23 13.33c-0.86,-0.78 -2.01,-1.2 -3.2,-1.2l-20.04 0c-2.63,0 -4.78,2.08 -4.78,4.61l0 45.95c0.36,-0.46 0.75,-0.91 1.17,-1.33 2.55,-2.52 5.94,-3.92 9.5,-3.92 7.08,0 12.87,5.63 13.22,12.68l19.74 0c2.63,0 4.77,-2.08 4.77,-4.61l0 -33.29c0,-1.29 -0.57,-2.54 -1.58,-3.41l-18.82 -15.49 0 0zm-1.9 14.62c-0.36,-0.28 -0.85,-0.43 -1.35,-0.43l-9.59 0c-1.11,0 -2.02,0.74 -2.02,1.64l0 17.4c0,0.9 0.91,1.64 2.02,1.64l16.42 0c1.11,0 2.02,-0.74 2.02,-1.64l0 -11.16c0,-0.46 -0.24,-0.91 -0.66,-1.22l-6.83 -6.24 0 0zm-15.47 33.5c-2.5,0 -4.87,0.98 -6.66,2.75 -1.79,1.79 -2.79,4.12 -2.79,6.62 0,2.49 0.98,4.82 2.79,6.62 1.81,1.77 4.16,2.75 6.66,2.75 5.12,0 9.28,-4.2 9.28,-9.36 0,-5.16 -4.16,-9.36 -9.28,-9.36zm-71.31 0c-2.5,0 -4.87,0.98 -6.66,2.75 -1.79,1.79 -2.79,4.12 -2.79,6.62 0,2.49 0.98,4.82 2.79,6.61 1.81,1.77 4.16,2.75 6.66,2.75 5.12,0 9.28,-4.2 9.28,-9.36 0,-5.16 -4.16,-9.36 -9.28,-9.36z"/>
 </g>
</svg>
