<?xml version="1.0" encoding="UTF-8"?>
<!DOCTYPE svg PUBLIC "-//W3C//DTD SVG 1.1//EN" "http://www.w3.org/Graphics/SVG/1.1/DTD/svg11.dtd">
<!-- Creator: CorelDRAW 2020 (64-Bit) -->
<svg xmlns="http://www.w3.org/2000/svg" xml:space="preserve" width="12.0716mm" height="12.0717mm" version="1.1" style="shape-rendering:geometricPrecision; text-rendering:geometricPrecision; image-rendering:optimizeQuality; fill-rule:evenodd; clip-rule:evenodd"
viewBox="0 0 75.54 75.55"
 xmlns:xlink="http://www.w3.org/1999/xlink"
 xmlns:xodm="http://www.corel.com/coreldraw/odm/2003">
 <defs>
  <style type="text/css">
   <![CDATA[
    .fil0 {fill:#714684}
   ]]>
  </style>
 </defs>
 <g id="Слой_x0020_1">
  <metadata id="CorelCorpID_0Corel-Layer"/>
  <path class="fil0" d="M19.6 0l36.34 0c5.38,0 10.28,2.2 13.83,5.75l0.02 0c3.55,3.55 5.75,8.45 5.75,13.85l0 36.34c0,5.38 -2.2,10.27 -5.76,13.83l-0.02 0.02c-3.56,3.55 -8.46,5.76 -13.83,5.76l-36.34 0c-5.39,0 -10.3,-2.21 -13.85,-5.76 -3.55,-3.57 -5.75,-8.47 -5.75,-13.85l0 -36.34c0,-5.38 2.2,-10.27 5.75,-13.83l0.02 -0.02c3.56,-3.55 8.46,-5.76 13.83,-5.76zm1.19 66.77l0 -57.99 -1.19 0c-2.98,0 -5.69,1.21 -7.64,3.17l-0.02 0.02c-1.95,1.95 -3.17,4.66 -3.17,7.64l0 36.34c0,2.98 1.21,5.69 3.17,7.64l0.02 0c1.96,1.96 4.67,3.18 7.64,3.18l1.19 0zm31.2 -26.66l-1.08 0.85c-0.64,0.45 -1.43,0.87 -2.29,1.16 -0.97,0.34 -1.92,0.44 -3.05,0.38 -0.52,-0.03 -1.05,-0.08 -1.55,-0.18 -0.5,-0.1 -0.87,-0.24 -1.3,-0.42 -0.78,-0.33 -1.57,-0.84 -2.16,-1.29 -0.32,-0.24 -0.43,-0.35 -0.71,-0.59l-0.33 -0.31c-0.43,-0.39 -0.34,-0.36 -0.66,-0.24 -0.1,0.04 -0.2,0.07 -0.31,0.11 -0.83,0.33 -1.67,0.62 -2.48,0.97 -1.35,0.58 -2.21,0.98 -3.51,1.67 -0.6,0.32 -1.58,0.92 -2.12,1.33 -0.15,0.11 -0.59,0.46 -0.7,0.6 -0.04,0.05 -0.06,0.06 -0.11,0.11 -0.04,0.04 -0.06,0.07 -0.09,0.11 -0.49,0.55 -0.8,1.66 -1.03,2.42 -0.2,0.66 -0.67,2.16 -0.48,2.85 0.12,0.44 0.35,0.86 0.58,1.14 0.17,0.2 0.43,0.51 0.63,0.67 0.44,0.36 0.72,0.58 1.26,0.89 0.47,0.27 0.65,0.36 1.13,0.59 1.59,0.77 3.52,1.25 5.26,1.64 0.94,0.21 1.99,0.37 2.97,0.5 3.27,0.42 6.55,0.49 9.84,0.26 4.2,-0.29 9.73,-1.35 12.82,-3.79l0.23 -0.2c0.04,-0.04 0.06,-0.06 0.1,-0.1 0.27,-0.24 0.55,-0.59 0.77,-0.96 0.23,-0.41 0.35,-0.83 0.3,-1.39 -0.05,-0.49 -0.18,-0.98 -0.31,-1.42 -0.13,-0.45 -0.25,-0.89 -0.4,-1.33 -0.28,-0.82 -0.42,-1.24 -0.93,-1.88 -0.13,-0.16 -0.11,-0.11 -0.22,-0.23 -0.17,-0.18 -0.35,-0.33 -0.57,-0.5 -1.33,-1.03 -4.68,-2.62 -6.24,-3.25 -0.2,-0.08 -2.31,-0.9 -2.51,-0.94l-0.78 0.75zm-6.66 -20.01c-1.74,0.18 -3.3,0.82 -4.64,1.87l-0.93 0.86c-0.53,0.51 -1.14,1.42 -1.48,2.08 -0.97,1.87 -1.27,3.77 -0.95,5.94 0.22,1.51 0.75,3.12 1.47,4.44 0.14,0.25 0.29,0.53 0.43,0.76 0.55,0.85 0.91,1.32 1.55,1.99l0.61 0.58c0.35,0.31 0.61,0.51 0.99,0.77 0.13,0.09 0.24,0.15 0.37,0.24 1.16,0.73 2.18,0.96 3.84,0.85 1.31,-0.09 2.02,-0.48 3,-1.12 1.1,-0.72 1.9,-1.63 2.67,-2.67 0.62,-0.84 1.28,-2.13 1.63,-3.1 0.42,-1.17 0.76,-2.57 0.78,-3.94 0.04,-2.31 -0.39,-3.79 -1.53,-5.57 -0.24,-0.38 -0.47,-0.68 -0.75,-1.01 -0.05,-0.06 -0.09,-0.1 -0.14,-0.15 -0.05,-0.06 -0.09,-0.1 -0.15,-0.16 -0.91,-0.89 -1.61,-1.37 -2.82,-1.92 -1.05,-0.48 -2.64,-0.85 -3.98,-0.72z"/>
 </g>
</svg>
