<?xml version="1.0" encoding="UTF-8"?>
<!DOCTYPE svg PUBLIC "-//W3C//DTD SVG 1.1//EN" "http://www.w3.org/Graphics/SVG/1.1/DTD/svg11.dtd">
<!-- Creator: CorelDRAW 2020 (64-Bit) -->
<svg xmlns="http://www.w3.org/2000/svg" xml:space="preserve" width="13.4283mm" height="13.4508mm" version="1.1" style="shape-rendering:geometricPrecision; text-rendering:geometricPrecision; image-rendering:optimizeQuality; fill-rule:evenodd; clip-rule:evenodd"
viewBox="0 0 92.83 92.98"
 xmlns:xlink="http://www.w3.org/1999/xlink"
 xmlns:xodm="http://www.corel.com/coreldraw/odm/2003">
 <defs>
  <style type="text/css">
   <![CDATA[
    .fil0 {fill:#714684}
   ]]>
  </style>
 </defs>
 <g id="Слой_x0020_1">
  <metadata id="CorelCorpID_0Corel-Layer"/>
  <path class="fil0" d="M44.76 -0c-28.05,0 -16.48,0 -37.32,0 -0.91,0 -1.66,0.75 -1.66,1.66l0 85.42 -5.26 0c-0.29,0 -0.52,0.24 -0.52,0.54l0 4.84c0,0.29 0.24,0.54 0.52,0.54 30.59,0 61.19,0 91.78,0 0.28,0 0.52,-0.24 0.52,-0.54l0 -4.84c0,-0.29 -0.24,-0.53 -0.52,-0.53l-5.26 0 0 -50.5c0,-0.91 -0.75,-1.66 -1.66,-1.66l-38.97 0 0 -33.25c0,-0.91 -0.74,-1.66 -1.66,-1.66zm-22.65 23.32l-9.47 0c-0.56,0 -1.01,0.47 -1.01,1.04l0 9.36c0,0.57 0.46,1.04 1.01,1.04l9.47 0c0.55,0 1.01,-0.47 1.01,-1.04l0 -9.36c0,-0.57 -0.46,-1.04 -1.01,-1.04zm17.45 -17.42l-9.47 0c-0.56,0 -1.01,0.47 -1.01,1.04l0 9.36c0,0.57 0.46,1.04 1.01,1.04l9.47 0c0.55,0 1.01,-0.47 1.01,-1.04l0 -9.36c0,-0.57 -0.46,-1.04 -1.01,-1.04zm-17.45 0l-9.47 0c-0.56,0 -1.01,0.47 -1.01,1.04l0 9.36c0,0.57 0.46,1.04 1.01,1.04l9.47 0c0.55,0 1.01,-0.47 1.01,-1.04l0 -9.36c0,-0.57 -0.46,-1.04 -1.01,-1.04zm17.45 17.42l-9.47 0c-0.56,0 -1.01,0.47 -1.01,1.04l0 9.36c0,0.57 0.46,1.04 1.01,1.04l9.47 0c0.55,0 1.01,-0.47 1.01,-1.04l0 -9.36c0,-0.57 -0.46,-1.04 -1.01,-1.04zm0 17.42l-9.47 0c-0.56,0 -1.01,0.47 -1.01,1.04l0 9.36c0,0.57 0.46,1.04 1.01,1.04l9.47 0c0.55,0 1.01,-0.47 1.01,-1.04l0 -9.36c0,-0.57 -0.46,-1.04 -1.01,-1.04zm-17.45 0l-9.47 0c-0.56,0 -1.01,0.47 -1.01,1.04l0 9.36c0,0.57 0.46,1.04 1.01,1.04l9.47 0c0.55,0 1.01,-0.47 1.01,-1.04l0 -9.36c0,-0.57 -0.46,-1.04 -1.01,-1.04zm17.45 17.42l-9.47 0c-0.56,0 -1.01,0.47 -1.01,1.04l0 9.36c0,0.57 0.46,1.04 1.01,1.04l9.47 0c0.55,0 1.01,-0.47 1.01,-1.04l0 -9.36c0,-0.57 -0.46,-1.04 -1.01,-1.04zm-17.45 0l-9.47 0c-0.56,0 -1.01,0.47 -1.01,1.04l0 9.36c0,0.57 0.46,1.04 1.01,1.04l9.47 0c0.55,0 1.01,-0.47 1.01,-1.04l0 -9.36c0,-0.57 -0.46,-1.04 -1.01,-1.04zm31.16 -17.42l9.47 0c0.56,0 1.01,0.47 1.01,1.04l0 9.36c0,0.57 -0.46,1.04 -1.01,1.04l-9.47 0c-0.55,0 -1.01,-0.47 -1.01,-1.04l0 -9.36c0,-0.57 0.46,-1.04 1.01,-1.04zm17.45 0l9.47 0c0.56,0 1.01,0.47 1.01,1.04l0 9.36c0,0.57 -0.46,1.04 -1.01,1.04l-9.47 0c-0.55,0 -1.01,-0.47 -1.01,-1.04l0 -9.36c0,-0.57 0.46,-1.04 1.01,-1.04zm-17.45 17.42l9.47 0c0.56,0 1.01,0.47 1.01,1.04l0 9.36c0,0.57 -0.46,1.04 -1.01,1.04l-9.47 0c-0.55,0 -1.01,-0.47 -1.01,-1.04l0 -9.36c0,-0.57 0.46,-1.04 1.01,-1.04zm17.45 0l9.47 0c0.56,0 1.01,0.47 1.01,1.04l0 9.36c0,0.57 -0.46,1.04 -1.01,1.04l-9.47 0c-0.55,0 -1.01,-0.47 -1.01,-1.04l0 -9.36c0,-0.57 0.46,-1.04 1.01,-1.04zm-36.98 17.47l-15.29 0c-0.56,0 -1.01,0.47 -1.01,1.04l0 9.36c0,0.56 0.46,1.04 1.01,1.04l15.29 0c0.55,0 1.01,-0.47 1.01,-1.04l0 -9.36c0,-0.57 -0.46,-1.04 -1.01,-1.04zm25.34 0l15.29 0c0.56,0 1.01,0.47 1.01,1.04l0 9.36c0,0.56 -0.46,1.04 -1.01,1.04l-15.29 0c-0.55,0 -1.01,-0.47 -1.01,-1.04l0 -9.36c0,-0.57 0.46,-1.04 1.01,-1.04z"/>
 </g>
</svg>
