<?xml version="1.0" encoding="UTF-8"?>
<!DOCTYPE svg PUBLIC "-//W3C//DTD SVG 1.1//EN" "http://www.w3.org/Graphics/SVG/1.1/DTD/svg11.dtd">
<!-- Creator: CorelDRAW 2020 (64-Bit) -->
<svg xmlns="http://www.w3.org/2000/svg" xml:space="preserve" width="14.3404mm" height="12.8609mm" version="1.1" style="shape-rendering:geometricPrecision; text-rendering:geometricPrecision; image-rendering:optimizeQuality; fill-rule:evenodd; clip-rule:evenodd"
viewBox="0 0 105.63 94.73"
 xmlns:xlink="http://www.w3.org/1999/xlink"
 xmlns:xodm="http://www.corel.com/coreldraw/odm/2003">
 <defs>
  <style type="text/css">
   <![CDATA[
    .fil0 {fill:#714684}
   ]]>
  </style>
 </defs>
 <g id="Слой_x0020_1">
  <metadata id="CorelCorpID_0Corel-Layer"/>
  <path class="fil0" d="M17.09 63.9l-8.54 -13.04 -8.54 -13.05 11.88 0c2.11,-10.31 7.57,-19.4 15.19,-26.08 8.34,-7.31 19.25,-11.74 31.19,-11.74 13.08,0 24.92,5.3 33.49,13.87 8.57,8.57 13.87,20.41 13.87,33.49 0,13.08 -5.3,24.92 -13.87,33.49 -8.57,8.57 -20.41,13.87 -33.49,13.87 -6.28,0 -12.28,-1.23 -17.79,-3.46 -5.69,-2.31 -10.84,-5.71 -15.2,-9.94l7.19 -7.39c3.39,3.29 7.42,5.94 11.89,7.76 4.28,1.74 8.98,2.7 13.91,2.7 10.22,0 19.48,-4.15 26.18,-10.84 6.7,-6.7 10.84,-15.96 10.84,-26.18 0,-10.22 -4.15,-19.48 -10.84,-26.18 -6.7,-6.7 -15.96,-10.84 -26.18,-10.84 -9.36,0 -17.9,3.46 -24.4,9.16 -5.45,4.77 -9.48,11.12 -11.4,18.32l11.7 0 -8.54 13.05 -8.54 13.04zm34.84 -19.7l-4.52 12.01c-1,2.66 0.36,5.66 3.02,6.66l0 0c2.66,1 5.66,-0.36 6.66,-3.02l3.93 -10.45 18.77 -7.84c2.62,-1.1 3.87,-4.14 2.77,-6.76l0 0c-1.1,-2.62 -4.14,-3.87 -6.76,-2.78l-19.03 7.95c-2.63,1.1 -3.69,1.16 -4.84,4.23z"/>
 </g>
</svg>
