<?xml version="1.0" encoding="UTF-8"?>
<!DOCTYPE svg PUBLIC "-//W3C//DTD SVG 1.1//EN" "http://www.w3.org/Graphics/SVG/1.1/DTD/svg11.dtd">
<!-- Creator: CorelDRAW 2020 (64-Bit) -->
<svg xmlns="http://www.w3.org/2000/svg" xml:space="preserve" width="14.3851mm" height="13.8705mm" version="1.1" style="shape-rendering:geometricPrecision; text-rendering:geometricPrecision; image-rendering:optimizeQuality; fill-rule:evenodd; clip-rule:evenodd"
viewBox="0 0 106.24 102.44"
 xmlns:xlink="http://www.w3.org/1999/xlink"
 xmlns:xodm="http://www.corel.com/coreldraw/odm/2003">
 <defs>
  <style type="text/css">
   <![CDATA[
    .fil0 {fill:#714684}
   ]]>
  </style>
 </defs>
 <g id="Слой_x0020_1">
  <metadata id="CorelCorpID_0Corel-Layer"/>
  <path class="fil0" d="M55.64 43.72l0 14.4 16.52 -1.95 0 -12.45 -16.52 0zm30.39 41.23c4.83,0 8.75,3.92 8.75,8.75 0,4.83 -3.92,8.75 -8.75,8.75 -4.83,0 -8.75,-3.92 -8.75,-8.75 0,-4.83 3.92,-8.75 8.75,-8.75zm-49.81 0c4.83,0 8.75,3.92 8.75,8.75 0,4.83 -3.92,8.75 -8.75,8.75 -4.83,0 -8.75,-3.92 -8.75,-8.75 0,-4.83 3.92,-8.75 8.75,-8.75zm-31.11 -84.94l12.78 -0c1.32,-0 2.48,0.2 3.44,0.76 0.99,0.58 1.76,1.51 2.25,2.97l2.54 8.49 0.88 3.05 72.75 0c2.56,-0.04 4.44,0.38 5.52,1.73 1.07,1.32 1.28,3.46 0.52,6.82 -1.29,6.15 -2.43,12.3 -3.57,18.46 -0.93,5 -1.86,10.01 -2.88,15.07 -0.44,2.07 -1.05,3.56 -2.2,4.64 -1.15,1.08 -2.79,1.7 -5.31,2.03l-54.35 6.53c-0.22,0.75 -0.26,1.37 -0.17,1.85 0.07,0.36 0.23,0.66 0.44,0.88 0.22,0.24 0.53,0.42 0.88,0.54 0.87,0.31 2.03,0.29 3.18,0.06 3.83,-0.76 12.51,-1.55 22.03,-2.1 9.18,-0.53 19.18,-0.84 26.37,-0.7 1.61,0 2.85,0.35 3.7,1.03 0.91,0.73 1.36,1.79 1.37,3.17 0,1.07 -0.31,2.25 -1.39,3.1 -0.78,0.61 -1.96,1.02 -3.7,1.03 -8.19,0.06 -16.58,0.24 -24.66,0.67 -8.05,0.42 -15.77,1.07 -22.62,2.06 -4.88,0.7 -8.42,-0.03 -10.85,-1.55 -1.82,-1.13 -3.02,-2.7 -3.7,-4.44 -0.67,-1.72 -0.84,-3.61 -0.59,-5.41 0.35,-2.51 1.5,-4.86 3.19,-6.36l-16.29 -54.18 -9.44 0.01c-0.23,0 -0.55,0.01 -0.78,-0.02l-0.02 -0c-1.27,-0.17 -2.39,-0.78 -3.19,-1.7 -0.78,-0.89 -1.25,-2.06 -1.25,-3.39 0,-1.37 0.58,-2.66 1.52,-3.6 0.92,-0.92 2.19,-1.51 3.58,-1.51zm72.66 55.46l11.77 -1.43 1.96 -10.32 -13.73 0 0 11.75zm-27.74 -11.75l-14.51 0 4.86 16.27 9.66 -1.18 0 -15.1zm22.13 -18.25l-16.52 0 0 12.64 16.52 0 0 -12.64zm5.61 12.64l14.87 0 2.38 -12.64 -17.26 0 0 12.64zm-27.74 -12.64l-19.99 0 3.74 12.64 16.25 0 0 -12.64z"/>
 </g>
</svg>
