<?xml version="1.0" encoding="UTF-8"?>
<!DOCTYPE svg PUBLIC "-//W3C//DTD SVG 1.1//EN" "http://www.w3.org/Graphics/SVG/1.1/DTD/svg11.dtd">
<!-- Creator: CorelDRAW 2020 (64-Bit) -->
<svg xmlns="http://www.w3.org/2000/svg" xml:space="preserve" width="10.39mm" height="13.8321mm" version="1.1" style="shape-rendering:geometricPrecision; text-rendering:geometricPrecision; image-rendering:optimizeQuality; fill-rule:evenodd; clip-rule:evenodd"
viewBox="0 0 56.62 75.38"
 xmlns:xlink="http://www.w3.org/1999/xlink"
 xmlns:xodm="http://www.corel.com/coreldraw/odm/2003">
 <defs>
  <style type="text/css">
   <![CDATA[
    .fil0 {fill:#714684}
   ]]>
  </style>
 </defs>
 <g id="Слой_x0020_1">
  <metadata id="CorelCorpID_0Corel-Layer"/>
  <path class="fil0" d="M49.92 70.26l0 -9.22c0,-7.81 -4.21,-14.68 -10.48,-18.45 -2.1,-0.82 -3.58,-2.86 -3.58,-5.26 0,-2.44 1.55,-4.52 3.72,-5.3 6.19,-3.79 10.34,-10.62 10.34,-18.37l0 -9.31 4.52 0c1.2,0 2.18,-0.98 2.18,-2.18l0 -2.18 -6.7 0 -43.22 0 -6.7 0 0 2.18c0,1.2 0.98,2.18 2.18,2.18l4.52 0 0 9.15c0,7.89 4.27,14.83 10.61,18.62 2.04,0.85 3.48,2.86 3.48,5.21 0,2.26 -1.33,4.22 -3.26,5.11 -6.46,3.77 -10.83,10.78 -10.83,18.75l0 9.06 -4.15 0c-1.41,0 -2.55,1.15 -2.55,2.56l0 1.02c0,0.85 0.69,1.54 1.54,1.54l53.54 0c0.85,0 1.54,-0.69 1.54,-1.54l0 -1.02c0,-1.41 -1.15,-2.56 -2.55,-2.56l-4.15 0zm-6.28 0l-30.65 0 0 -1.31c0,-2.5 12.27,-16.74 15.33,-16.74 3.06,0 15.33,14.23 15.33,16.74l0 1.31zm-15.33 -27.21l0 0c1.41,0 2.56,1.15 2.56,2.56l0 0.01c0,1.41 -1.15,2.57 -2.56,2.57l-0 0c-1.41,0 -2.56,-1.15 -2.56,-2.57l0 -0.01c0,-1.41 1.15,-2.56 2.56,-2.56zm0 -17.96l0 0c1.41,0 2.56,1.15 2.56,2.57l0 4.24c0,1.41 -1.15,2.56 -2.56,2.56l-0 0c-1.41,0 -2.56,-1.15 -2.56,-2.56l0 -4.24c0,-1.41 1.15,-2.57 2.56,-2.57z"/>
 </g>
</svg>
