<?xml version="1.0" encoding="UTF-8"?>
<!DOCTYPE svg PUBLIC "-//W3C//DTD SVG 1.1//EN" "http://www.w3.org/Graphics/SVG/1.1/DTD/svg11.dtd">
<!-- Creator: CorelDRAW 2020 (64-Bit) -->
<svg xmlns="http://www.w3.org/2000/svg" xml:space="preserve" width="75.9795mm" height="78.5896mm" version="1.1" style="shape-rendering:geometricPrecision; text-rendering:geometricPrecision; image-rendering:optimizeQuality; fill-rule:evenodd; clip-rule:evenodd"
viewBox="0 0 2443.23 2527.16"
 xmlns:xlink="http://www.w3.org/1999/xlink"
 xmlns:xodm="http://www.corel.com/coreldraw/odm/2003">
 <defs>
  <style type="text/css">
   <![CDATA[
    .fil0 {fill:#5B5B5B}
   ]]>
  </style>
 </defs>
 <g id="Слой_x0020_1">
  <metadata id="CorelCorpID_0Corel-Layer"/>
  <path class="fil0" d="M346.1 698.55l1750.94 0 0 1547c0,154.93 -126.68,281.61 -281.61,281.61l-1187.72 0c-154.93,0 -281.61,-126.68 -281.61,-281.61l0 -1547zm-246.77 -318.26l537.94 0 0 -192.49c0,-103.37 84.42,-187.79 187.71,-187.79l793.27 0c103.29,0 187.71,84.43 187.71,187.79l0 192.49 537.94 0c54.61,0 99.33,44.72 99.33,99.33l0 0.08c0,54.61 -44.72,99.33 -99.33,99.33l-2244.56 0c-54.61,0 -99.33,-44.72 -99.33,-99.33l0 -0.08c0,-54.61 44.73,-99.33 99.33,-99.33zm721.12 0l802.33 0 0 -116.63c0,-51.56 -42.17,-93.81 -93.82,-93.81l-614.62 0c-51.73,0 -93.9,42.25 -93.9,93.81l0 116.63z"/>
 </g>
</svg>
