<?xml version="1.0" encoding="UTF-8"?>
<!DOCTYPE svg PUBLIC "-//W3C//DTD SVG 1.1//EN" "http://www.w3.org/Graphics/SVG/1.1/DTD/svg11.dtd">
<!-- Creator: CorelDRAW 2020 (64-Bit) -->
<svg xmlns="http://www.w3.org/2000/svg" xml:space="preserve" width="30mm" height="15.3333mm" version="1.1" style="shape-rendering:geometricPrecision; text-rendering:geometricPrecision; image-rendering:optimizeQuality; fill-rule:evenodd; clip-rule:evenodd"
viewBox="0 0 9262.12 4733.96"
 xmlns:xlink="http://www.w3.org/1999/xlink"
 xmlns:xodm="http://www.corel.com/coreldraw/odm/2003">
 <defs>
  <style type="text/css">
   <![CDATA[
    .fil0 {fill:#714684}
   ]]>
  </style>
 </defs>
 <g id="Слой_x0020_1">
  <metadata id="CorelCorpID_0Corel-Layer"/>
  <path class="fil0" d="M1667.3 0.03l4197.5 0c154.46,0 280.77,126.3 280.77,280.77l0 3579.69c0,154.46 -126.3,280.77 -280.77,280.77l-2260.79 0c-20.69,-416.33 -362.89,-748.9 -780.73,-748.9 -210.4,0 -410.16,82.37 -561.04,231.37 -141.15,141.19 -223.9,322.29 -233.81,517.54l-361.13 0c-154.4,0 -280.77,-126.3 -280.77,-280.77l0 -758.07 -1166.69 0c-120.9,0 -219.85,-88.61 -219.85,-196.73l3107.22 0c0,-108.18 -98.95,-196.67 -219.85,-196.67l-1500.83 0 0 -497.56 -718.03 0c-120.9,0 -219.85,-88.58 -219.85,-196.7l3107.22 0c2.19,-110.16 -96.82,-198.64 -217.72,-198.64l-1951.62 -10.1 0 -503.18 -271.66 0c-120.9,0 -219.85,-88.58 -219.85,-196.73l3107.22 0c0,-108.18 -98.95,-196.7 -219.98,-196.7l-2395.74 0 0 -628.62c0,-154.46 126.3,-280.77 280.77,-280.77zm6390.58 787.34c-50.69,-46.28 -118.4,-70.79 -188.85,-70.79l-1183.27 0c-155.08,0 -281.91,122.54 -281.91,272.24l0 2713.43c21.21,-27.29 44.37,-53.6 69.31,-78.54 150.76,-149 350.57,-231.37 560.91,-231.37 417.94,0 760.05,332.57 780.73,748.9l1165.45 0c155.05,0 281.85,-122.54 281.85,-272.24l0 -1965.61c0,-76.26 -33.78,-149.71 -92.99,-201.45l-1111.24 -914.57 0 0zm-112.32 863.11c-21.4,-16.49 -50.02,-25.29 -79.81,-25.29l-566.29 0c-65.54,0 -119.11,43.72 -119.11,97.1l0 1027.14c0,53.38 53.57,97.1 119.11,97.1l969.44 0c65.48,0 119.08,-43.72 119.08,-97.1l0 -658.75c0,-27.23 -14.23,-53.44 -39.3,-71.87l-403.12 -368.32 0 0zm-913.58 1977.86c-147.45,0 -287.43,57.7 -393.18,162.12 -105.62,105.71 -164.5,243.22 -164.5,390.71 0,147.3 57.7,284.9 164.5,390.61 106.95,104.32 245.72,162.18 393.18,162.18 302.19,0 547.82,-248.26 547.82,-552.79 0,-304.75 -245.63,-552.82 -547.82,-552.82zm-4210.81 0c-147.45,0 -287.43,57.7 -393.18,162.12 -105.62,105.71 -164.62,243.22 -164.62,390.71 0,147.3 57.83,284.9 164.62,390.52 106.95,104.41 245.72,162.27 393.18,162.27 302.1,0 547.82,-248.26 547.82,-552.79 0,-304.75 -245.72,-552.82 -547.82,-552.82z"/>
 </g>
</svg>
