<?xml version="1.0" encoding="UTF-8"?>
<!DOCTYPE svg PUBLIC "-//W3C//DTD SVG 1.1//EN" "http://www.w3.org/Graphics/SVG/1.1/DTD/svg11.dtd">
<!-- Creator: CorelDRAW 2020 (64-Bit) -->
<svg xmlns="http://www.w3.org/2000/svg" xml:space="preserve" width="30mm" height="28.7967mm" version="1.1" style="shape-rendering:geometricPrecision; text-rendering:geometricPrecision; image-rendering:optimizeQuality; fill-rule:evenodd; clip-rule:evenodd"
viewBox="0 0 892.94 857.13"
 xmlns:xlink="http://www.w3.org/1999/xlink"
 xmlns:xodm="http://www.corel.com/coreldraw/odm/2003">
 <defs>
  <style type="text/css">
   <![CDATA[
    .fil0 {fill:#714684}
   ]]>
  </style>
 </defs>
 <g id="Слой_x0020_1">
  <metadata id="CorelCorpID_0Corel-Layer"/>
  <path class="fil0" d="M149.39 165.8l320 -159.73c28.52,-14.24 63.51,-2.55 77.75,25.98l18.57 37.2 -356.87 96.56 -59.44 0zm-91.42 30.73l725.55 0c31.88,0 57.96,26.09 57.96,57.97l0 133.17 -310.85 0c-39.02,0 -70.94,31.92 -70.94,70.94l0 136.44c0,39.02 31.93,70.94 70.94,70.94l310.85 0 0 133.17c0,31.88 -26.09,57.97 -57.96,57.97l-725.55 0c-31.88,0 -57.96,-26.09 -57.96,-57.97l0 -544.66c0,-31.88 26.08,-57.97 57.96,-57.97zm478.7 221.62l310.78 0c25.02,0 45.5,20.47 45.5,45.5l0 126.36c0,25.03 -20.48,45.5 -45.5,45.5l-310.78 0c-25.03,0 -45.5,-20.47 -45.5,-45.5l0 -126.36c0,-25.03 20.47,-45.5 45.5,-45.5zm63.96 78.46l27.45 0c9.07,0 16.49,7.42 16.49,16.49l0 27.45c0,9.07 -7.42,16.49 -16.49,16.49l-27.45 0c-9.07,0 -16.49,-7.42 -16.49,-16.49l0 -27.45c0,-9.07 7.42,-16.49 16.49,-16.49zm-300.45 -330.81l353.99 -95.78c30.77,-8.33 62.76,10.04 71.09,40.81l14.87 54.96 -439.96 0z"/>
 </g>
</svg>
