<?xml version="1.0" encoding="UTF-8"?>
<!DOCTYPE svg PUBLIC "-//W3C//DTD SVG 1.1//EN" "http://www.w3.org/Graphics/SVG/1.1/DTD/svg11.dtd">
<!-- Creator: CorelDRAW 2020 (64-Bit) -->
<svg xmlns="http://www.w3.org/2000/svg" xml:space="preserve" width="30.0001mm" height="22.4659mm" version="1.1" style="shape-rendering:geometricPrecision; text-rendering:geometricPrecision; image-rendering:optimizeQuality; fill-rule:evenodd; clip-rule:evenodd"
viewBox="0 0 891.66 667.73"
 xmlns:xlink="http://www.w3.org/1999/xlink"
 xmlns:xodm="http://www.corel.com/coreldraw/odm/2003">
 <defs>
  <style type="text/css">
   <![CDATA[
    .fil0 {fill:#714684}
   ]]>
  </style>
 </defs>
 <g id="Слой_x0020_1">
  <metadata id="CorelCorpID_0Corel-Layer"/>
  <path class="fil0" d="M165.67 0l671.38 0c30.04,0 54.61,24.58 54.61,54.61l0 55.04 -780.6 0 0 -55.04c0,-30.03 24.57,-54.61 54.61,-54.61zm29.14 278.13c107.58,0 194.8,87.21 194.8,194.8 0,107.59 -87.22,194.8 -194.8,194.8 -107.59,0 -194.8,-87.21 -194.8,-194.8 0,-107.59 87.22,-194.8 194.8,-194.8zm-98.94 166.66l59.23 58.81 138.65 -137.91 38.3 38.52 -176.91 175.97 -97.57 -96.87 38.3 -38.52zm550.99 -114.16c21.79,0 41.59,8.48 56.3,22.32 14.71,-13.83 34.52,-22.32 56.3,-22.32 45.4,0 82.2,36.8 82.2,82.2 0,45.4 -36.8,82.2 -82.2,82.2 -21.79,0 -41.59,-8.48 -56.3,-22.32 -14.71,13.84 -34.51,22.32 -56.3,22.32 -45.4,0 -82.2,-36.8 -82.2,-82.2 0,-45.4 36.8,-82.2 82.2,-82.2zm244.81 -143.56l0 314.02c0,30.04 -24.57,54.61 -54.61,54.61l-418.42 0c9.54,-25.78 14.75,-53.66 14.75,-82.76 0,-131.76 -106.81,-238.58 -238.57,-238.58 -29.47,0 -57.69,5.36 -83.75,15.13l0 -62.42 780.6 0z"/>
 </g>
</svg>
