<?xml version="1.0" encoding="UTF-8"?>
<!DOCTYPE svg PUBLIC "-//W3C//DTD SVG 1.1//EN" "http://www.w3.org/Graphics/SVG/1.1/DTD/svg11.dtd">
<!-- Creator: CorelDRAW 2020 (64-Bit) -->
<svg xmlns="http://www.w3.org/2000/svg" xml:space="preserve" width="30mm" height="43.6508mm" version="1.1" style="shape-rendering:geometricPrecision; text-rendering:geometricPrecision; image-rendering:optimizeQuality; fill-rule:evenodd; clip-rule:evenodd"
viewBox="0 0 891.66 1297.39"
 xmlns:xlink="http://www.w3.org/1999/xlink"
 xmlns:xodm="http://www.corel.com/coreldraw/odm/2003">
 <defs>
  <style type="text/css">
   <![CDATA[
    .fil0 {fill:#714684}
   ]]>
  </style>
 </defs>
 <g id="Слой_x0020_1">
  <metadata id="CorelCorpID_0Corel-Layer"/>
  <path class="fil0" d="M99.11 0l693.43 0c54.51,0 99.11,44.61 99.11,99.11l0 1108.67 -107.63 89.61 -115.15 -90.16 -110.5 90.16 -112.55 -90.16 -112.55 90.16 -111.05 -90.16 -114.06 90.16 -108.17 -90.69 0 -1107.58c0,-54.51 44.6,-99.11 99.11,-99.11zm61.4 946.14l0 100.79 51.41 0 0 -105.92 155.76 0 0 -33.35 -155.76 0 0 -53.26 86.13 0c39.88,0 72.33,-10.51 97.32,-31.51 12.36,-10.37 21.63,-22.66 27.8,-36.81 6.19,-14.22 9.29,-30.44 9.29,-48.65 0,-18.7 -2.91,-35.37 -8.72,-49.98 -5.78,-14.52 -14.47,-27.14 -26.06,-37.84 -11.61,-10.72 -25.46,-18.78 -41.53,-24.15 -16.21,-5.42 -34.75,-8.13 -55.62,-8.13l-140.03 0 0 196.88 -43.61 0 0 39.58 43.61 0 0 53.87 -43.61 0 0 33.35 43.61 0 0 5.13zm129.44 -131.93l-78.03 0 0 -157.3 79.28 0c13.58,0 25.74,1.72 36.46,5.17 10.88,3.49 20.23,8.76 28.03,15.78 7.83,7.05 13.72,15.4 17.66,25 3.9,9.55 5.86,20.24 5.86,32.08 0,11.85 -1.99,22.62 -5.94,32.24 -3.97,9.67 -9.93,18.16 -17.87,25.42 -15.74,14.41 -37.56,21.62 -65.44,21.62zm-168.67 -426.9l649.09 0c5.23,0 9.51,4.27 9.51,9.51l0 32.6c0,5.24 -4.28,9.51 -9.51,9.51l-649.09 0c-5.24,0 -9.52,-4.27 -9.52,-9.51l0 -32.6c0,-5.24 4.28,-9.51 9.52,-9.51zm0 -111.58l649.09 0c5.23,0 9.51,4.27 9.51,9.51l0 32.6c0,5.23 -4.28,9.51 -9.51,9.51l-649.09 0c-5.24,0 -9.52,-4.28 -9.52,-9.51l0 -32.6c0,-5.24 4.28,-9.51 9.52,-9.51zm0 -111.59l649.09 0c5.23,0 9.51,4.28 9.51,9.52l0 32.6c0,5.24 -4.28,9.51 -9.51,9.51l-649.09 0c-5.24,0 -9.52,-4.27 -9.52,-9.51l0 -32.6c0,-5.24 4.28,-9.52 9.52,-9.52zm392.66 784.32l257.47 0c5.24,0 9.51,4.28 9.51,9.52l0 32.6c0,5.24 -4.27,9.51 -9.51,9.51l-257.47 0c-5.24,0 -9.52,-4.27 -9.52,-9.51l0 -32.6c0,-5.24 4.28,-9.52 9.52,-9.52zm0 -111.58l257.47 0c5.24,0 9.51,4.28 9.51,9.52l0 32.6c0,5.24 -4.27,9.52 -9.51,9.52l-257.47 0c-5.24,0 -9.52,-4.28 -9.52,-9.52l0 -32.6c0,-5.24 4.28,-9.52 9.52,-9.52zm0 -111.59l257.47 0c5.24,0 9.51,4.28 9.51,9.52l0 32.6c0,5.24 -4.27,9.52 -9.51,9.52l-257.47 0c-5.24,0 -9.52,-4.28 -9.52,-9.52l0 -32.6c0,-5.24 4.28,-9.52 9.52,-9.52z"/>
 </g>
</svg>
