<?xml version="1.0" encoding="UTF-8"?>
<!DOCTYPE svg PUBLIC "-//W3C//DTD SVG 1.1//EN" "http://www.w3.org/Graphics/SVG/1.1/DTD/svg11.dtd">
<!-- Creator: CorelDRAW 2020 (64-Bit) -->
<svg xmlns="http://www.w3.org/2000/svg" xml:space="preserve" width="85.7421mm" height="10.6617mm" version="1.1" style="shape-rendering:geometricPrecision; text-rendering:geometricPrecision; image-rendering:optimizeQuality; fill-rule:evenodd; clip-rule:evenodd"
viewBox="0 0 856.553 106.509"
 xmlns:xlink="http://www.w3.org/1999/xlink"
 xmlns:xodm="http://www.corel.com/coreldraw/odm/2003">
 <defs>
  <style type="text/css">
   <![CDATA[
    .fil0 {fill:#724684}
    .fil1 {fill:#FDCB03}
   ]]>
  </style>
 </defs>
 <g id="Слой_x0020_2">
  <metadata id="CorelCorpID_0Corel-Layer"/>
  <g id="_2072876937328">
   <g>
    <polygon class="fil0" points="43.645,71.463 70.168,24.899 115.525,104.349 116.755,106.509 114.234,106.509 89.318,106.509 70.643,73.801 56.795,98.428 -0,98.126 15.72,71.178 "/>
    <polygon class="fil1" points="2.611,96.635 16.58,72.69 44.514,72.974 70.169,27.936 114.212,105.005 90.192,105.005 70.634,70.75 55.918,96.92 "/>
    <polygon class="fil0" points="73.59,21.38 86.134,0 117.203,54.733 143.999,6.272 171.081,53.877 199.3,53.591 188.691,74.012 158.537,74.388 144.284,49.032 116.635,97.205 "/>
   </g>
   <g>
    <polygon class="fil0" points="275.221,63.986 296.027,42.71 321.781,42.71 321.781,87.425 327.758,87.425 321.237,105.519 295.836,105.519 295.836,67.402 275.124,88.877 254.552,67.295 254.552,105.519 228.506,105.519 228.506,61.94 221.611,61.94 229.144,42.71 255.356,42.71 "/>
    <polygon class="fil0" points="378.475,65.836 396.104,42.71 421.872,42.71 421.872,86.29 428.767,86.29 421.235,105.519 395.826,105.519 395.826,83.219 378.743,105.519 352.428,105.519 352.428,61.94 345.533,61.94 353.065,42.71 378.475,42.71 "/>
    <path class="fil0" d="M454.319 86.29l29.629 -43.58 2.439 0c9.112,0 18.225,0 27.334,0l4.608 0 0 43.58 12.937 0 -7.265 19.23 -76.541 0 0 -19.23 6.859 0zm42.159 0l0 -22.915 -0.385 0 -15.579 22.915 15.964 0z"/>
    <polygon class="fil0" points="584.596,66.735 602.719,42.709 634.064,42.709 607.931,75.539 631.939,105.52 600.555,105.52 584.596,84.361 584.596,105.52 558.548,105.52 558.548,61.94 551.653,61.94 559.187,42.709 584.596,42.709 "/>
    <path class="fil0" d="M700.86 99.195l-18.977 0 -2.174 6.324 -29.005 0 19.417 -43.579 -5.896 0 9.395 -19.231 33.211 0 24.771 62.809 -28.787 0 -1.957 -6.324zm-5.39 -17.418l-3.603 -11.644 -4.001 11.644 7.604 0z"/>
    <polygon class="fil0" points="804.015,63.986 824.822,42.71 850.576,42.71 850.576,87.425 856.553,87.425 850.03,105.519 824.631,105.519 824.631,67.402 803.919,88.877 783.346,67.295 783.346,105.519 757.301,105.519 757.301,61.94 750.406,61.94 757.938,42.71 784.15,42.71 "/>
    <path class="fil1" d="M228.364 57.334l3.924 -10.017 21.068 0 21.789 23.337 22.823 -23.337 19.207 0 0 44.715 4.029 0 -3.202 8.881 -17.557 0 0 -44.921 -25.299 26.228 -25.198 -26.434 0 45.127 -16.832 0 0 -43.579 -4.75 0zm528.795 0l3.922 -10.017 21.07 0 21.789 23.337 22.821 -23.337 19.209 0 0 44.715 4.026 0 -3.199 8.881 -17.557 0 0 -44.921 -25.299 26.228 -25.198 -26.434 0 45.127 -16.833 0 0 -43.579 -4.749 0zm-32.324 43.579l-18.62 0 -1.957 -6.324 -25.664 0 -2.171 6.324 -18.622 0 19.417 -43.579 -5.613 0 4.893 -10.017 5.184 0 3.397 0 15.226 0 3.394 0 21.138 53.596zm-23.118 -14.527l-9.621 -31.098 -10.681 31.098 20.302 0zm-143.31 -29.052l3.922 -10.017 17.66 0 0 8.468 0 45.127 -16.835 0 0 -43.579 -4.747 0zm66.102 -10.017l-19.494 0 -21.296 28.232 19.134 25.363 19.495 0 -20.311 -25.363 22.473 -28.232zm-172.443 53.596l68.749 0 3.785 -10.017 -10.878 0 0 -43.579c-9.113,0 -18.225,0 -27.337,0l-29.629 43.579 -4.69 0 0 10.017zm49.017 -10.017l-29.274 0 21.843 -32.126 7.431 0 0 32.126zm-148.797 -33.562l3.924 -10.017 17.658 0 0 32.163 24.516 -32.163 18.881 0 0 43.579 4.75 0 -3.925 10.017 -17.657 0 0 -31.284 -23.965 31.284 -19.433 0 0 -43.579 -4.749 0z"/>
   </g>
  </g>
 </g>
</svg>
