<?xml version="1.0" encoding="UTF-8"?>
<!DOCTYPE svg PUBLIC "-//W3C//DTD SVG 1.1//EN" "http://www.w3.org/Graphics/SVG/1.1/DTD/svg11.dtd">
<!-- Creator: CorelDRAW 2020 (64-Bit) -->
<svg xmlns="http://www.w3.org/2000/svg" xml:space="preserve" width="4.6187mm" height="7.2663mm" version="1.1" style="shape-rendering:geometricPrecision; text-rendering:geometricPrecision; image-rendering:optimizeQuality; fill-rule:evenodd; clip-rule:evenodd"
viewBox="0 0 44.25 69.62"
 xmlns:xlink="http://www.w3.org/1999/xlink"
 xmlns:xodm="http://www.corel.com/coreldraw/odm/2003">
 <defs>
  <style type="text/css">
   <![CDATA[
    .fil0 {fill:#714684}
   ]]>
  </style>
 </defs>
 <g id="Слой_x0020_1">
  <metadata id="CorelCorpID_0Corel-Layer"/>
  <path class="fil0" d="M22.12 69.62c0.52,-0.01 1.05,-0.34 1.48,-0.92 0.69,-0.93 1.45,-2 2.08,-2.95 4.37,-6.66 10.03,-15.79 13.19,-22.97 2.18,-4.87 3.7,-9.45 4.83,-14.75 1.14,-6.56 0.64,-11.95 -2.78,-17.55 -2.05,-2.9 -3.43,-4.71 -6.59,-6.8 -3.7,-2.44 -7.94,-3.68 -12.21,-3.68 -4.26,-0 -8.51,1.23 -12.2,3.68 -3.16,2.09 -4.54,3.9 -6.59,6.8 -3.43,5.6 -3.92,10.99 -2.78,17.55 1.13,5.3 2.65,9.88 4.83,14.75 3.16,7.19 8.82,16.32 13.19,22.97 0.63,0.96 1.39,2.02 2.08,2.95 0.43,0.58 0.95,0.91 1.48,0.92zm0.01 -56.89c6.07,0 10.99,4.92 10.99,10.99 0,6.07 -4.92,10.99 -10.99,10.99 -6.07,0 -10.99,-4.92 -10.99,-10.99 0,-6.07 4.92,-10.99 10.99,-10.99z"/>
 </g>
</svg>
