<?xml version="1.0" encoding="UTF-8"?>
<!DOCTYPE svg PUBLIC "-//W3C//DTD SVG 1.1//EN" "http://www.w3.org/Graphics/SVG/1.1/DTD/svg11.dtd">
<!-- Creator: CorelDRAW 2020 (64-Bit) -->
<svg xmlns="http://www.w3.org/2000/svg" xml:space="preserve" width="135.565mm" height="21.67mm" version="1.1" style="shape-rendering:geometricPrecision; text-rendering:geometricPrecision; image-rendering:optimizeQuality; fill-rule:evenodd; clip-rule:evenodd"
viewBox="0 0 13585.64 2171.66"
 xmlns:xlink="http://www.w3.org/1999/xlink"
 xmlns:xodm="http://www.corel.com/coreldraw/odm/2003">
 <defs>
  <style type="text/css">
   <![CDATA[
    .fil0 {fill:#724684}
    .fil1 {fill:#FDCB03}
    .fil2 {fill:#714684;fill-rule:nonzero}
   ]]>
  </style>
 </defs>
 <g id="Слой_x0020_1">
  <metadata id="CorelCorpID_0Corel-Layer"/>
  <g id="_1792492561424">
   <g>
    <polygon class="fil0" points="835.8,1368.49 1343.71,476.81 2212.29,1998.29 2235.85,2039.64 2187.59,2039.64 1710.45,2039.64 1352.83,1413.29 1087.62,1884.9 -0,1879.09 301.05,1363.05 "/>
    <polygon class="fil1" points="50.01,1850.56 317.51,1392.02 852.44,1397.46 1343.73,534.98 2187.16,2010.83 1727.17,2010.83 1352.64,1354.86 1070.83,1856 "/>
    <polygon class="fil0" points="1409.26,409.43 1649.47,0 2244.44,1048.13 2757.58,120.11 3276.19,1031.75 3816.59,1026.27 3613.43,1417.33 3035.99,1424.51 2763.03,938.96 2233.55,1861.49 "/>
   </g>
   <g>
    <polygon class="fil0" points="4869.11,552.74 5181.07,233.71 5567.24,233.71 5567.24,904.18 5656.86,904.18 5559.09,1175.48 5178.22,1175.48 5178.22,603.95 4867.66,925.95 4559.2,602.34 4559.2,1175.48 4168.67,1175.48 4168.67,522.05 4065.3,522.05 4178.23,233.71 4571.25,233.71 "/>
    <polygon class="fil0" points="6417.31,580.47 6681.64,233.71 7068.02,233.71 7068.02,887.14 7171.4,887.14 7058.47,1175.48 6677.46,1175.48 6677.46,841.09 6421.32,1175.48 6026.76,1175.48 6026.76,522.05 5923.38,522.05 6036.31,233.71 6417.31,233.71 "/>
    <path class="fil0" d="M7554.51 887.15l444.26 -653.44 36.56 0c136.63,0 273.27,0 409.86,0l69.1 0 0 653.44 193.97 0 -108.92 288.33 -1147.66 0 0 -288.33 102.84 0zm632.15 0l0 -343.59 -5.77 0 -233.6 343.59 239.37 0z"/>
    <polygon class="fil0" points="9507.89,593.95 9779.64,233.7 10249.63,233.7 9857.79,725.96 10217.75,1175.49 9747.19,1175.49 9507.89,858.24 9507.89,1175.49 9117.33,1175.49 9117.33,522.06 9013.95,522.06 9126.91,233.7 9507.89,233.7 "/>
    <path class="fil0" d="M11251.17 1080.67l-284.55 0 -32.58 94.81 -434.9 0 291.15 -653.43 -88.41 0 140.87 -288.34 497.97 0 371.43 941.77 -431.65 0 -29.33 -94.81zm-80.8 -261.18l-54.04 -174.59 -60 174.59 114.03 0z"/>
    <polygon class="fil0" points="12797.89,552.74 13109.85,233.71 13496.02,233.71 13496.02,904.18 13585.64,904.18 13487.84,1175.48 13107.01,1175.48 13107.01,603.95 12796.44,925.95 12487.98,602.34 12487.98,1175.48 12097.45,1175.48 12097.45,522.05 11994.07,522.05 12107,233.71 12500.03,233.71 "/>
    <path class="fil1" d="M4166.53 452.98l58.84 -150.19 315.88 0 326.71 349.93 342.21 -349.93 287.98 0 0 670.46 60.41 0 -48 133.16 -263.25 0 0 -673.55 -379.34 393.27 -377.82 -396.36 0 676.64 -252.39 0 0 -653.42 -71.21 0zm7928.78 0l58.81 -150.19 315.91 0 326.71 349.93 342.17 -349.93 288.02 0 0 670.46 60.37 0 -47.96 133.16 -263.25 0 0 -673.55 -379.34 393.27 -377.82 -396.36 0 676.64 -252.39 0 0 -653.42 -71.21 0zm-484.67 653.42l-279.2 0 -29.34 -94.8 -384.81 0 -32.55 94.8 -279.23 0 291.15 -653.42 -84.17 0 73.37 -150.19 77.73 0 50.92 0 228.31 0 50.88 0 316.94 803.61zm-346.63 -217.82l-144.26 -466.29 -160.16 466.29 304.42 0zm-2148.8 -435.6l58.81 -150.19 264.81 0 0 126.97 0 676.64 -252.42 0 0 -653.42 -71.19 0zm991.15 -150.19l-292.31 0 -319.31 423.33 286.9 380.29 292.32 0 -304.56 -380.29 336.97 -423.33zm-2585.62 803.61l1030.84 0 56.75 -150.19 -163.11 0 0 -653.42c-136.63,0 -273.27,0 -409.9,0l-444.26 653.42 -70.32 0 0 150.19zm734.97 -150.19l-438.94 0 327.51 -481.7 111.43 0 0 481.7zm-2231.07 -503.23l58.85 -150.19 264.75 0 0 482.26 367.61 -482.26 283.11 0 0 653.42 71.21 0 -58.85 150.19 -264.75 0 0 -469.08 -359.34 469.08 -291.37 0 0 -653.42 -71.21 0z"/>
   </g>
   <path class="fil2" d="M4159.06 2003.41l0 -425.67 175.82 0c43.75,0 78.38,9.39 103.9,28.18 25.51,18.79 38.27,45.85 38.27,81.18 0,20.74 -5.33,39.39 -15.98,55.94 -10.65,16.55 -25.51,29.02 -44.59,37.44l0 0.84c25.8,6.16 45.71,18.5 59.73,37.01 14.02,18.51 21.04,39.82 21.04,63.94 0,38.69 -14.16,68.56 -42.48,89.59 -28.33,21.04 -66.32,31.55 -113.99,31.55l-181.71 0zm81.6 -245.65l79.91 0c24.12,0 42.35,-5.75 54.69,-17.25 12.34,-11.49 18.51,-27.34 18.51,-47.53 0,-39.25 -25.24,-58.89 -75.72,-58.89l-77.39 0 0 123.67zm0 188.44l87.49 0c28.6,0 50.2,-5.89 64.78,-17.67 14.58,-11.78 21.87,-28.04 21.87,-48.79 0,-21.32 -7.57,-37.85 -22.71,-49.64 -15.14,-11.78 -36.74,-17.67 -64.78,-17.67l-86.65 0 0 133.77zm320.51 -58.89c0,-31.41 8.7,-57.77 26.08,-79.08 17.39,-21.32 40.53,-36.6 69.41,-45.85 28.88,-9.26 55.66,-15.56 80.34,-18.93 24.67,-3.37 50.75,-5.05 78.24,-5.05l21.87 0 0 -8.41c0,-62.25 -31.13,-93.38 -93.38,-93.38 -40.94,0 -80.75,13.74 -119.46,41.22l-32.81 -59.73c17.39,-14.58 40.95,-26.64 70.67,-36.17 29.72,-9.54 59.17,-14.31 88.33,-14.31 53.84,0 95.34,14.31 124.51,42.91 29.16,28.6 43.74,69.82 43.74,123.67l0 269.2 -76.55 0 0 -42.9 2.53 -33.65 -1.68 0c-12.9,25.23 -31.83,45.99 -56.79,62.25 -24.95,16.26 -52.57,24.39 -82.86,24.39 -38.7,0 -72.06,-11.49 -100.11,-34.48 -28.04,-23 -42.06,-53.56 -42.06,-91.7zm81.6 -6.73c0,18.51 7.01,34.49 21.03,47.95 14.03,13.46 33.65,20.19 58.9,20.19 33.64,0 61.13,-14.03 82.44,-42.07 21.32,-28.04 31.97,-59.17 31.97,-93.38l0 -15.98 -21.03 0c-115.54,0 -173.3,27.77 -173.3,83.29zm396.23 122.82l0 -425.67 78.24 0 0 355.01 157.31 0 0 -355.01 79.08 0 0 355.01 157.32 0 0 -355.01 78.24 0 0 425.67 -550.18 0zm886.68 0l0 -425.67 81.6 0 0 173.3 215.35 0 0 -173.3 81.6 0 0 425.67 -81.6 0 0 -182.55 -215.35 0 0 182.55 -81.6 0zm469.42 -116.09c0,-31.41 8.7,-57.77 26.08,-79.08 17.39,-21.32 40.53,-36.6 69.41,-45.85 28.88,-9.26 55.66,-15.56 80.34,-18.93 24.67,-3.37 50.75,-5.05 78.24,-5.05l21.87 0 0 -8.41c0,-62.25 -31.13,-93.38 -93.38,-93.38 -40.94,0 -80.75,13.74 -119.46,41.22l-32.81 -59.73c17.39,-14.58 40.95,-26.64 70.67,-36.17 29.72,-9.54 59.17,-14.31 88.33,-14.31 53.84,0 95.34,14.31 124.51,42.91 29.16,28.6 43.74,69.82 43.74,123.67l0 269.2 -76.55 0 0 -42.9 2.53 -33.65 -1.68 0c-12.9,25.23 -31.83,45.99 -56.79,62.25 -24.95,16.26 -52.57,24.39 -82.86,24.39 -38.7,0 -72.06,-11.49 -100.11,-34.48 -28.04,-23 -42.06,-53.56 -42.06,-91.7zm81.6 -6.73c0,18.51 7.01,34.49 21.03,47.95 14.03,13.46 33.65,20.19 58.9,20.19 33.64,0 61.13,-14.03 82.44,-42.07 21.32,-28.04 31.97,-59.17 31.97,-93.38l0 -15.98 -21.03 0c-115.54,0 -173.3,27.77 -173.3,83.29zm479.51 55.52l188.44 0 0 -291.92 -127.87 0 0 22.72c0,116.65 -20.18,206.39 -60.57,269.2zm-136.28 0l52.16 0c44.31,-60.57 66.46,-153.95 66.46,-280.13l0 -78.24 287.71 0 0 358.37 60.57 0 0 168.25 -74.87 0 0 -100.95 -315.48 0 0 100.95 -76.55 0 0 -168.25zm519.9 -145.53c0,-66.74 20.18,-120.58 60.57,-161.53 40.38,-40.94 91.42,-61.41 153.11,-61.41 57.76,0 102.91,18.93 135.44,56.79 32.53,37.85 48.79,85.38 48.79,142.59 0,7.3 -1.12,18.79 -3.37,34.49l-309.58 0c2.24,44.31 17.25,78.94 45.01,103.89 27.76,24.96 61.55,37.44 101.38,37.44 46.55,0 88.33,-16.55 125.34,-49.64l34.49 59.73c-20.19,18.51 -45.29,33.23 -75.29,44.16 -30,10.94 -59.87,16.41 -89.59,16.41 -66.18,0 -120.44,-21.17 -162.78,-63.52 -42.35,-42.34 -63.52,-95.47 -63.52,-159.41zm87.49 -47.95l227.98 0c-1.12,-35.34 -11.35,-62.81 -30.71,-82.45 -19.35,-19.62 -43.6,-29.44 -72.77,-29.44 -31.97,0 -59.31,9.96 -82.03,29.86 -22.71,19.91 -36.87,47.25 -42.48,82.03zm356.69 260.79l137.12 -218.73 0 -1.68 -125.35 -205.26 86.66 0 104.31 174.13 60.57 0 0 -174.13 77.4 0 0 174.13 60.57 0 105.16 -174.13 85.8 0 -124.51 205.26 0 1.68 137.13 218.73 -91.7 0 -111.05 -181.71 -61.41 0 0 181.71 -77.4 0 0 -181.71 -60.57 0 -111.89 181.71 -90.85 0zm681.42 0l0 -425.67 81.6 0 0 173.3 215.35 0 0 -173.3 81.6 0 0 425.67 -81.6 0 0 -182.55 -215.35 0 0 182.55 -81.6 0zm890.05 0l0 -425.67 81.59 0 0 425.67 -81.59 0zm-385.3 0l0 -425.67 81.6 0 0 153.95 83.28 0c47.11,0 84.69,11.35 112.73,34.07 28.04,22.71 42.06,57.06 42.06,103.05 0,41.5 -13.04,74.31 -39.11,98.42 -26.09,24.12 -64.92,36.18 -116.52,36.18l-164.04 0zm81.6 -58.89l71.5 0c28.04,0 49.08,-6.87 63.1,-20.61 14.02,-13.74 21.03,-32.39 21.03,-55.94 0,-23.56 -7.01,-42.34 -21.03,-56.36 -14.02,-14.03 -35.34,-21.04 -63.94,-21.04l-70.66 0 0 153.95zm699.08 -415.58c-34.21,0 -63.52,-9.67 -87.92,-29.02 -24.39,-19.35 -36.59,-45.57 -36.59,-78.66l0 -12.62 65.61 0 0 11.78c0,17.39 5.89,30.99 17.67,40.8 11.79,9.82 25.52,14.72 41.23,14.72 16.26,0 30.28,-4.9 42.06,-14.72 11.78,-9.81 17.67,-23.69 17.67,-41.64l0 -10.93 64.77 0 0 12.62c0,33.09 -12.06,59.31 -36.17,78.66 -24.12,19.35 -53.56,29.02 -88.33,29.02zm-187.6 474.47l0 -425.67 78.24 0 0 254.05c0,29.72 -0.84,48.79 -2.53,57.2l1.68 0c2.81,-6.72 15.42,-25.8 37.85,-57.2l183.39 -254.05 79.08 0 0 425.67 -79.08 0 0 -254.05c0,-7.86 0.42,-18.93 1.26,-33.23 0.84,-14.3 1.26,-22.02 1.26,-23.14l-1.68 0c-0.56,1.12 -12.9,19.91 -37.01,56.37l-184.24 254.05 -78.24 0zm713.38 0l0 -425.67 371.84 0 0 425.67 -81.6 0 0 -355.85 -208.63 0 0 355.85 -81.6 0zm462.68 -116.09c0,-31.41 8.7,-57.77 26.08,-79.08 17.39,-21.32 40.53,-36.6 69.41,-45.85 28.88,-9.26 55.66,-15.56 80.34,-18.93 24.67,-3.37 50.75,-5.05 78.24,-5.05l21.87 0 0 -8.41c0,-62.25 -31.13,-93.38 -93.38,-93.38 -40.94,0 -80.75,13.74 -119.46,41.22l-32.81 -59.73c17.39,-14.58 40.95,-26.64 70.67,-36.17 29.72,-9.54 59.17,-14.31 88.33,-14.31 53.84,0 95.34,14.31 124.51,42.91 29.16,28.6 43.74,69.82 43.74,123.67l0 269.2 -76.55 0 0 -42.9 2.53 -33.65 -1.68 0c-12.9,25.23 -31.83,45.99 -56.79,62.25 -24.95,16.26 -52.57,24.39 -82.86,24.39 -38.7,0 -72.06,-11.49 -100.11,-34.48 -28.04,-23 -42.06,-53.56 -42.06,-91.7zm81.6 -6.73c0,18.51 7.01,34.49 21.03,47.95 14.03,13.46 33.65,20.19 58.9,20.19 33.64,0 61.13,-14.03 82.44,-42.07 21.32,-28.04 31.97,-59.17 31.97,-93.38l0 -15.98 -21.03 0c-115.54,0 -173.3,27.77 -173.3,83.29zm396.23 291.07l0 -593.92 75.71 0 0 37.85 -2.53 31.97 1.68 0c13.46,-25.23 32.81,-44.87 58.04,-58.89 25.24,-14.02 53.56,-21.04 84.97,-21.04 57.2,0 102.63,20.47 136.28,61.41 33.65,40.95 50.47,94.78 50.47,161.53 0,67.3 -17.94,121.28 -53.84,161.94 -35.9,40.67 -82.17,60.99 -138.81,60.99 -56.64,0 -100.67,-24.11 -132.07,-72.35l-1.68 0c2.24,10.09 3.37,22.44 3.37,37.02l0 193.48 -81.6 0zm79.08 -379.4c0,40.38 10.79,75.57 32.39,105.58 21.59,30 50.89,45.01 87.91,45.01 34.77,0 63.94,-13.6 87.49,-40.8 23.56,-27.21 35.34,-64.08 35.34,-110.63 0,-45.99 -11.07,-82.87 -33.23,-110.63 -22.16,-27.76 -51.18,-41.64 -87.07,-41.64 -34.77,0 -63.94,12.9 -87.5,38.69 -23.55,25.81 -35.33,63.94 -35.33,114.42zm520.73 211.15l0 -355.85 -148.06 0 0 -69.82 377.72 0 0 69.82 -148.9 0 0 355.85 -80.76 0zm309.58 0l0 -425.67 81.6 0 0 173.3 215.35 0 0 -173.3 81.6 0 0 425.67 -81.6 0 0 -182.55 -215.35 0 0 182.55 -81.6 0zm476.99 -212.84c0,-66.74 20.18,-120.58 60.57,-161.53 40.38,-40.94 91.42,-61.41 153.11,-61.41 57.76,0 102.91,18.93 135.44,56.79 32.53,37.85 48.79,85.38 48.79,142.59 0,7.3 -1.12,18.79 -3.37,34.49l-309.58 0c2.24,44.31 17.25,78.94 45.01,103.89 27.76,24.96 61.55,37.44 101.38,37.44 46.55,0 88.33,-16.55 125.34,-49.64l34.49 59.73c-20.19,18.51 -45.29,33.23 -75.29,44.16 -30,10.94 -59.87,16.41 -89.59,16.41 -66.18,0 -120.44,-21.17 -162.78,-63.52 -42.35,-42.34 -63.52,-95.47 -63.52,-159.41zm87.49 -47.95l227.98 0c-1.12,-35.34 -11.35,-62.81 -30.71,-82.45 -19.35,-19.62 -43.6,-29.44 -72.77,-29.44 -31.97,0 -59.31,9.96 -82.03,29.86 -22.71,19.91 -36.87,47.25 -42.48,82.03zm408.85 429.04l0 -593.92 75.71 0 0 37.85 -2.53 31.97 1.68 0c13.46,-25.23 32.81,-44.87 58.04,-58.89 25.24,-14.02 53.56,-21.04 84.97,-21.04 57.2,0 102.63,20.47 136.28,61.41 33.65,40.95 50.47,94.78 50.47,161.53 0,67.3 -17.94,121.28 -53.84,161.94 -35.9,40.67 -82.17,60.99 -138.81,60.99 -56.64,0 -100.67,-24.11 -132.07,-72.35l-1.68 0c2.24,10.09 3.37,22.44 3.37,37.02l0 193.48 -81.6 0zm79.08 -379.4c0,40.38 10.79,75.57 32.39,105.58 21.59,30 50.89,45.01 87.91,45.01 34.77,0 63.94,-13.6 87.49,-40.8 23.56,-27.21 35.34,-64.08 35.34,-110.63 0,-45.99 -11.07,-82.87 -33.23,-110.63 -22.16,-27.76 -51.18,-41.64 -87.07,-41.64 -34.77,0 -63.94,12.9 -87.5,38.69 -23.55,25.81 -35.33,63.94 -35.33,114.42z"/>
  </g>
 </g>
</svg>
