<?xml version="1.0" encoding="UTF-8"?>
<!DOCTYPE svg PUBLIC "-//W3C//DTD SVG 1.1//EN" "http://www.w3.org/Graphics/SVG/1.1/DTD/svg11.dtd">
<!-- Creator: CorelDRAW 2020 (64-Bit) -->
<svg xmlns="http://www.w3.org/2000/svg" xml:space="preserve" width="9.0156mm" height="8.4569mm" version="1.1" style="shape-rendering:geometricPrecision; text-rendering:geometricPrecision; image-rendering:optimizeQuality; fill-rule:evenodd; clip-rule:evenodd"
viewBox="0 0 52.82 49.55"
 xmlns:xlink="http://www.w3.org/1999/xlink"
 xmlns:xodm="http://www.corel.com/coreldraw/odm/2003">
 <defs>
  <style type="text/css">
   <![CDATA[
    .fil0 {fill:#434242}
   ]]>
  </style>
 </defs>
 <g id="Слой_x0020_1">
  <metadata id="CorelCorpID_0Corel-Layer"/>
  <path class="fil0" d="M26.61 15.44l-19.54 0c0.02,-3.83 0.24,-6.18 2.21,-8.67 3.81,-4.82 10.76,-5.22 15.16,-0.07 1.95,2.28 2.36,5 2.37,8.74l-0.19 0zm-22.6 0l-0.01 0c-4.57,1.17 -3.94,4.82 -3.94,8.31 0,5.75 -0.13,12.79 0,18.42 0.05,2 0.99,3.24 2.14,3.99 1.53,1 3.44,0.74 5.4,0.74 2.05,0 4.09,0.01 6.14,0 0.01,-1.96 -0.04,-3.94 -0.01,-5.9 0.01,-0.74 0.06,-0.7 0.45,-1.08 0.37,-0.37 0.73,-0.74 1.09,-1.12l-0 -7.38c-0.07,-0.35 -0.97,-0.73 -1.44,-1.63 -2.41,-4.6 5.2,-7.48 6.44,-2.48 0.57,2.31 -0.96,3.24 -1.8,3.98l0.06 4.29 3.97 -3.97c1.38,-1.37 2.67,-2.64 4.06,-4 0.35,-0.35 0.83,-0.56 0.85,-1.17 0.02,-0.51 -0.1,-1.32 -0.1,-1.93 0.06,-5.31 2.66,-8.32 3.31,-9.07l-0.76 0c-0.14,-5.55 -0.47,-7.25 -3.28,-10.9 -0.39,-0.5 -1.34,-1.36 -1.84,-1.75 -4.86,-3.77 -10.77,-3.69 -15.69,0.06 -0.49,0.38 -1.41,1.25 -1.82,1.76 -3.36,4.2 -2.94,6.46 -3.23,10.83z"/>
  <path class="fil0" d="M20.21 45.68c-0.35,-2.38 -0.62,-2.93 1.67,-5.24l7.2 -7.13 3.57 -3.57 1.76 1.77 -14.2 14.17zm20.17 -25.78c-0.29,-3.39 2.99,-3.75 5.37,-2.45 1.64,0.89 3.73,2.92 4.01,5.44 0.65,5.87 -8.88,2.84 -9.38,-2.98zm-1.43 15.49c2.11,0.19 3.14,0.78 5.98,-0.17 5.33,-1.78 8.79,-6.68 7.69,-12.37 -0.77,-4 -2.82,-6.46 -5.74,-7.94 -3.34,-1.69 -7.67,-1.72 -10.73,0.27 -3.48,2.27 -6.12,6.51 -5.17,11.54 0.09,0.47 0.31,0.91 0.13,1.21 -0.33,0.56 -3.57,3.67 -4.17,4.26 -2.3,2.28 -4.51,4.47 -6.81,6.75 -0.61,0.6 -1.12,1.12 -1.73,1.72 -1.29,1.28 -1.21,0.9 -1.2,2.13l0.04 6.75 7.47 -0.02 0.43 -3.53 3.74 -0.47 0.39 -3.68 3.5 -0.59 0.72 -3.51c3.01,-0.3 3.6,0.05 5.45,-2.34z"/>
 </g>
</svg>
