<?xml version="1.0" encoding="UTF-8"?>
<!DOCTYPE svg PUBLIC "-//W3C//DTD SVG 1.1//EN" "http://www.w3.org/Graphics/SVG/1.1/DTD/svg11.dtd">
<!-- Creator: CorelDRAW 2020 (64-Bit) -->
<svg xmlns="http://www.w3.org/2000/svg" xml:space="preserve" width="6.3228mm" height="6.5188mm" version="1.1" style="shape-rendering:geometricPrecision; text-rendering:geometricPrecision; image-rendering:optimizeQuality; fill-rule:evenodd; clip-rule:evenodd"
viewBox="0 0 127.52 131.47"
 xmlns:xlink="http://www.w3.org/1999/xlink"
 xmlns:xodm="http://www.corel.com/coreldraw/odm/2003">
 <defs>
  <style type="text/css">
   <![CDATA[
    .fil0 {fill:#2B2A29;fill-rule:nonzero}
   ]]>
  </style>
 </defs>
 <g id="Слой_x0020_1">
  <metadata id="CorelCorpID_0Corel-Layer"/>
  <path class="fil0" d="M95.57 91.4l31.94 32.93 -6.92 7.13 -31.94 -32.93c-9.38,8.07 -21.45,12.93 -34.6,12.93 -14.9,0 -28.42,-6.24 -38.21,-16.32l-0.02 -0.02c-9.78,-10.09 -15.83,-24.02 -15.83,-39.39 0,-15.37 6.05,-29.3 15.83,-39.39l0.02 -0.02c9.79,-10.08 23.3,-16.32 38.21,-16.32 14.9,0 28.42,6.24 38.2,16.32l0.02 0.02c9.78,10.09 15.83,24.02 15.83,39.39 0,13.56 -4.71,26 -12.54,35.67zm-10.21 -67.97c-8,-8.25 -19.07,-13.35 -31.31,-13.35 -12.24,0 -23.31,5.1 -31.31,13.35l-0.02 0.02c-8,8.25 -12.95,19.66 -12.95,32.28 0,12.62 4.95,24.03 12.95,32.28l0.02 0.02c8,8.25 19.07,13.35 31.31,13.35 12.24,0 23.31,-5.1 31.31,-13.35l0.02 -0.02c8,-8.25 12.95,-19.66 12.95,-32.28 0,-12.62 -4.95,-24.03 -12.95,-32.28l-0.02 -0.02z"/>
 </g>
</svg>
