<?xml version="1.0" encoding="UTF-8"?>
<!DOCTYPE svg PUBLIC "-//W3C//DTD SVG 1.1//EN" "http://www.w3.org/Graphics/SVG/1.1/DTD/svg11.dtd">
<!-- Creator: CorelDRAW 2020 (64-Bit) -->
<svg xmlns="http://www.w3.org/2000/svg" xml:space="preserve" width="7.9691mm" height="6.7545mm" version="1.1" style="shape-rendering:geometricPrecision; text-rendering:geometricPrecision; image-rendering:optimizeQuality; fill-rule:evenodd; clip-rule:evenodd"
viewBox="0 0 296.12 250.99"
 xmlns:xlink="http://www.w3.org/1999/xlink"
 xmlns:xodm="http://www.corel.com/coreldraw/odm/2003">
 <defs>
  <style type="text/css">
   <![CDATA[
    .fil0 {fill:#2B2A29}
   ]]>
  </style>
 </defs>
 <g id="Слой_x0020_1">
  <metadata id="CorelCorpID_0Corel-Layer"/>
  <path class="fil0" d="M224.5 157.03c10.68,10.67 10.68,27.99 0,38.66 -10.67,10.68 -27.99,10.68 -38.66,0 -10.68,-10.67 -10.68,-27.99 0,-38.66 10.67,-10.68 27.99,-10.68 38.66,0zm-157.93 -20.95c-3.82,1.29 -6.65,3.98 -8.84,7.51 -1.99,3.22 -3.27,7.08 -3.73,11.02 -0.45,3.95 -0.11,8.04 1.13,11.71 1.85,5.47 4.61,9.42 8.85,12.67 1.87,-5.2 4.88,-10.08 9.05,-14.25 1.44,-1.44 2.97,-2.74 4.57,-3.91l-11.04 -24.75zm30.06 108.73l0.33 -14.21c4.04,0.36 8.13,0.09 12.09,-0.82l-0.36 15.37c-0.19,7.97 -12.25,7.63 -12.07,-0.34zm21.04 -1.84l-0 0c-2.33,0 -4.18,-2.03 -4.12,-4.36l0.28 -10.25c3.01,-1.11 5.9,-2.6 8.61,-4.48l-0.41 14.97c-0.06,2.33 -2.04,4.12 -4.36,4.12zm8.97 1.86l0.66 -24.96 0.44 -0.43c3.96,-3.96 6.87,-8.56 8.76,-13.48l3.24 0.09 -1.04 39.12c-0.21,7.98 -12.28,7.62 -12.07,-0.34zm21.32 -3.04l-0.01 0c-2.33,0 -4.17,-2.03 -4.12,-4.36l0.62 -31.29 8.48 0.24 -0.63 31.29c-0.04,2.33 -2.04,4.12 -4.35,4.12zm41.3 2.24l0.85 -36.73 12.07 0.35 -0.85 36.72c-0.18,7.98 -12.25,7.63 -12.07,-0.34zm-25.4 6.05l-0.01 0c-4.1,0 -7.35,-3.56 -7.24,-7.66l0.89 -35.95 14.9 0.42 -0.89 35.95c-0.1,4.1 -3.57,7.24 -7.65,7.24zm16.83 -7.97l-0 0c-2.33,0 -4.15,-2.03 -4.12,-4.36l0.44 -30.76 8.48 0.24 -0.45 30.77c-0.03,2.33 -2.04,4.12 -4.36,4.12zm-90.67 -229.33c-3.48,-2.53 -12.31,-9.52 -15.59,-11.27 -7.45,-3.97 -11.63,0.55 -17.42,6.33l-11.27 11.27 -28.62 28.62 -9.29 9.29c-5.78,5.78 -10.31,9.96 -6.33,17.42 1.75,3.28 8.74,12.11 11.27,15.59l77.25 -77.25zm-22.19 48.43l-3.31 3.31 -3.31 3.31 -0.01 -0.01 -34.18 34.13c-2.65,2.72 -3.76,2.3 -6.05,-0.8l-5 -6.67 39.29 -39.21 39.21 -39.29 6.67 5c3.1,2.29 3.52,3.39 0.8,6.04l-34.13 34.18 0 0zm-30.26 38.09l9.67 -9.68 14.05 14.05c1.91,1.91 4.44,2.87 6.95,2.87 2.52,0 5.04,-0.96 6.96,-2.88 1.91,-1.91 2.87,-4.44 2.87,-6.95 0,-2.51 -0.96,-5.04 -2.87,-6.95l-14.05 -14.05 14.57 -14.58 14.05 14.05c1.91,1.91 4.44,2.87 6.95,2.87 2.52,0 5.04,-0.96 6.96,-2.88 1.91,-1.91 2.87,-4.44 2.87,-6.95 0,-2.51 -0.96,-5.04 -2.87,-6.95l-14.05 -14.05 9.74 -9.75 30.96 30.96 -61.8 61.8 -30.96 -30.96zm19.56 -19.24l-5.54 5.55 13.89 13.89c0.76,0.76 1.77,1.14 2.77,1.14 1,0 2.01,-0.38 2.77,-1.14 0.77,-0.77 1.15,-1.78 1.15,-2.78 0,-1 -0.38,-2.01 -1.14,-2.77l-13.89 -13.89zm28.48 -28.47l-5.54 5.54 13.89 13.89c0.76,0.76 1.77,1.14 2.77,1.14 1,0 2.01,-0.38 2.77,-1.14 0.77,-0.77 1.15,-1.78 1.15,-2.78 0,-1 -0.38,-2.01 -1.14,-2.77l-13.89 -13.89zm37.88 117.45c12.74,12.74 12.74,33.41 0,46.15 -12.75,12.75 -33.41,12.75 -46.16,0 -12.74,-12.74 -12.74,-33.41 0,-46.15 12.75,-12.75 33.41,-12.75 46.16,0zm-13.63 13.63c2.6,2.6 3.91,6.02 3.91,9.45 0,3.43 -1.31,6.86 -3.91,9.46 -2.6,2.6 -6.02,3.91 -9.44,3.91 -3.43,0 -6.85,-1.3 -9.46,-3.91 -2.6,-2.6 -3.91,-6.03 -3.91,-9.45 0,-3.43 1.3,-6.85 3.91,-9.46 2.6,-2.6 6.02,-3.91 9.44,-3.91 3.43,0 6.86,1.31 9.46,3.91zm-0.79 9.45c0,-2.21 -0.84,-4.43 -2.54,-6.12 -1.69,-1.69 -3.91,-2.54 -6.12,-2.54 -2.22,-0 -4.44,0.85 -6.13,2.54 -1.69,1.69 -2.54,3.91 -2.54,6.12 -0,2.22 0.85,4.44 2.54,6.13 1.69,1.69 3.91,2.54 6.12,2.54 2.22,0 4.44,-0.84 6.13,-2.54 1.69,-1.69 2.54,-3.91 2.54,-6.12zm174.27 -101.35c2.53,-3.48 9.52,-12.31 11.27,-15.59 3.97,-7.45 -0.55,-11.63 -6.34,-17.42l-11.27 -11.27 -28.62 -28.62 -9.29 -9.29c-5.78,-5.78 -9.97,-10.31 -17.42,-6.33 -3.28,1.75 -12.11,8.74 -15.59,11.27l77.24 77.25zm-139.48 110.25l30.61 -30.61c-0.39,2.03 -0.78,4.54 -0.56,6.63 0.16,7.37 2.91,14.7 8.25,20.49l4.8 4.59 -43.1 -1.1zm80.34 -50.42l5.74 -12.84 8.5 -8.5c3.64,1.72 6.15,4.72 7.92,8.48 1.61,3.42 2.43,7.41 2.43,11.38 -0,3.98 -0.82,8 -2.47,11.5 -2.6,5.49 -5.32,7.16 -10.3,9.95 -0.61,-6.32 -5.82,-14.12 -8.59,-16.9 -2.78,-2.77 -2.47,-2.44 -3.23,-3.07zm10.71 -82.02l-3.31 -3.31 -3.31 -3.31 0 -0.01 -34.12 -34.18c-2.72,-2.65 -2.3,-3.75 0.8,-6.04l6.67 -5 39.21 39.28 39.29 39.22 -5 6.67c-2.29,3.1 -3.39,3.52 -6.04,0.8l-34.18 -34.13 -0.01 0.01zm-61.01 55.9l30.63 20.46c-6.22,0.13 -12.4,2.08 -17.68,5.87 -1.39,0.99 -2.72,2.11 -3.96,3.36l-43.99 42.61c0.67,-4.28 0.39,-8.52 -0.66,-12.61 -1.49,-7.1 -4.98,-13.86 -10.5,-19.38 -8.24,-8.25 -19.29,-11.98 -30.08,-11.22l25.44 -25.39c0.21,6.24 2.69,12.41 7.45,17.17 9.95,9.95 26.1,9.95 36.05,0 5.7,-5.7 8.14,-13.44 7.31,-20.88zm-10.1 -48.52l59.49 59.48 -4.69 11.11c-18.66,-13.28 -37.26,-26.39 -56.75,-38.46 -0.4,-0.27 -2.98,-1.81 -4.15,-2.29 -10.49,-4.44 -19.77,-2.13 -25.95,4.05l-46.73 46.73c-0.79,0.34 -1.58,0.71 -2.35,1.11l-9.78 -23.08 59.9 -59.89c4.83,-5 9.2,-3.91 15.14,-3.89 5.28,0.02 11.04,0.11 14.79,4.03l1.08 1.09zm33.02 -37.64l9.68 9.68 -14.05 14.05c-1.91,1.91 -2.87,4.44 -2.87,6.95 0,2.52 0.96,5.04 2.88,6.96 1.91,1.91 4.43,2.87 6.95,2.87 2.51,0 5.03,-0.96 6.95,-2.87l14.05 -14.05 14.57 14.58 -14.05 14.05c-1.91,1.91 -2.87,4.44 -2.87,6.95 0,2.51 0.96,5.04 2.88,6.96 1.91,1.91 4.43,2.87 6.95,2.87 2.51,0 5.03,-0.96 6.95,-2.87l14.05 -14.05 9.74 9.74 -30.96 30.96 -61.8 -61.8 30.96 -30.96zm19.23 19.56l-5.54 -5.54 -13.89 13.89c-0.76,0.76 -1.14,1.77 -1.14,2.77 0,1 0.38,2.01 1.14,2.77 0.77,0.77 1.78,1.14 2.78,1.14 1,0 2.01,-0.38 2.77,-1.14l13.89 -13.89zm28.48 28.48l-5.54 -5.54 -13.89 13.89c-0.76,0.76 -1.14,1.77 -1.14,2.77 0,1 0.38,2.01 1.14,2.77 0.77,0.77 1.78,1.15 2.78,1.15 1,0 2.01,-0.38 2.77,-1.14l13.89 -13.89zm-82.65 29.03c7.18,7.18 7.18,18.81 0,25.98 -7.17,7.18 -18.81,7.18 -25.98,0 -7.17,-7.18 -7.17,-18.81 0,-25.98 7.18,-7.18 18.81,-7.18 25.98,0zm51.2 53.06c2.18,2.18 3.27,5.05 3.27,7.91 0,2.88 -1.1,5.74 -3.27,7.92 -2.18,2.18 -5.05,3.27 -7.91,3.27 -2.87,0 -5.74,-1.09 -7.92,-3.27 -2.18,-2.18 -3.27,-5.05 -3.27,-7.91 0,-2.87 1.09,-5.74 3.27,-7.92 2.18,-2.18 5.05,-3.27 7.91,-3.27 2.88,0 5.74,1.09 7.92,3.27zm-0.66 7.91c0,-1.85 -0.71,-3.71 -2.13,-5.13 -1.42,-1.41 -3.28,-2.13 -5.12,-2.13 -1.86,0 -3.72,0.71 -5.14,2.13 -1.42,1.42 -2.13,3.28 -2.13,5.12 0,1.86 0.71,3.72 2.13,5.14 1.42,1.42 3.28,2.13 5.12,2.13 1.86,0 3.72,-0.71 5.14,-2.13 1.42,-1.42 2.13,-3.27 2.13,-5.13z"/>
 </g>
</svg>
