<?xml version="1.0" encoding="UTF-8"?>
<!DOCTYPE svg PUBLIC "-//W3C//DTD SVG 1.1//EN" "http://www.w3.org/Graphics/SVG/1.1/DTD/svg11.dtd">
<!-- Creator: CorelDRAW 2020 (64-Bit) -->
<svg xmlns="http://www.w3.org/2000/svg" xml:space="preserve" width="11.029mm" height="4.4153mm" version="1.1" style="shape-rendering:geometricPrecision; text-rendering:geometricPrecision; image-rendering:optimizeQuality; fill-rule:evenodd; clip-rule:evenodd"
viewBox="0 0 661.57 264.85"
 xmlns:xlink="http://www.w3.org/1999/xlink"
 xmlns:xodm="http://www.corel.com/coreldraw/odm/2003">
 <defs>
  <style type="text/css">
   <![CDATA[
    .fil0 {fill:#2B2A29}
   ]]>
  </style>
 </defs>
 <g id="Слой_x0020_1">
  <metadata id="CorelCorpID_0Corel-Layer"/>
  <path class="fil0" d="M403.41 155.03c0,-44.69 0,-99.52 0,-144.21 0,-12.56 -1.3,-10.76 5.75,-10.7l60.02 0.01c12.25,-0.01 17.08,2.81 24.54,8.63 8.33,6.5 44.66,40.35 54.33,50.11 5.88,5.93 11.22,10.8 16.71,16.72 2.9,3.14 13.07,15.58 17.58,16.06 6.2,0.64 9.11,-0.68 15.45,1.33 11.71,3.71 16.3,9.8 24.85,16.83 1.61,1.33 2.77,2.53 4.37,3.86l23.84 22.57c7.04,5.6 10.73,9.77 10.73,22.85l-0.08 46.16c-2.58,23.05 -37.54,22.97 -44.69,20.43 -1.13,-2.65 -3.29,-13.59 -4.35,-16.71 -1.3,-3.85 -2.8,-6.92 -4.55,-10.41 -3.53,-7.04 -9.11,-11.56 -13.73,-16.17 -27.73,-17.95 -65.53,-9.83 -77.12,35.76 -1.02,3.77 -0.53,4.17 -2.03,4.55l-288.58 1.07c-7.34,0.44 -1.5,-20.01 -14.4,-32.56 -5.75,-8.66 -19.78,-13.56 -32.7,-16.5l78.17 0.08 -0.02 14.35 -19.6 0.11 0 9.32 19.57 0.14 0.19 9.05 8.94 0 0.05 -8.99 38.24 -0.2 0.1 9.15 8.97 0.04 0.11 -9.18 79.74 0 0 -9.32c-4.66,0.01 -13.96,0.43 -18.09,-0.28 0,-4.24 -1,-14.26 1.37,-14.26l26.31 0 -0.01 -14.52 5.9 -0.28c1.79,-2.95 0,-4.44 0,-4.44l-5.89 -0.42zm-214.67 46.12c-4.87,-3.28 -11.01,-4.88 -17.79,-3.48 -12.07,2.49 -18.4,10.4 -20.02,19.17 -0.66,3.56 -0.56,7.31 0.23,10.9 0.78,3.57 2.26,6.99 4.35,9.95 5.09,7.2 13.98,11.67 25.6,8.94 5.94,-1.4 11.7,-5.62 15.33,-11.4 3.23,-5.12 4.76,-11.48 3.27,-18.14 -1.38,-6.18 -5.34,-12.16 -10.96,-15.94zm-54.93 11.73c2.89,-14.8 13.64,-28.03 34.08,-32.13 19.02,-3.81 33.38,4.07 41.59,16.35 3.28,4.89 5.57,10.49 6.77,16.3 1.21,5.82 1.35,11.89 0.32,17.7 -2.63,14.85 -12.74,28.2 -31.78,32.42 -19.78,4.37 -34.99,-3.62 -43.69,-16.19 -3.43,-4.95 -5.83,-10.63 -7.08,-16.5 -1.25,-5.9 -1.36,-12.05 -0.22,-17.94zm428.12 -15.75l-0.23 0.04c-6.61,1.22 -12.69,4.95 -16.63,10.4 -3.54,4.91 -5.36,11.28 -4.28,18.53 1.74,11.64 9.51,18.29 18.43,20.39 3.62,0.85 7.44,0.97 11.12,0.4 3.65,-0.58 7.19,-1.85 10.29,-3.8 7.48,-4.69 12.39,-13.42 10.22,-25.77l-0.03 -0.17c-1.07,-5.8 -4.79,-11.43 -10.01,-15.3 -5.19,-3.85 -11.87,-5.95 -18.88,-4.73zm-7.22 66.56c-15.01,-3.48 -28.09,-14.73 -31.25,-34.94 -3.14,-20.08 5.76,-34.63 18.9,-42.47 5.1,-3.04 10.85,-5.06 16.76,-6 5.9,-0.92 12,-0.77 17.78,0.53 15.01,3.39 28.12,14.43 31.3,34.23 3.27,20.37 -5.67,35.17 -18.85,43.15 -5.09,3.08 -10.85,5.13 -16.79,6.08 -5.93,0.94 -12.04,0.76 -17.84,-0.58zm-373.79 -50.42c-2.06,-1.39 -4.68,-2.08 -7.56,-1.48 -5.13,1.06 -7.84,4.43 -8.53,8.16 -0.28,1.51 -0.23,3.11 0.1,4.64 0.33,1.52 0.97,2.99 1.85,4.25 2.15,3.06 5.94,4.96 10.89,3.8 2.53,-0.59 4.98,-2.4 6.53,-4.86 1.37,-2.18 2.02,-4.88 1.39,-7.71 -0.59,-2.63 -2.29,-5.19 -4.68,-6.8zm-23.9 4.88c1.27,-6.49 5.98,-12.3 14.94,-14.09 8.34,-1.67 14.64,1.79 18.24,7.17 1.43,2.14 2.44,4.59 2.96,7.14 0.53,2.54 0.59,5.21 0.14,7.75 -1.15,6.51 -5.58,12.37 -13.93,14.22 -8.67,1.91 -15.35,-1.6 -19.16,-7.1 -1.49,-2.17 -2.56,-4.66 -3.1,-7.23 -0.55,-2.57 -0.6,-5.28 -0.1,-7.86zm407.24 -6.41l-0.12 0.02c-2.8,0.51 -5.34,2.08 -6.99,4.36 -1.48,2.05 -2.24,4.72 -1.79,7.76 0.73,4.86 3.99,7.67 7.72,8.54 1.52,0.35 3.13,0.4 4.66,0.16 1.53,-0.24 3.03,-0.78 4.32,-1.59 3.13,-1.96 5.18,-5.62 4.27,-10.8l-0.02 -0.1c-0.44,-2.41 -2.02,-4.76 -4.19,-6.37 -2.16,-1.61 -4.95,-2.48 -7.86,-1.99zm-3.22 28.46c-6.5,-1.51 -12.16,-6.38 -13.53,-15.12 -1.36,-8.69 2.51,-14.98 8.18,-18.37 2.2,-1.31 4.68,-2.2 7.23,-2.59 2.55,-0.4 5.19,-0.33 7.69,0.23 6.5,1.46 12.17,6.25 13.54,14.81 1.42,8.81 -2.45,15.22 -8.16,18.67 -2.2,1.33 -4.7,2.21 -7.26,2.62 -2.56,0.41 -5.21,0.33 -7.71,-0.25zm-522.67 -44.12l0 -21.4 18.5 0.23 0.01 21.1 -18.51 0.07zm275.7 -6.85c0,-3.56 -0.58,-11.63 0.41,-14.53l52.1 0.08 -0.02 14.44 -52.49 0.01zm-47.41 -0.28c0,-1.69 -0.17,-12.57 0.06,-13.26 0.69,-2.03 9.18,-1 11.73,-1 8.82,0 17.65,0 26.43,0l0.01 14.55 -38.23 -0.29zm-102.9 -14.26c-6.21,3.12 -15.58,5.77 -23.15,13.58 -0.73,1.11 -3.5,3.45 -4.21,4.65l-2.21 2.77c-0.04,-0.09 -0.18,0.24 -0.28,0.38l-67.87 0 0.22 -21.37 97.5 -0.01zm-163.75 -80.84l396.83 0 0 71.26 -394.91 0.05 -1.92 -0.32 0 -70.99zm67.01 61.66l14.08 0 0 -43.85 -14.08 0 0 43.85zm252.28 0l14.08 0 0 -43.85 -14.08 0 0 43.85zm-128.06 0l14.08 0 0 -43.85 -14.08 0 0 43.85zm432.4 35.32c-0.49,2.06 -0.15,6 0.49,7.35 2.48,0.82 19.9,0.83 22.26,-0.03 0.68,-1.48 0.58,-2.56 0.57,-4.57 -0.02,-3.32 -0.49,-3.01 -0.54,-3.49 -0.02,-0.23 -0.11,-0.28 -0.2,-0.4 -2.8,-1.45 -11.99,-0.46 -15.89,-0.48 -5.67,-0.04 -6.14,-0.71 -6.69,1.61zm-156.1 -70.66c-2.65,-1.13 -10.76,-0.43 -14.25,-0.43 -10.51,0 -9.63,-1.02 -9.64,4.8 -0.01,5.99 -1.3,4.94 10.19,4.93 13.89,0 14.33,1.51 14.29,-4.92 -0.01,-1.85 0.2,-2.83 -0.59,-4.37zm89.75 -27.97c0,-3.09 -1.21,-2.74 -4.74,-2.74l-0.41 -3.67c-5.83,-0.41 -4.71,-0.29 -4.71,3.53 -3.13,0.31 -4.8,-0.74 -4.8,2.88 0,29.19 -1.61,25.01 4.8,25.79 0,4.35 -1.01,4.94 4.89,3.99l0.17 -4.16 4.67 -0.14 0.13 -25.49zm-52.58 -45.05c-0.8,2.6 -1.06,37.01 -0.34,40.56 1.34,6.68 6.69,6.56 13.6,6.54 5.53,-0.01 14.54,0.88 18.1,-2.05 4.09,-3.36 2.09,-12.1 -0.48,-16 -4.16,-6.29 -18.81,-19.58 -24.8,-26.15 -1.77,-1.94 -2.44,-4.08 -6.08,-2.91zm107.8 96.31c6.27,5.71 7.94,8.48 15.95,9.77 3.04,0.49 9.18,0.92 12.02,0.07 3.31,-0.99 4.41,-5.93 1.67,-8.24 -2.15,-1.81 -8.33,-0.82 -11.8,-1.34 -5.11,-0.76 -5.15,-2.21 -8.09,-4.53l-17.16 -15.18c-5.1,-4.47 -6.81,-4.71 -7.13,-12.09 -0.35,-7.98 -11.56,-9.23 -9.48,4.4 1.33,8.7 5.84,10.97 10.31,15.09l13.71 12.05zm-32.61 11.91c-44.83,0 -91.98,0.52 -136.49,-0.01 -4.04,-0.05 -7.44,-0.98 -5.19,4.66l162.82 -0.1c0.78,-1.99 0.81,-2.47 -0.04,-4.42 -5.92,-0.65 -14.85,-0.14 -21.1,-0.14zm-158.53 27.54l7.52 0 0 -163.88 -7.51 0 -0.01 163.88zm82.23 15.31c0.4,-3.95 0.61,-5.12 -0.28,-8.84l-94.91 0.07c-0.37,2.85 -0.8,6.24 0.17,8.9 7.84,0.71 78.55,0.18 92.41,0.23l2.62 -0.36zm-12.58 -105.87c-1,2.9 -4.92,6.31 -7.01,8.3 -4.49,4.26 -20.17,3.11 -28.26,3.01 -5.36,-0.08 -8.3,-1.94 -9.86,-6.12 -2.02,-5.4 -1.43,-52.17 -1.18,-61.5 0.34,-12.5 9.42,-10.24 20.45,-10.24 5.09,0 10.19,0.01 15.27,-0.01 5.36,-0.02 8.58,0.95 10.4,5.15 1.37,3.19 1.5,57.63 0.2,61.42z"/>
 </g>
</svg>
