<?xml version="1.0" encoding="UTF-8"?>
<!DOCTYPE svg PUBLIC "-//W3C//DTD SVG 1.1//EN" "http://www.w3.org/Graphics/SVG/1.1/DTD/svg11.dtd">
<!-- Creator: CorelDRAW 2020 (64-Bit) -->
<svg xmlns="http://www.w3.org/2000/svg" xml:space="preserve" width="8.3262mm" height="8.3261mm" version="1.1" style="shape-rendering:geometricPrecision; text-rendering:geometricPrecision; image-rendering:optimizeQuality; fill-rule:evenodd; clip-rule:evenodd"
viewBox="0 0 328.73 328.72"
 xmlns:xlink="http://www.w3.org/1999/xlink"
 xmlns:xodm="http://www.corel.com/coreldraw/odm/2003">
 <defs>
  <style type="text/css">
   <![CDATA[
    .fil0 {fill:#2B2A29}
   ]]>
  </style>
 </defs>
 <g id="Слой_x0020_1">
  <metadata id="CorelCorpID_0Corel-Layer"/>
  <path class="fil0" d="M49.65 37.93l48.75 0 0 -33.82c0,-1.65 -2.46,-4.11 -4.11,-4.11l-40.54 0c-1.65,0 -4.11,2.46 -4.11,4.11l0 33.82zm65.41 137.39l98.62 0 0 153.4 -98.62 0 0 -153.4zm49.31 27.55c21.09,0 38.19,17.1 38.19,38.19 0,21.09 -17.1,38.19 -38.19,38.19 -21.09,0 -38.19,-17.1 -38.19,-38.19 0,-21.09 17.1,-38.19 38.19,-38.19zm-26.07 35.91c0,-23.26 33.16,-33.93 49.45,-13.32 5.1,7.81 2.87,16.42 -6.31,15.38 -7.22,-1.16 -25.29,-25.42 -43.14,-2.05zm52.13 4.57c0,23.26 -33.16,33.93 -49.45,13.32 -5.1,-7.81 -2.87,-16.42 6.31,-15.38 7.22,1.16 25.29,25.42 43.14,2.05zm113.64 85.37l-79.44 0 0 -38.35 104.1 0 0 13.7c-0.13,9.84 -12.4,24.66 -24.66,24.66zm-304.07 -24.66l0 -13.7 104.1 0 0 38.35 -79.44 0c-11.73,-0.13 -24.26,-14.88 -24.66,-24.66zm126.01 -172.57l10.96 0 0 21.91 10.96 0 0 -21.91 10.96 0 0 21.91 10.96 0 0 -21.91 10.96 0 0 21.91 10.96 0 0 -21.91 10.96 0 0 32.87 -76.7 0 0 -32.87zm-21.92 36.98l0 110.95 -104.1 0 0 -10.96 20.11 0 45.63 0 10.96 0 8.18 0 2.78 0 0 -10.96 -2.78 0 -8.18 0 -10.96 0 -45.63 0 -20.11 0 0 -115.05 115.05 0 0 21.92c-2.86,0 -10.96,-1.05 -10.96,4.11zm76.7 -64.37l147.93 0 0 175.32 -104.1 0 0 -10.96 16.93 0 43.33 0 10.96 0 7.08 0 3.87 0 0 -10.96 -3.87 0 -7.08 0 -10.96 0 -43.33 0 -16.93 0 0 -89.03c0,-5.15 -8.1,-4.11 -10.96,-4.11l0 -39.72c0,-6.09 -24.32,-4.11 -32.87,-4.11l0 -16.44zm82.18 27.4l27.39 0 0 27.39 -27.39 0 0 -27.39zm-10.96 -6.85l0 41.09c0,1.65 2.46,4.11 4.11,4.11l41.09 0c1.65,0 4.11,-2.46 4.11,-4.11l0 -41.09c0,-1.65 -2.46,-4.11 -4.11,-4.11l-41.09 0c-1.65,0 -4.11,2.46 -4.11,4.11zm-136.97 0l0 6.85 -115.05 0 0 -28.77c-0.06,-7.95 1.33,-7.99 8.52,-16.85 4.12,-5.12 6.61,-7.91 10.62,-12.98l19.84 -24.24c1.04,-1.37 3.49,-4.73 4.82,-4.83l59.07 0c2.37,0 10.31,10.13 11.72,11.94l20.94 25.17c15.2,16.33 12.39,14.97 12.39,39.59 -8.55,0 -32.87,-1.98 -32.87,4.11zm120.53 -86.71l65.74 0 0 -30.83c0,-1.65 -2.46,-4.11 -4.11,-4.11l-57.53 0c-1.65,0 -4.11,2.46 -4.11,4.11l0 30.83zm93.14 55.21l0 -24.66c0,-10.49 -11.95,-24.65 -27.4,-24.65l-65.74 0c-16.16,0 -12.24,-1.29 -23.67,12.63l-10.48 13.49c-1.01,1.26 -12.72,15.84 -18.04,23.19l145.33 0z"/>
 </g>
</svg>
