<?xml version="1.0" encoding="UTF-8"?>
<!DOCTYPE svg PUBLIC "-//W3C//DTD SVG 1.1//EN" "http://www.w3.org/Graphics/SVG/1.1/DTD/svg11.dtd">
<!-- Creator: CorelDRAW 2020 (64-Bit) -->
<svg xmlns="http://www.w3.org/2000/svg" xml:space="preserve" width="11.0742mm" height="5.2047mm" version="1.1" style="shape-rendering:geometricPrecision; text-rendering:geometricPrecision; image-rendering:optimizeQuality; fill-rule:evenodd; clip-rule:evenodd"
viewBox="0 0 668.65 314.25"
 xmlns:xlink="http://www.w3.org/1999/xlink"
 xmlns:xodm="http://www.corel.com/coreldraw/odm/2003">
 <defs>
  <style type="text/css">
   <![CDATA[
    .fil0 {fill:#2B2A29}
   ]]>
  </style>
 </defs>
 <g id="Слой_x0020_1">
  <metadata id="CorelCorpID_0Corel-Layer"/>
  <path class="fil0" d="M337.37 221.49l23.77 0 0 63.03 -23.77 0c-2.08,0 -3.79,-1.71 -3.79,-3.82l0 -55.39c0,-2.1 1.7,-3.82 3.79,-3.82zm-299.15 -151.09l-4.17 8.48 339.58 -0.02c7.97,-0.01 13,-0.01 15.78,2.49 3.15,2.84 2.56,7.26 -1.47,15.52l-38.52 83.98 28.94 0.06 60.45 -134.16c8.76,-19.1 10.03,-21.86 23.7,-21.86l23.3 0.39 24.04 0c5.04,0 11.35,0.65 15.26,-5.07 2.11,-3.1 6.19,-9.57 8.2,-13.33 2.75,-5.16 2.95,-6.73 -12.09,-6.73 -18.06,0 -58.15,-0.22 -79.9,-0.1 -16.01,0.08 -15.17,-1.01 -18.84,7.54 -3.6,8.39 -15.95,39.13 -19,45.77 -3.05,6.64 -4.55,10.51 -15.49,10.51 -10.93,0 -337.32,0 -337.32,0 0,0 -9.53,-0.44 -12.46,6.54zm346.74 110.51l6.23 0.01 0 12.66 -315.47 0c-5.98,0 -10.87,4.89 -10.87,10.87l0 6.36 -19.97 19.54 0 -1.68c0,-3.79 -3.1,-6.88 -6.89,-6.88l-0.01 0c-3.79,0 -6.89,3.1 -6.89,6.88l0 30.97c0,3.79 3.1,6.88 6.89,6.88l0.01 0c3.79,0 6.89,-3.1 6.89,-6.88l0 -9.52 19.97 -19.54 0 13.6c4.5,-11.27 12.61,-20.01 22.5,-25.91 6.87,-4.1 14.62,-6.83 22.59,-8.08 7.95,-1.25 16.18,-1.04 23.97,0.71 20.25,4.57 37.91,19.46 42.2,46.14 1.23,7.67 1.18,14.75 0.07,21.21l15.79 0c-0.18,-0.89 -0.34,-1.81 -0.48,-2.73 -4.24,-27.07 7.76,-46.68 25.47,-57.25 6.87,-4.1 14.62,-6.83 22.59,-8.08 7.95,-1.25 16.18,-1.04 23.97,0.71 20.25,4.57 37.91,19.46 42.2,46.14 1.23,7.67 1.18,14.75 0.07,21.21l20.82 0 0 -58.59c0,-2.38 1.95,-4.34 4.34,-4.34l125.11 0c2.38,0 4.34,1.95 4.34,4.34l0 58.59 12.14 0c5.98,0 10.87,-4.89 10.87,-10.87l0 -62.92c0,-5.8 -4.6,-10.57 -10.32,-10.86 2.67,-3.37 4.27,-7.63 4.27,-12.27 0,-10.92 -8.85,-19.76 -19.76,-19.76 -10.92,0 -19.76,8.85 -19.76,19.76 0,4.63 1.59,8.89 4.26,12.26l-6.31 0c-1.99,-3.64 -3.12,-7.82 -3.12,-12.26 0,-5.94 2.02,-11.4 5.4,-15.75l-21.71 0 61.07 -134.43 -14.91 -0.24c-9.82,0.01 -10.89,2.32 -18.23,18.34l-59.32 131.66zm-353.87 -96.02l-29.25 59.42c-0.98,2 -6.4,13.18 7.78,18.17 6.6,2.21 14.32,4.96 21.46,7.57l38.23 -85.16 -38.23 0zm44.82 0l-39.16 87.24c9.04,3.33 16.21,6.06 17.41,6.53 1.58,0.62 4.74,1.87 16.68,2.36l43.73 -96.14 -38.65 0.01zm45.28 -0.01l-43.81 96.3c4.71,0.07 10.4,0.04 17.31,-0.13 3.88,-0.1 11.36,-0.18 21.49,-0.23l43.65 -95.94 -38.64 0zm45.27 0l-43.63 95.91c10.81,-0.05 23.93,-0.08 38.55,-0.1l43.73 -95.82 -38.64 0zm1.53 95.81l39.01 -0.02 43.38 -95.79 -38.66 0 -43.73 95.81zm45.63 -0.02l38.59 0.02 43.42 -95.82 -38.64 0 -43.38 95.79zm45.21 0.03l38.68 0.05 43.4 -95.88 -38.65 0.01 -43.42 95.82zm45.29 0.07l38.7 0.05c13.02,-28.49 25.81,-58.76 39.7,-86.54 2.65,-5.42 3.53,-7.89 2.88,-8.47 -1.06,-0.94 -5.2,-0.94 -11.76,-0.94l-26.12 0 -43.4 95.89zm-186.87 74.27l-0.14 0.03c-3.12,0.57 -5.95,2.31 -7.79,4.86 -1.65,2.29 -2.5,5.26 -2,8.65 0.82,5.42 4.44,8.54 8.6,9.52 1.7,0.39 3.48,0.45 5.2,0.18 1.7,-0.27 3.38,-0.87 4.81,-1.78 3.48,-2.19 5.78,-6.26 4.76,-12.03l-0.02 -0.11c-0.5,-2.68 -2.25,-5.3 -4.67,-7.1 -2.4,-1.79 -5.51,-2.77 -8.75,-2.22zm-3.59 31.72c-7.25,-1.68 -13.56,-7.11 -15.08,-16.85 -1.52,-9.68 2.8,-16.7 9.12,-20.48 2.45,-1.46 5.22,-2.45 8.07,-2.89 2.84,-0.45 5.79,-0.37 8.57,0.25 7.24,1.63 13.57,6.97 15.09,16.51 1.58,9.82 -2.74,16.97 -9.09,20.81 -2.45,1.47 -5.23,2.46 -8.09,2.92 -2.85,0.45 -5.81,0.36 -8.59,-0.28zm0.99 -48l-0.26 0.04c-7.37,1.36 -14.15,5.52 -18.54,11.6 -3.95,5.47 -5.97,12.57 -4.77,20.66 1.94,12.97 10.6,20.38 20.54,22.73 4.03,0.94 8.3,1.08 12.39,0.44 4.07,-0.64 8.02,-2.06 11.47,-4.23 8.34,-5.23 13.81,-14.96 11.39,-28.73l-0.04 -0.19c-1.19,-6.47 -5.34,-12.73 -11.15,-17.05 -5.78,-4.29 -13.24,-6.63 -21.04,-5.27zm-8.04 74.19c-16.73,-3.88 -31.32,-16.42 -34.84,-38.95 -3.51,-22.39 6.42,-38.6 21.06,-47.34 5.68,-3.39 12.09,-5.65 18.68,-6.68 6.58,-1.03 13.37,-0.86 19.82,0.59 16.74,3.78 31.35,16.09 34.89,38.15 3.64,22.71 -6.32,39.22 -21.02,48.1 -5.68,3.43 -12.09,5.72 -18.72,6.77 -6.61,1.04 -13.42,0.85 -19.88,-0.65zm141.26 -57.92l-0.14 0.03c-3.12,0.57 -5.95,2.31 -7.79,4.86 -1.65,2.29 -2.5,5.26 -2,8.65 0.82,5.42 4.44,8.54 8.6,9.52 1.7,0.39 3.48,0.45 5.2,0.18 1.7,-0.27 3.38,-0.87 4.81,-1.78 3.48,-2.19 5.78,-6.26 4.76,-12.03l-0.02 -0.11c-0.5,-2.68 -2.25,-5.3 -4.67,-7.1 -2.4,-1.79 -5.51,-2.77 -8.75,-2.22zm-3.59 31.72c-7.25,-1.68 -13.56,-7.11 -15.08,-16.85 -1.52,-9.68 2.8,-16.7 9.12,-20.48 2.45,-1.46 5.22,-2.45 8.07,-2.89 2.84,-0.45 5.79,-0.37 8.57,0.25 7.24,1.63 13.57,6.97 15.09,16.51 1.58,9.82 -2.74,16.97 -9.09,20.81 -2.45,1.47 -5.23,2.46 -8.09,2.92 -2.85,0.45 -5.81,0.36 -8.59,-0.28zm0.99 -48l-0.26 0.04c-7.37,1.36 -14.15,5.52 -18.54,11.6 -3.95,5.47 -5.97,12.57 -4.77,20.66 1.94,12.97 10.6,20.38 20.54,22.73 4.03,0.94 8.3,1.08 12.39,0.44 4.07,-0.64 8.02,-2.06 11.47,-4.23 8.34,-5.23 13.81,-14.96 11.39,-28.73l-0.04 -0.19c-1.19,-6.47 -5.34,-12.73 -11.15,-17.05 -5.78,-4.29 -13.24,-6.63 -21.04,-5.27zm-8.04 74.19c-16.73,-3.88 -31.32,-16.42 -34.84,-38.95 -3.51,-22.39 6.42,-38.6 21.06,-47.34 5.68,-3.39 12.09,-5.65 18.68,-6.68 6.58,-1.03 13.37,-0.86 19.82,0.59 16.74,3.78 31.35,16.09 34.89,38.15 3.64,22.71 -6.32,39.22 -21.02,48.1 -5.68,3.43 -12.09,5.72 -18.72,6.77 -6.61,1.04 -13.42,0.85 -19.88,-0.65zm299 -57.92l-0.14 0.03c-3.12,0.57 -5.95,2.31 -7.79,4.86 -1.65,2.29 -2.5,5.26 -2,8.65 0.82,5.42 4.44,8.54 8.6,9.52 1.7,0.39 3.48,0.45 5.2,0.18 1.7,-0.27 3.38,-0.87 4.81,-1.78 3.48,-2.19 5.78,-6.26 4.76,-12.03l-0.02 -0.11c-0.5,-2.68 -2.25,-5.3 -4.67,-7.1 -2.4,-1.79 -5.51,-2.77 -8.75,-2.22zm-3.59 31.72c-7.25,-1.68 -13.56,-7.11 -15.08,-16.85 -1.52,-9.68 2.8,-16.7 9.12,-20.48 2.45,-1.46 5.22,-2.45 8.07,-2.89 2.84,-0.45 5.79,-0.37 8.57,0.25 7.24,1.63 13.57,6.97 15.09,16.51 1.58,9.82 -2.74,16.97 -9.09,20.81 -2.45,1.47 -5.23,2.46 -8.09,2.92 -2.85,0.45 -5.81,0.36 -8.59,-0.28zm0.99 -48l-0.26 0.04c-7.37,1.36 -14.15,5.52 -18.54,11.6 -3.95,5.47 -5.97,12.57 -4.77,20.66 1.94,12.97 10.6,20.38 20.54,22.73 4.03,0.94 8.3,1.08 12.39,0.44 4.07,-0.64 8.02,-2.06 11.47,-4.23 8.34,-5.23 13.81,-14.96 11.39,-28.73l-0.04 -0.19c-1.19,-6.47 -5.34,-12.73 -11.15,-17.05 -5.78,-4.29 -13.24,-6.63 -21.04,-5.27zm-8.04 74.19c-16.73,-3.88 -31.32,-16.42 -34.84,-38.95 -3.51,-22.39 6.42,-38.6 21.06,-47.34 5.68,-3.39 12.09,-5.65 18.68,-6.68 6.58,-1.03 13.37,-0.86 19.82,0.59 16.74,3.78 31.35,16.09 34.89,38.15 3.64,22.71 -6.32,39.22 -21.02,48.1 -5.68,3.43 -12.09,5.72 -18.72,6.77 -6.61,1.04 -13.42,0.85 -19.88,-0.65zm102.31 -78.05c0,-4.01 1.01,-5.22 4.37,-5.22l36.38 0 0 31.32 -40.75 0 0 -26.11zm-144.14 -27.64l-2.36 -157.37c0,-2.14 7.15,-11.91 8.37,-13.04 1.13,-1.05 4.73,-2.65 6.65,-2.65l99.81 0c15,0 26.66,22.17 32.59,35.38l19.92 44.42c0.38,0.78 0.65,1.2 1.21,2.37 0.86,1.81 0.49,1.14 1.26,3.04 1.06,2.64 2.66,4.56 2.66,5.91l1.31 82.63c0,1.61 -1.44,5.06 -2.03,6.55 -0.85,2.13 -1.39,3.01 -1.74,3.82l-25.2 0c-6.73,0 -8.77,2.16 -8.77,9.29l0 30.05 -20.24 -0.01c-4.43,-27.62 -22.82,-43.98 -43.77,-48.71 -5.94,-1.33 -12.12,-1.81 -18.25,-1.45 -5.33,-0.11 -6.21,-0.1 -12.98,-0.11l-38.43 -0.1zm42.01 -55.8c0,2.5 -0.33,8.58 6.43,8.58l29.31 0c6.7,0 9.53,-14.3 -2.86,-14.3 -7.92,0 -26.68,-1.36 -30.46,1.71 -0.85,0.68 -2.43,2.81 -2.43,4zm61.51 -89.37c7.23,0 14.22,0.4 16.53,5.87l21.63 51.12c1.63,3.44 6.71,15.06 -7.44,14.52l-30.21 0 -0.5 -71.5zm-60.67 0l45.92 0 0 71.5 -45.57 0 -0.34 -71.5zm-154.73 159.39l43.24 0 0 63.03 -43.24 0 0 -63.03zm53.97 0l23.77 0c2.08,0 3.79,1.71 3.79,3.82l0 55.39c0,2.11 -1.7,3.82 -3.79,3.82l-23.77 0 0 -63.03z"/>
 </g>
</svg>
