<?xml version="1.0" encoding="UTF-8"?>
<!DOCTYPE svg PUBLIC "-//W3C//DTD SVG 1.1//EN" "http://www.w3.org/Graphics/SVG/1.1/DTD/svg11.dtd">
<!-- Creator: CorelDRAW 2020 (64-Bit) -->
<svg xmlns="http://www.w3.org/2000/svg" xml:space="preserve" width="12.0584mm" height="3.9956mm" version="1.1" style="shape-rendering:geometricPrecision; text-rendering:geometricPrecision; image-rendering:optimizeQuality; fill-rule:evenodd; clip-rule:evenodd"
viewBox="0 0 837.73 277.59"
 xmlns:xlink="http://www.w3.org/1999/xlink"
 xmlns:xodm="http://www.corel.com/coreldraw/odm/2003">
 <defs>
  <style type="text/css">
   <![CDATA[
    .fil0 {fill:#2B2A29}
   ]]>
  </style>
 </defs>
 <g id="Слой_x0020_1">
  <metadata id="CorelCorpID_0Corel-Layer"/>
  <path class="fil0" d="M418.87 0c231.34,0 418.87,62.14 418.87,138.79 0,76.66 -187.53,138.79 -418.87,138.79 -231.34,0 -418.87,-62.14 -418.87,-138.79 0,-76.66 187.53,-138.79 418.87,-138.79zm-233.37 191.77c11.69,6.44 37.01,15.1 47.17,17.76 0,-16.4 0.22,-33.68 0.22,-50.09 0.15,0 0.32,0 0.47,0 10.98,19.98 21.62,39.37 32.6,59.35 18.86,3.65 41.83,8.07 61.3,9.51 -15.87,-28.35 -36.57,-65.62 -52.45,-93.97 13.51,-25.35 32.01,-59.48 45.52,-84.83 -18.25,2.47 -41.69,6 -58.34,10.23 -9.79,19.26 -18.84,37.08 -28.64,56.35 -0.15,0 -0.32,0 -0.47,0 0,-11.19 -0.39,-37.76 -0.35,-47.41 -14.46,3.03 -35.94,11.99 -47.99,17.91 -0.65,13.69 0.95,77.24 0.95,105.18zm150.98 -144.89c-0.42,53.12 -0.52,121.4 -0.52,183.53 15.25,1.58 31.85,3.11 47.39,3.37l0.51 -118.9 0.48 0 27.26 118.96 3.55 0 28.41 -118.96 0.47 0c0,31.03 -0.28,88.31 -0.28,119.34 15.75,-0.53 31.46,-1.2 47.38,-3.04 0,-53.7 0.44,-131.11 0.44,-184.81 -17.1,-1.63 -31.83,-3 -49.4,-2.99l-29.62 118.44 -25.9 -118c-16.33,0.13 -33.32,1.3 -50.17,3.07zm191.37 125.59c-4.11,0 -8.21,0 -12.32,0 -4.18,15.64 -11,41.5 -15.19,57.14 39.03,-2.1 120.9,-16.97 159.73,-40.29 1.44,-5.4 3.03,-11.46 4.48,-16.85 -5.45,0 -10.9,0 -16.35,0 -10.87,-34.25 -22.28,-69.67 -33.15,-103.92 -6.74,-3.24 -33.09,-11.5 -53.4,-13.03 -12.24,42.09 -20.1,76 -33.79,116.95zm49.04 0c3.63,-13.58 7.27,-27.16 10.91,-40.74 0.07,0 0.15,0 0.22,0 3.88,13.57 7.75,27.16 11.62,40.74 -7.59,0 -15.17,0 -22.75,0zm-483.44 -33.67c0,-61.11 145.73,-110.66 325.42,-110.66 179.69,0 325.42,49.55 325.42,110.66 0,61.1 -145.73,110.66 -325.42,110.66 -179.69,0 -325.42,-49.56 -325.42,-110.66zm325.42 -120.04c-195.23,0 -353.55,53.75 -353.55,120.04 0,66.28 158.32,120.04 353.55,120.04 195.23,0 353.55,-53.75 353.55,-120.04 0,-66.28 -158.32,-120.04 -353.55,-120.04z"/>
 </g>
</svg>
