<?xml version="1.0" encoding="UTF-8"?>
<!DOCTYPE svg PUBLIC "-//W3C//DTD SVG 1.1//EN" "http://www.w3.org/Graphics/SVG/1.1/DTD/svg11.dtd">
<!-- Creator: CorelDRAW 2020 (64-Bit) -->
<svg xmlns="http://www.w3.org/2000/svg" xml:space="preserve" width="9.3872mm" height="5.3103mm" version="1.1" style="shape-rendering:geometricPrecision; text-rendering:geometricPrecision; image-rendering:optimizeQuality; fill-rule:evenodd; clip-rule:evenodd"
viewBox="0 0 439.98 248.89"
 xmlns:xlink="http://www.w3.org/1999/xlink"
 xmlns:xodm="http://www.corel.com/coreldraw/odm/2003">
 <defs>
  <style type="text/css">
   <![CDATA[
    .fil0 {fill:#2B2A29}
   ]]>
  </style>
 </defs>
 <g id="Слой_x0020_1">
  <metadata id="CorelCorpID_0Corel-Layer"/>
  <path class="fil0" d="M36.68 66.69l366.63 0 0 -27.1c0,-8.62 -7.05,-15.67 -15.67,-15.67l-335.28 0c-8.62,0 -15.67,7.05 -15.67,15.67l0 27.1zm-5.51 179.1l0 0c5.64,0 10.25,-4.62 10.25,-10.25l0 -6.22 -20.5 0 0 6.22c0,5.62 4.61,10.25 10.25,10.25zm377.7 0l0 0c5.64,0 10.25,-4.62 10.25,-10.25l0 -6.22 -20.5 0 0 6.22c0,5.62 4.61,10.25 10.25,10.25zm-86.29 3.1l23.34 0c5.64,0 10.25,-4.62 10.25,-10.25l0 -9.32 -43.84 0 0 9.32c0,5.63 4.61,10.25 10.25,10.25zm-229.42 0l23.34 0c5.64,0 10.25,-4.62 10.25,-10.25l0 -9.32 -43.84 0 0 9.32c0,5.63 4.61,10.25 10.25,10.25zm191.86 -248.89l32.56 0c5.64,0 10.25,4.62 10.25,10.25l0 9.32 -53.06 0 0 -9.32c0,-5.63 4.61,-10.25 10.25,-10.25zm-81.3 0l32.56 0c5.64,0 10.25,4.62 10.25,10.25l0 9.32 -53.06 0 0 -9.32c0,-5.63 4.61,-10.25 10.25,-10.25zm-81.3 0l32.56 0c5.64,0 10.25,4.62 10.25,10.25l0 9.32 -53.06 0 0 -9.32c0,-5.63 4.61,-10.25 10.25,-10.25zm303.59 71.15l-412.01 0c-7.69,0 -13.98,6.29 -13.98,13.98l0 125.75c0,7.69 6.29,13.98 13.98,13.98l412.01 0c7.69,0 13.98,-6.29 13.98,-13.98l0 -125.75c0,-7.69 -6.29,-13.98 -13.98,-13.98zm-358.31 42.49c19.08,0 34.54,15.46 34.54,34.54 0,19.08 -15.46,34.54 -34.54,34.54 -19.08,0 -34.54,-15.46 -34.54,-34.54 0,-19.08 15.46,-34.54 34.54,-34.54zm101.75 0c19.08,0 34.54,15.46 34.54,34.54 0,19.08 -15.46,34.54 -34.54,34.54 -19.08,0 -34.54,-15.46 -34.54,-34.54 0,-19.08 15.46,-34.54 34.54,-34.54zm101.21 0c19.08,0 34.54,15.46 34.54,34.54 0,19.08 -15.46,34.54 -34.54,34.54 -19.08,0 -34.54,-15.46 -34.54,-34.54 0,-19.08 15.46,-34.54 34.54,-34.54zm101.59 0c19.08,0 34.54,15.46 34.54,34.54 0,19.08 -15.46,34.54 -34.54,34.54 -19.08,0 -34.54,-15.46 -34.54,-34.54 0,-19.08 15.46,-34.54 34.54,-34.54zm0.03 -9.32c24.13,0 43.68,19.55 43.68,43.68 0,24.13 -19.55,43.68 -43.68,43.68 -24.13,0 -43.68,-19.55 -43.68,-43.68 0,-24.13 19.55,-43.68 43.68,-43.68zm-101.67 0c24.13,0 43.68,19.55 43.68,43.68 0,24.13 -19.55,43.68 -43.68,43.68 -24.13,0 -43.68,-19.55 -43.68,-43.68 0,-24.13 19.55,-43.68 43.68,-43.68zm-101.21 0c24.13,0 43.68,19.55 43.68,43.68 0,24.13 -19.55,43.68 -43.68,43.68 -24.13,0 -43.68,-19.55 -43.68,-43.68 0,-24.13 19.55,-43.68 43.68,-43.68zm-101.67 0c24.13,0 43.68,19.55 43.68,43.68 0,24.13 -19.55,43.68 -43.68,43.68 -24.13,0 -43.68,-19.55 -43.68,-43.68 0,-24.13 19.55,-43.68 43.68,-43.68zm352.11 88.35c5.44,0 9.85,4.41 9.85,9.85 0,5.44 -4.41,9.85 -9.85,9.85 -5.44,0 -9.85,-4.41 -9.85,-9.85 0,-5.44 4.41,-9.85 9.85,-9.85zm-101.07 0c5.44,0 9.85,4.41 9.85,9.85 0,5.44 -4.41,9.85 -9.85,9.85 -5.44,0 -9.85,-4.41 -9.85,-9.85 0,-5.44 4.41,-9.85 9.85,-9.85zm-98.72 0c5.44,0 9.85,4.41 9.85,9.85 0,5.44 -4.41,9.85 -9.85,9.85 -5.44,0 -9.85,-4.41 -9.85,-9.85 0,-5.44 4.41,-9.85 9.85,-9.85zm-98.77 0c5.44,0 9.85,4.41 9.85,9.85 0,5.44 -4.41,9.85 -9.85,9.85 -5.44,0 -9.85,-4.41 -9.85,-9.85 0,-5.44 4.41,-9.85 9.85,-9.85zm-101.14 0c5.44,0 9.85,4.41 9.85,9.85 0,5.44 -4.41,9.85 -9.85,9.85 -5.44,0 -9.85,-4.41 -9.85,-9.85 0,-5.44 4.41,-9.85 9.85,-9.85zm399.7 -109.03c5.44,0 9.85,4.41 9.85,9.85 0,5.44 -4.41,9.85 -9.85,9.85 -5.44,0 -9.85,-4.41 -9.85,-9.85 0,-5.44 4.41,-9.85 9.85,-9.85zm-101.07 0c5.44,0 9.85,4.41 9.85,9.85 0,5.44 -4.41,9.85 -9.85,9.85 -5.44,0 -9.85,-4.41 -9.85,-9.85 0,-5.44 4.41,-9.85 9.85,-9.85zm-98.72 0c5.44,0 9.85,4.41 9.85,9.85 0,5.44 -4.41,9.85 -9.85,9.85 -5.44,0 -9.85,-4.41 -9.85,-9.85 0,-5.44 4.41,-9.85 9.85,-9.85zm-98.77 0c5.44,0 9.85,4.41 9.85,9.85 0,5.44 -4.41,9.85 -9.85,9.85 -5.44,0 -9.85,-4.41 -9.85,-9.85 0,-5.44 4.41,-9.85 9.85,-9.85zm-101.14 0c5.44,0 9.85,4.41 9.85,9.85 0,5.44 -4.41,9.85 -9.85,9.85 -5.44,0 -9.85,-4.41 -9.85,-9.85 0,-5.44 4.41,-9.85 9.85,-9.85zm98.51 -52.79l29.92 0c3.17,0 6.06,1.3 8.16,3.4 2.11,2.11 3.41,5.01 3.41,8.17l0 5.75c0,3.17 -1.3,6.06 -3.4,8.16 -2.11,2.11 -5.01,3.41 -8.17,3.41l-29.92 0c-3.17,0 -6.06,-1.3 -8.16,-3.4 -2.11,-2.11 -3.41,-5 -3.41,-8.17l0 -5.75c0,-3.16 1.3,-6.06 3.4,-8.16 2.11,-2.11 5.01,-3.41 8.17,-3.41zm29.92 7.03l-29.92 0c-1.26,0 -2.4,0.51 -3.21,1.32 -0.83,0.82 -1.34,1.96 -1.34,3.22l0 5.75c0,1.25 0.51,2.4 1.32,3.21 0.82,0.83 1.96,1.34 3.22,1.34l29.92 0c1.25,0 2.4,-0.51 3.21,-1.32 0.83,-0.82 1.34,-1.97 1.34,-3.22l0 -5.75c0,-1.26 -0.51,-2.4 -1.32,-3.21 -0.82,-0.83 -1.97,-1.34 -3.22,-1.34zm-92.54 -7.03l29.92 0c3.17,0 6.06,1.3 8.16,3.4 2.11,2.11 3.41,5.01 3.41,8.17l0 5.75c0,3.17 -1.3,6.06 -3.4,8.16 -2.11,2.11 -5.01,3.41 -8.17,3.41l-29.92 0c-3.17,0 -6.06,-1.3 -8.16,-3.4 -2.11,-2.11 -3.41,-5 -3.41,-8.17l0 -5.75c0,-3.16 1.3,-6.06 3.4,-8.16 2.11,-2.11 5.01,-3.41 8.17,-3.41zm29.92 7.03l-29.92 0c-1.26,0 -2.4,0.51 -3.21,1.32 -0.83,0.82 -1.34,1.96 -1.34,3.22l0 5.75c0,1.25 0.51,2.4 1.32,3.21 0.82,0.83 1.96,1.34 3.22,1.34l29.92 0c1.25,0 2.4,-0.51 3.21,-1.32 0.83,-0.82 1.34,-1.97 1.34,-3.22l0 -5.75c0,-1.26 -0.51,-2.4 -1.32,-3.21 -0.82,-0.83 -1.97,-1.34 -3.22,-1.34zm268.03 -7.03l29.92 0c3.17,0 6.06,1.3 8.16,3.4 2.11,2.11 3.41,5.01 3.41,8.17l0 5.75c0,3.17 -1.3,6.06 -3.4,8.16 -2.11,2.11 -5.01,3.41 -8.17,3.41l-29.92 0c-3.17,0 -6.06,-1.3 -8.16,-3.4 -2.11,-2.11 -3.41,-5 -3.41,-8.17l0 -5.75c0,-3.16 1.3,-6.06 3.4,-8.16 2.11,-2.11 5.01,-3.41 8.17,-3.41zm29.92 7.03l-29.92 0c-1.26,0 -2.4,0.51 -3.21,1.32 -0.83,0.82 -1.34,1.96 -1.34,3.22l0 5.75c0,1.25 0.51,2.4 1.32,3.21 0.82,0.83 1.96,1.34 3.22,1.34l29.92 0c1.25,0 2.4,-0.51 3.21,-1.32 0.83,-0.82 1.34,-1.97 1.34,-3.22l0 -5.75c0,-1.26 -0.51,-2.4 -1.32,-3.21 -0.82,-0.83 -1.97,-1.34 -3.22,-1.34zm-92.54 -7.03l29.92 0c3.17,0 6.06,1.3 8.16,3.4 2.11,2.11 3.41,5.01 3.41,8.17l0 5.75c0,3.17 -1.3,6.06 -3.4,8.16 -2.11,2.11 -5.01,3.41 -8.17,3.41l-29.92 0c-3.17,0 -6.06,-1.3 -8.16,-3.4 -2.11,-2.11 -3.41,-5 -3.41,-8.17l0 -5.75c0,-3.16 1.3,-6.06 3.4,-8.16 2.11,-2.11 5.01,-3.41 8.17,-3.41zm29.92 7.03l-29.92 0c-1.26,0 -2.4,0.51 -3.21,1.32 -0.83,0.82 -1.34,1.96 -1.34,3.22l0 5.75c0,1.25 0.51,2.4 1.32,3.21 0.82,0.83 1.96,1.34 3.22,1.34l29.92 0c1.25,0 2.4,-0.51 3.21,-1.32 0.83,-0.82 1.34,-1.97 1.34,-3.22l0 -5.75c0,-1.26 -0.51,-2.4 -1.32,-3.21 -0.82,-0.83 -1.97,-1.34 -3.22,-1.34zm-92.54 -7.03l29.92 0c3.17,0 6.06,1.3 8.16,3.4 2.11,2.11 3.41,5.01 3.41,8.17l0 5.75c0,3.17 -1.3,6.06 -3.4,8.16 -2.11,2.11 -5.01,3.41 -8.17,3.41l-29.92 0c-3.17,0 -6.06,-1.3 -8.16,-3.4 -2.11,-2.11 -3.41,-5 -3.41,-8.17l0 -5.75c0,-3.16 1.3,-6.06 3.4,-8.16 2.11,-2.11 5.01,-3.41 8.17,-3.41zm29.92 7.03l-29.92 0c-1.26,0 -2.4,0.51 -3.21,1.32 -0.83,0.82 -1.34,1.96 -1.34,3.22l0 5.75c0,1.25 0.51,2.4 1.32,3.21 0.82,0.83 1.96,1.34 3.22,1.34l29.92 0c1.25,0 2.4,-0.51 3.21,-1.32 0.83,-0.82 1.34,-1.97 1.34,-3.22l0 -5.75c0,-1.26 -0.51,-2.4 -1.32,-3.21 -0.82,-0.83 -1.97,-1.34 -3.22,-1.34z"/>
 </g>
</svg>
