<?xml version="1.0" encoding="UTF-8"?>
<!DOCTYPE svg PUBLIC "-//W3C//DTD SVG 1.1//EN" "http://www.w3.org/Graphics/SVG/1.1/DTD/svg11.dtd">
<!-- Creator: CorelDRAW 2020 (64-Bit) -->
<svg xmlns="http://www.w3.org/2000/svg" xml:space="preserve" width="9.9381mm" height="4.1307mm" version="1.1" style="shape-rendering:geometricPrecision; text-rendering:geometricPrecision; image-rendering:optimizeQuality; fill-rule:evenodd; clip-rule:evenodd"
viewBox="0 0 506.43 210.5"
 xmlns:xlink="http://www.w3.org/1999/xlink"
 xmlns:xodm="http://www.corel.com/coreldraw/odm/2003">
 <defs>
  <style type="text/css">
   <![CDATA[
    .fil0 {fill:#2B2A29}
   ]]>
  </style>
 </defs>
 <g id="Слой_x0020_1">
  <metadata id="CorelCorpID_0Corel-Layer"/>
  <path class="fil0" d="M289.27 174.76l75.62 -0.01 0 -17.24 -75.62 0 0 17.25zm125.99 -30.17l-0.23 0.04c-6.43,1.19 -12.35,4.82 -16.18,10.12 -3.44,4.77 -5.21,10.98 -4.16,18.03 1.69,11.32 9.25,17.8 17.93,19.84 3.52,0.82 7.24,0.94 10.82,0.38 3.55,-0.56 7,-1.8 10.01,-3.69 7.28,-4.57 12.06,-13.06 9.95,-25.08l-0.03 -0.16c-1.04,-5.65 -4.67,-11.12 -9.74,-14.89 -5.05,-3.75 -11.55,-5.79 -18.37,-4.6zm-7.02 64.77c-14.6,-3.38 -27.34,-14.33 -30.41,-34 -3.06,-19.54 5.61,-33.7 18.39,-41.33 4.96,-2.96 10.55,-4.93 16.31,-5.84 5.74,-0.9 11.67,-0.74 17.3,0.52 14.61,3.3 27.36,14.04 30.46,33.31 3.18,19.82 -5.52,34.23 -18.35,41.99 -4.95,2.99 -10.56,4.99 -16.34,5.91 -5.77,0.91 -11.72,0.74 -17.36,-0.56zm9.28 -50.56l-0.11 0.03c-2.72,0.49 -5.2,2.02 -6.81,4.24 -1.44,2 -2.19,4.59 -1.75,7.55 0.71,4.73 3.88,7.46 7.52,8.31 1.48,0.34 3.04,0.39 4.54,0.16 1.49,-0.23 2.95,-0.76 4.2,-1.54 3.04,-1.91 5.04,-5.47 4.16,-10.51l-0.02 -0.1c-0.43,-2.34 -1.96,-4.63 -4.08,-6.2 -2.1,-1.56 -4.82,-2.42 -7.65,-1.94zm-3.13 27.7c-6.32,-1.47 -11.83,-6.21 -13.16,-14.71 -1.32,-8.45 2.45,-14.58 7.96,-17.88 2.14,-1.27 4.56,-2.14 7.04,-2.52 2.48,-0.39 5.06,-0.32 7.49,0.22 6.32,1.42 11.84,6.08 13.18,14.41 1.38,8.57 -2.38,14.81 -7.93,18.17 -2.15,1.29 -4.57,2.16 -7.07,2.55 -2.49,0.4 -5.07,0.32 -7.5,-0.24zm-247.44 -65.48l22.54 0 0 57.69 -22.54 0c-1.78,0 -3.24,-1.57 -3.24,-3.5l0 -50.69c0,-1.92 1.46,-3.49 3.24,-3.49zm27.46 0l16.04 0 0 7.65c0,0.93 0.75,1.69 1.68,1.69l5.73 0c0.94,0 1.69,-0.75 1.69,-1.69l0 -7.65 16.12 0 0 57.69 -41.26 0 0 -57.69zm46.18 0l22.45 0c1.78,0 3.24,1.57 3.24,3.49l0 50.69c0,1.92 -1.46,3.5 -3.24,3.5l-22.45 0 0 -57.69zm-165.67 23.57l-0.23 0.04c-6.43,1.19 -12.35,4.82 -16.18,10.12 -3.44,4.77 -5.21,10.98 -4.16,18.03 1.69,11.32 9.25,17.8 17.93,19.84 3.52,0.82 7.24,0.94 10.82,0.38 3.55,-0.56 7,-1.8 10.01,-3.69 7.28,-4.57 12.06,-13.06 9.95,-25.08l-0.03 -0.16c-1.04,-5.65 -4.67,-11.12 -9.74,-14.89 -5.05,-3.75 -11.55,-5.79 -18.37,-4.6zm-7.02 64.77c-14.6,-3.38 -27.34,-14.33 -30.41,-34 -3.06,-19.54 5.61,-33.7 18.39,-41.33 4.96,-2.96 10.55,-4.93 16.31,-5.84 5.74,-0.9 11.67,-0.74 17.3,0.52 14.61,3.3 27.36,14.04 30.46,33.31 3.18,19.82 -5.52,34.23 -18.35,41.99 -4.95,2.99 -10.56,4.99 -16.34,5.91 -5.77,0.91 -11.72,0.74 -17.36,-0.56zm9.28 -50.56l-0.11 0.03c-2.72,0.49 -5.2,2.02 -6.81,4.24 -1.44,2 -2.19,4.59 -1.75,7.55 0.71,4.73 3.88,7.46 7.52,8.31 1.48,0.34 3.04,0.39 4.54,0.16 1.49,-0.23 2.95,-0.76 4.2,-1.54 3.04,-1.91 5.04,-5.47 4.16,-10.51l-0.02 -0.1c-0.43,-2.34 -1.96,-4.63 -4.08,-6.2 -2.1,-1.56 -4.82,-2.42 -7.65,-1.94zm-3.13 27.7c-6.32,-1.47 -11.83,-6.21 -13.16,-14.71 -1.32,-8.45 2.45,-14.58 7.96,-17.88 2.14,-1.27 4.56,-2.14 7.04,-2.52 2.48,-0.39 5.06,-0.32 7.49,0.22 6.32,1.42 11.84,6.08 13.18,14.41 1.38,8.57 -2.38,14.81 -7.93,18.17 -2.15,1.29 -4.57,2.16 -7.07,2.55 -2.49,0.4 -5.07,0.32 -7.5,-0.24zm323.21 -127.87l-5.81 -11.68c-2.91,-5.91 -10.58,-23.08 -15.95,-33.92 -2,-4.04 -4.07,-5.66 -4.54,-5.96 -2.22,2.69 -5.61,6.56 -7.37,8.79 -0.91,1.15 -1.25,1.49 -1.28,3.04 -0.07,3.08 1.96,6.81 3.39,10.55l9.86 21.57c3.75,8.54 14.2,6.35 21.71,7.63zm67.17 84.99l2.36 -0.04c2.54,-0.09 3.8,0.4 3.86,-1.91 -0.02,-1.92 -0.04,-3.31 -0.04,-5.11l0.03 -21.27c0.01,-5.45 -3.49,-6.41 -8.95,-6.41l-69.5 0c-4.11,0 -4.7,0.69 -7.75,3.84 -5.69,7.1 -10.5,13.43 -15,21.69 -0.3,0.72 -0.23,0.35 -0.29,1.58l0.07 17.9c3.4,-12.45 11.47,-21.91 21.66,-28 6.12,-3.65 13,-6.07 20.1,-7.2 7.07,-1.11 14.38,-0.92 21.31,0.64 13.2,2.98 25.17,10.9 32.12,24.27zm-301.58 -26.72c-1.94,0 -3.52,1.79 -3.52,3.98l0 18.73c-11.57,-0.17 -22.06,-0.06 -33.36,-0.06 -1.19,0 -2.46,0.11 -3.68,0.11 -7.19,-11.22 -18.19,-18 -30.21,-20.71 -6.99,-1.57 -14.36,-1.76 -21.48,-0.65 -7.15,1.13 -14.09,3.58 -20.26,7.25 -6.2,3.7 -11.61,8.63 -15.69,14.72l-0.98 0.01c-6.57,-0.03 -7.74,-5.65 -13.01,-7.36 0.34,5.62 0.7,20.92 0.06,26.09 -0.75,6.04 -11.02,3.36 -15.89,3.72 -5.37,0.39 -4.71,-2.58 -4.71,-4.22l-0.12 -54.95c0.17,-0.7 0.45,-1.34 0.89,-1.84 0.93,-1.08 0.98,-0.89 1.95,-1.21 88.79,-0.11 179.74,0.31 266.98,-0.22l0.18 18.29c-0.64,-1.01 -1.68,-1.68 -2.86,-1.68l-47.59 0 0 -9.98c0,-0.94 -0.75,-1.69 -1.69,-1.69l-5.73 0c-0.93,0 -1.68,0.75 -1.68,1.69l0 9.98 -47.6 0zm310.66 33.64c0.69,-0.24 2.9,-0.36 5.48,-0.4 4.02,-0.06 9.1,0.04 10.44,0.1l16.9 -0.31 0.07 7.8c0.05,2.64 0.08,4.09 -0.14,4.98 -0.46,1.88 -1.29,1.84 -3.07,1.78 -4.62,-0.09 -9.34,0.01 -13.98,0 -1.95,0.01 -3.83,0.02 -5.58,-0.06 -2.14,-0.09 -3.28,-0.06 -4.29,-0.03 -1.38,0.04 -2.59,0.07 -5.51,-0.17l-1.17 -0.1 0 -13.28 0.85 -0.31zm-178.92 -70.04l0 -5.1c0,-0.83 0.67,-1.51 1.5,-1.51l16.83 0c0.83,0 1.51,0.68 1.51,1.51l0 5.1c0,0.83 -0.68,1.51 -1.51,1.51l-16.83 0c-0.83,0 -1.5,-0.68 -1.5,-1.51zm70.29 68.45l0 -16.19 -75.62 0 0 16.19 75.62 0zm0 -21.34c2.6,-4.77 12.41,-16.22 17.86,-22.88 2.34,-2.87 2.8,-3.8 6.92,-3.74l68.09 0c2.31,0 5.35,-0.23 7.65,-0.02 4.06,0.38 10.35,2.61 12.2,6.96 0.99,2.45 1.44,3.3 1.44,6.06 3.16,1.3 5.58,3.47 6.52,7.02 1.75,5.37 -1.1,16.49 -6.52,16.94l0 5.62c1.43,0.59 5.52,0.26 7.27,0.25l6.12 0c2.22,-0.3 2.59,-6.59 2.59,-8.21l0.15 -45.67c-0.31,-3.37 -0.71,-7.45 -7.62,-10.27 -3.98,-1.73 -9.56,-3.82 -13.78,-5.06 -15.05,-4.03 -32.52,-6.6 -45.13,-8.23 -5.95,-0.64 -10.5,-1.2 -24.21,-2.43 -14.2,-0.55 -28.83,-0.89 -32.64,-11.1 -2.55,-5.15 -1.47,-3.44 -3.92,-8.58l-9.01 -21.2c-1.72,-5.11 -0.84,-7.12 2.2,-11.28 2.45,-3.38 3.23,-4.43 6.72,-7.41 -5.07,-3.79 -12.54,-4 -15.73,-4 -7.78,0 -46.51,-0.7 -61.17,-0.26 -14.9,0.43 -16.45,4.36 -16.53,20.16l0.3 107.29 14.63 0 75.62 0zm27.45 -39.63c-1.5,0.71 -1.65,-0.55 -1.86,1.37 -0.39,3.51 2.55,2.54 8.57,2.54l89.63 -0.18c0.92,-0.44 1.58,-2.72 0.22,-3.47 -1.61,-0.88 -5.4,-0.51 -7.17,-0.51l-89.39 0.25zm-103.03 -73.45l55.5 0c1.84,0 2.59,1.59 2.77,2.17l14.03 35.97c0.35,1.19 1.43,3.46 2.01,4.84 0.28,0.69 0.43,1.79 0.57,4.94l0.12 51.17c0.01,2.75 4.12,2.79 4.1,-0.08l-0.04 -46.97c0,-3.62 0.66,-7.51 -0.98,-10.59l-16.54 -42.77c-0.94,-2.45 -2.18,-2.56 -4.34,-2.62 -18.12,-0.5 -36.88,-0.22 -55.16,-0.38 -6.52,-0.05 -6.12,1.06 -6.12,6.4l0.23 103.42c0.03,3.35 4.12,3.41 4.08,0.01l-0.23 -105.5zm55.59 15.82l0 27.91 0 1.16 -0.63 0.45c-0.15,0.16 -0.32,0.29 -0.5,0.4 -0.81,0.68 -0.35,0.38 -4.39,0.34l-0.28 0 -1.24 0 -0.35 0 -0.06 0 -0.06 0c-0.94,0.03 -2.02,0.29 -3.02,-0.01 -1.22,-0.1 -2.17,-1.1 -2.17,-2.34l0 -30.69c0,-1.3 1.05,-2.35 2.36,-2.35l7.99 0c0.31,0 0.59,0.06 0.86,0.16 -0.1,-4.45 -3.23,-6.15 -6.08,-6.09 -4.92,0.12 -23.73,0.01 -34.51,0.01 -7.48,-0.01 -8.16,0.13 -8.16,9.15l0.01 26.27c0,4.18 0.12,7.31 5.83,7.31l48.51 -0.19c2.14,-0.01 4.2,-0.85 3.64,-3.44l-7.75 -28.03z"/>
 </g>
</svg>
