<?xml version="1.0" encoding="UTF-8"?>
<!DOCTYPE svg PUBLIC "-//W3C//DTD SVG 1.1//EN" "http://www.w3.org/Graphics/SVG/1.1/DTD/svg11.dtd">
<!-- Creator: CorelDRAW 2020 (64-Bit) -->
<svg xmlns="http://www.w3.org/2000/svg" xml:space="preserve" width="10.5593mm" height="4.6381mm" version="1.1" style="shape-rendering:geometricPrecision; text-rendering:geometricPrecision; image-rendering:optimizeQuality; fill-rule:evenodd; clip-rule:evenodd"
viewBox="0 0 591.31 259.73"
 xmlns:xlink="http://www.w3.org/1999/xlink"
 xmlns:xodm="http://www.corel.com/coreldraw/odm/2003">
 <defs>
  <style type="text/css">
   <![CDATA[
    .fil0 {fill:#2B2A29}
   ]]>
  </style>
 </defs>
 <g id="Слой_x0020_1">
  <metadata id="CorelCorpID_0Corel-Layer"/>
  <path class="fil0" d="M284.07 173.69l22.05 0 0 58.46 -22.05 0c-1.93,0 -3.51,-1.59 -3.51,-3.54l0 -51.37c0,-1.95 1.58,-3.54 3.51,-3.54zm53.43 -51.86l39.95 0c-3.14,4.03 -5.01,9.1 -5.01,14.6 0,4.12 1.05,7.99 2.89,11.37l5.85 0c-2.47,-3.12 -3.95,-7.07 -3.95,-11.37 0,-10.12 8.2,-18.33 18.33,-18.33 10.12,0 18.33,8.2 18.33,18.33 0,4.3 -1.48,8.25 -3.96,11.38 5.31,0.27 9.58,4.7 9.58,10.07l0 58.36c0,5.55 -4.54,10.09 -10.09,10.09l-11.26 0 0 -54.34c0,-2.21 -1.81,-4.02 -4.02,-4.02l-116.04 0c-2.21,0 -4.02,1.81 -4.02,4.02l0 54.34 -19.31 0c1.02,-5.99 1.08,-12.56 -0.07,-19.67 -3.98,-24.75 -20.36,-38.56 -39.14,-42.79 -7.23,-1.62 -14.86,-1.82 -22.23,-0.66 -7.4,1.16 -14.58,3.7 -20.95,7.5 -16.42,9.81 -27.56,27.99 -23.62,53.1 0.13,0.86 0.29,1.7 0.45,2.53l-14.64 0c1.02,-5.99 1.08,-12.56 -0.07,-19.67 -3.98,-24.75 -20.36,-38.56 -39.14,-42.79 -7.23,-1.62 -14.86,-1.82 -22.23,-0.66 -7.4,1.16 -14.58,3.7 -20.95,7.5 -9.17,5.48 -16.69,13.58 -20.87,24.03l0 -12.61 -18.52 18.13 0 8.83c0,3.51 -2.87,6.38 -6.39,6.38l-0.01 0c-3.52,0 -6.39,-2.87 -6.39,-6.38l0 -28.72c0,-3.51 2.87,-6.38 6.39,-6.38l0.01 0c3.52,0 6.39,2.87 6.39,6.38l0 1.56 18.52 -18.13 0 -5.9c0,-5.55 4.54,-10.09 10.09,-10.09l292.59 0 0 -22.43c0,-1.95 1.58,-3.54 3.51,-3.54zm-257.59 82.98l-0.13 0.03c-2.89,0.53 -5.52,2.14 -7.23,4.51 -1.53,2.12 -2.32,4.88 -1.85,8.02 0.76,5.03 4.12,7.92 7.98,8.83 1.58,0.36 3.23,0.41 4.82,0.17 1.58,-0.25 3.13,-0.81 4.46,-1.65 3.23,-2.03 5.36,-5.81 4.42,-11.16l-0.02 -0.11c-0.46,-2.49 -2.08,-4.92 -4.33,-6.59 -2.23,-1.66 -5.11,-2.57 -8.12,-2.06zm-3.33 29.42c-6.72,-1.56 -12.57,-6.59 -13.98,-15.63 -1.41,-8.98 2.6,-15.49 8.46,-18.99 2.27,-1.35 4.84,-2.27 7.48,-2.68 2.63,-0.42 5.37,-0.34 7.95,0.24 6.71,1.51 12.58,6.46 14,15.31 1.47,9.11 -2.54,15.74 -8.43,19.3 -2.27,1.37 -4.86,2.28 -7.5,2.71 -2.64,0.42 -5.39,0.34 -7.97,-0.26zm0.92 -44.52l-0.24 0.04c-6.84,1.27 -13.13,5.12 -17.19,10.76 -3.66,5.07 -5.54,11.66 -4.42,19.16 1.8,12.03 9.83,18.91 19.05,21.08 3.74,0.87 7.69,1 11.49,0.41 3.77,-0.59 7.44,-1.92 10.64,-3.93 7.73,-4.85 12.81,-13.87 10.57,-26.64l-0.03 -0.17c-1.1,-6 -4.96,-11.81 -10.34,-15.81 -5.36,-3.98 -12.28,-6.15 -19.52,-4.88zm-7.46 68.81c-15.52,-3.6 -29.05,-15.23 -32.31,-36.13 -3.25,-20.76 5.96,-35.8 19.53,-43.91 5.27,-3.14 11.21,-5.24 17.33,-6.2 6.1,-0.96 12.4,-0.8 18.38,0.55 15.52,3.51 29.07,14.92 32.36,35.39 3.38,21.07 -5.86,36.37 -19.49,44.61 -5.26,3.18 -11.22,5.31 -17.36,6.28 -6.13,0.96 -12.45,0.78 -18.44,-0.6zm131.02 -53.71l-0.13 0.03c-2.89,0.53 -5.52,2.14 -7.23,4.51 -1.53,2.12 -2.32,4.88 -1.85,8.02 0.76,5.03 4.12,7.92 7.98,8.83 1.58,0.36 3.23,0.41 4.82,0.17 1.58,-0.25 3.13,-0.81 4.46,-1.65 3.23,-2.03 5.36,-5.81 4.42,-11.16l-0.02 -0.11c-0.46,-2.49 -2.08,-4.92 -4.33,-6.59 -2.23,-1.66 -5.11,-2.57 -8.12,-2.06zm-3.33 29.42c-6.72,-1.56 -12.57,-6.59 -13.98,-15.63 -1.41,-8.98 2.6,-15.49 8.46,-18.99 2.27,-1.35 4.84,-2.27 7.48,-2.68 2.63,-0.42 5.37,-0.34 7.95,0.24 6.71,1.51 12.58,6.46 14,15.31 1.47,9.11 -2.54,15.74 -8.43,19.3 -2.27,1.37 -4.86,2.28 -7.5,2.71 -2.64,0.42 -5.39,0.34 -7.97,-0.26zm0.92 -44.52l-0.24 0.04c-6.84,1.27 -13.13,5.12 -17.19,10.76 -3.66,5.07 -5.54,11.66 -4.42,19.16 1.8,12.03 9.83,18.91 19.05,21.08 3.74,0.87 7.69,1 11.49,0.41 3.77,-0.59 7.44,-1.92 10.64,-3.93 7.73,-4.85 12.81,-13.87 10.57,-26.64l-0.03 -0.17c-1.1,-6 -4.96,-11.81 -10.34,-15.81 -5.36,-3.98 -12.28,-6.15 -19.52,-4.88zm-7.46 68.81c-15.52,-3.6 -29.05,-15.23 -32.31,-36.13 -3.25,-20.76 5.96,-35.8 19.53,-43.91 5.27,-3.14 11.21,-5.24 17.33,-6.2 6.1,-0.96 12.4,-0.8 18.38,0.55 15.52,3.51 29.07,14.92 32.36,35.39 3.38,21.07 -5.86,36.37 -19.49,44.61 -5.26,3.18 -11.22,5.31 -17.36,6.28 -6.13,0.96 -12.45,0.78 -18.44,-0.6zm277.31 -53.71l-0.13 0.03c-2.89,0.53 -5.52,2.14 -7.23,4.51 -1.53,2.12 -2.32,4.88 -1.85,8.02 0.76,5.03 4.12,7.92 7.98,8.83 1.58,0.36 3.23,0.41 4.82,0.17 1.58,-0.25 3.13,-0.81 4.46,-1.65 3.23,-2.03 5.36,-5.81 4.42,-11.16l-0.02 -0.11c-0.46,-2.49 -2.08,-4.92 -4.33,-6.59 -2.23,-1.66 -5.11,-2.57 -8.12,-2.06zm-3.33 29.42c-6.72,-1.56 -12.57,-6.59 -13.98,-15.63 -1.41,-8.98 2.6,-15.49 8.46,-18.99 2.27,-1.35 4.84,-2.27 7.48,-2.68 2.63,-0.42 5.37,-0.34 7.95,0.24 6.71,1.51 12.58,6.46 14,15.31 1.47,9.11 -2.54,15.74 -8.43,19.3 -2.27,1.37 -4.86,2.28 -7.5,2.71 -2.64,0.42 -5.39,0.34 -7.97,-0.26zm0.92 -44.52l-0.24 0.04c-6.84,1.27 -13.13,5.12 -17.19,10.76 -3.66,5.07 -5.54,11.66 -4.42,19.16 1.8,12.03 9.83,18.91 19.05,21.08 3.74,0.87 7.69,1 11.49,0.41 3.77,-0.59 7.44,-1.92 10.64,-3.93 7.73,-4.85 12.81,-13.87 10.57,-26.64l-0.03 -0.17c-1.1,-6 -4.96,-11.81 -10.34,-15.81 -5.36,-3.98 -12.28,-6.15 -19.52,-4.88zm-7.46 68.81c-15.52,-3.6 -29.05,-15.23 -32.31,-36.13 -3.25,-20.76 5.96,-35.8 19.53,-43.91 5.27,-3.14 11.21,-5.24 17.33,-6.2 6.1,-0.96 12.4,-0.8 18.38,0.55 15.52,3.51 29.07,14.92 32.36,35.39 3.38,21.07 -5.86,36.37 -19.49,44.61 -5.26,3.18 -11.22,5.31 -17.36,6.28 -6.13,0.96 -12.45,0.78 -18.44,-0.6zm94.89 -72.39c0,-3.72 0.94,-4.84 4.05,-4.84l33.75 0 0 29.05 -37.79 0 0 -24.21zm-133.68 -25.63l-2.19 -145.95c0,-1.99 6.63,-11.04 7.76,-12.1 1.05,-0.97 4.38,-2.46 6.17,-2.46l92.57 0c13.91,0 24.72,20.56 30.22,32.81l18.47 41.2c0.35,0.72 0.6,1.11 1.13,2.2 0.8,1.67 0.45,1.06 1.16,2.82 0.99,2.45 2.47,4.23 2.47,5.48l1.22 76.63c0,1.5 -1.34,4.69 -1.89,6.07 -0.78,1.98 -1.29,2.79 -1.61,3.54l-23.37 0c-6.24,0 -8.13,2 -8.13,8.61l0 27.87 -18.77 -0.01c-4.11,-25.62 -21.17,-40.79 -40.6,-45.18 -5.51,-1.24 -11.24,-1.67 -16.92,-1.34 -4.94,-0.1 -5.76,-0.09 -12.03,-0.11l-35.64 -0.09zm38.96 -51.75c0,2.32 -0.31,7.96 5.96,7.96l27.19 0c6.22,0 8.84,-13.26 -2.65,-13.26 -7.35,0 -24.75,-1.26 -28.25,1.59 -0.78,0.63 -2.25,2.61 -2.25,3.71zm57.05 -82.89c6.7,0 13.19,0.37 15.33,5.44l20.06 47.41c1.51,3.19 6.23,13.97 -6.9,13.46l-28.02 0 -0.46 -66.31zm-56.27 0l42.59 0 0 66.31 -42.27 0 -0.32 -66.31zm-143.5 147.83l40.1 0 0 58.46 -40.1 0 0 -58.46zm50.06 0l22.05 0c1.93,0 3.51,1.59 3.51,3.54l0 51.37c0,1.95 -1.58,3.54 -3.51,3.54l-22.05 0 0 -58.46z"/>
 </g>
</svg>
