<?xml version="1.0" encoding="UTF-8"?>
<!DOCTYPE svg PUBLIC "-//W3C//DTD SVG 1.1//EN" "http://www.w3.org/Graphics/SVG/1.1/DTD/svg11.dtd">
<!-- Creator: CorelDRAW 2020 (64-Bit) -->
<svg xmlns="http://www.w3.org/2000/svg" xml:space="preserve" width="7.3011mm" height="6.0604mm" version="1.1" style="shape-rendering:geometricPrecision; text-rendering:geometricPrecision; image-rendering:optimizeQuality; fill-rule:evenodd; clip-rule:evenodd"
viewBox="0 0 241.05 200.08"
 xmlns:xlink="http://www.w3.org/1999/xlink"
 xmlns:xodm="http://www.corel.com/coreldraw/odm/2003">
 <defs>
  <style type="text/css">
   <![CDATA[
    .fil0 {fill:#2B2A29}
   ]]>
  </style>
 </defs>
 <g id="Слой_x0020_1">
  <metadata id="CorelCorpID_0Corel-Layer"/>
  <path class="fil0" d="M0.92 48.64l13.01 45.84c0.99,3.55 1.4,7.05 5.54,8.07l46.98 11.87c1.77,0.44 6.12,1.7 7.67,1.7 1.67,0 2.75,-0.67 3.93,-1.57l35.96 -36.38c1.7,-1.7 4.31,-4.05 4.31,-7.3 0,-0.71 -0.35,-2.74 -1.16,-5.55l-13.66 -47.04c-1.33,-4.59 -3.71,-4.72 -7.86,-5.76l-46.98 -11.87c-2.87,-0.72 -6.3,-1.42 -8.91,1.23l-37.87 38.37c-2.79,2.74 -1.9,5.15 -0.95,8.39zm48.59 114.08c0,14.66 9.06,27.24 21.74,33.61 5.08,2.55 10.27,3.75 16.24,3.75 2.7,0 4.98,-2.92 6.97,-4.9l18.02 -17.96 -44.48 -34.98c-5.71,5.64 -11.56,11.22 -17.15,16.96 -0.8,0.82 -1.34,2.29 -1.34,3.53zm97.82 -119.94l10.37 10.62 -40.6 40.36 44.48 34.98 36.11 -35.73 11.13 10.49c3.53,2.12 7.37,2.15 11.03,0.3l16.54 -15.69c5.21,-5.21 6.65,-11.26 1.19,-16.99l-58.81 -58.01c-3.57,-2.82 -8.38,-3.03 -12.4,-0.88l-9.88 9.23 -9.33 9.66c-2.28,3.46 -2.07,8.27 0.17,11.67zm-40.85 65.97c0,1.51 0.3,2.54 1.05,3.57 1.01,1.39 7.46,6.15 9.39,7.6l16.92 13.06c0.8,0.61 1.57,1.25 2.39,1.86 0.44,0.33 0.75,0.59 1.2,0.93 2.14,1.59 4.28,3.84 6.91,3.84 4.66,0 7.9,-5.06 5.07,-9.32 -0.6,-0.9 -1.34,-1.44 -2.18,-2.06l-11.98 -9.26c-0.82,-0.67 -1.62,-1.23 -2.48,-1.9 -0.44,-0.34 -0.76,-0.6 -1.2,-0.93l-10.78 -8.34c-0.83,-0.65 -1.6,-1.18 -2.41,-1.84 -2.41,-1.97 -4.87,-4.04 -8.48,-2.41 -1.99,0.9 -3.42,2.94 -3.42,5.2zm-14.12 13.99c0,1.41 0.36,2.41 0.95,3.3 0.83,1.27 2.05,2.07 3.33,3.03 0.45,0.33 0.76,0.6 1.2,0.93 3.51,2.61 7.26,5.7 10.78,8.34l8.46 6.53c2.54,1.9 7.24,5.77 9.59,7.41 4.59,3.21 9.67,-0.47 9.67,-4.3 0,-2.12 -0.25,-2.76 -1.5,-4.37 -0.46,-0.6 -15.8,-12.38 -18.26,-14.22 -2.82,-2.1 -14.39,-11.33 -15.6,-11.89 -2.33,-1.08 -5.56,-0.56 -7.2,1.55 -0.72,0.93 -1.42,2.12 -1.42,3.7zm-14.12 14c0,1.24 0.48,2.48 0.97,3.28 0.54,0.88 1.36,1.5 2.15,2.1l31.44 24.28c3.79,2.84 9.41,-0.26 9.41,-4.41 0,-3.34 -0.96,-4.1 -3.35,-6.02 -2.91,-2.33 -6.79,-5.1 -9.6,-7.39l-21.58 -16.66c-4.35,-2.9 -9.45,0.59 -9.45,4.83zm-19.12 -101.09c12.12,0 22.54,9.7 22.54,22.54 0,8.69 -5.14,15.99 -12.65,19.78 -5.2,2.62 -12.36,2.94 -17.93,0.77 -1.96,-0.77 -3.69,-1.68 -5.36,-2.93 -4.45,-3.34 -7.49,-7.85 -8.62,-13.48 -1.21,-6.07 0.14,-12.31 3.76,-17.3 4.18,-5.78 11.05,-9.37 18.26,-9.37z"/>
 </g>
</svg>
