<?xml version="1.0" encoding="UTF-8"?>
<!DOCTYPE svg PUBLIC "-//W3C//DTD SVG 1.1//EN" "http://www.w3.org/Graphics/SVG/1.1/DTD/svg11.dtd">
<!-- Creator: CorelDRAW 2020 (64-Bit) -->
<svg xmlns="http://www.w3.org/2000/svg" xml:space="preserve" width="7.0001mm" height="8.2854mm" version="1.1" style="shape-rendering:geometricPrecision; text-rendering:geometricPrecision; image-rendering:optimizeQuality; fill-rule:evenodd; clip-rule:evenodd"
viewBox="0 0 6.58 7.78"
 xmlns:xlink="http://www.w3.org/1999/xlink"
 xmlns:xodm="http://www.corel.com/coreldraw/odm/2003">
 <defs>
  <style type="text/css">
   <![CDATA[
    .fil0 {fill:#2B2A29}
   ]]>
  </style>
 </defs>
 <g id="Слой_x0020_1">
  <metadata id="CorelCorpID_0Corel-Layer"/>
  <path class="fil0" d="M2.7 0.56l1.17 0c0.12,0 0.21,0.09 0.21,0.21l0 0.46c0,0.12 -0.09,0.21 -0.21,0.21l-1.17 0c-0.12,0 -0.21,-0.09 -0.21,-0.21l0 -0.46c0,-0.12 0.09,-0.21 0.21,-0.21zm0.59 3.94c0.25,0 0.46,0.21 0.46,0.46 0,0.25 -0.21,0.46 -0.46,0.46 -0.25,0 -0.46,-0.21 -0.46,-0.46 0,-0.25 0.21,-0.46 0.46,-0.46zm0.2 1.78c0.08,0.03 0.15,0.09 0.2,0.16l1.53 0 0 0.69 -1.6 0c-0.09,0.08 -0.21,0.13 -0.34,0.13 -0.13,0 -0.25,-0.05 -0.34,-0.13l-1.6 0 0 -0.69 1.53 0c0.05,-0.07 0.12,-0.12 0.2,-0.16l0 -0.63c-0.3,-0.09 -0.51,-0.36 -0.51,-0.69 0,-0.32 0.22,-0.6 0.51,-0.69l0 -1.59 -0.2 0c-0.09,0 -0.16,-0.07 -0.16,-0.16l0 -0.81 1.13 0 0 0.81c0,0.09 -0.07,0.16 -0.16,0.16l-0.2 0 0 1.59c0.3,0.09 0.51,0.36 0.51,0.69 0,0.32 -0.22,0.6 -0.51,0.69l0 0.63zm-3.18 -0.49l0.43 0c0.17,0 0.32,0.14 0.32,0.32l0 1.36c0,0.17 -0.14,0.32 -0.32,0.32l-0.43 0c-0.17,0 -0.32,-0.14 -0.32,-0.32l0 -1.36c0,-0.17 0.14,-0.32 0.32,-0.32zm5.52 0l0.43 0c0.17,0 0.32,0.14 0.32,0.32l0 1.36c0,0.17 -0.14,0.32 -0.32,0.32l-0.43 0c-0.17,0 -0.32,-0.14 -0.32,-0.32l0 -1.36c0,-0.17 0.14,-0.32 0.32,-0.32zm0 -5.79l0.43 0c0.17,0 0.32,0.14 0.32,0.32l0 1.36c0,0.17 -0.14,0.32 -0.32,0.32l-0.43 0c-0.17,0 -0.32,-0.14 -0.32,-0.32l0 -1.36c0,-0.17 0.14,-0.32 0.32,-0.32zm-4.49 0.65l0.86 0c-0.01,0.02 -0.01,0.05 -0.01,0.08l0 0.53c0,0.03 0,0.05 0.01,0.08l-0.86 0 0 -0.69zm3.01 0l0.86 0 0 0.69 -0.86 0c0.01,-0.02 0.01,-0.05 0.01,-0.08l0 -0.53c0,-0.03 -0,-0.05 -0.01,-0.08zm-4.05 -0.65l0.43 0c0.17,0 0.32,0.14 0.32,0.32l0 1.36c0,0.17 -0.14,0.32 -0.32,0.32l-0.43 0c-0.17,0 -0.32,-0.14 -0.32,-0.32l0 -1.36c0,-0.17 0.14,-0.32 0.32,-0.32z"/>
 </g>
</svg>
