<?xml version="1.0" encoding="UTF-8"?>
<!DOCTYPE svg PUBLIC "-//W3C//DTD SVG 1.1//EN" "http://www.w3.org/Graphics/SVG/1.1/DTD/svg11.dtd">
<!-- Creator: CorelDRAW 2020 (64-Bit) -->
<svg xmlns="http://www.w3.org/2000/svg" xml:space="preserve" width="11.0291mm" height="3.2938mm" version="1.1" style="shape-rendering:geometricPrecision; text-rendering:geometricPrecision; image-rendering:optimizeQuality; fill-rule:evenodd; clip-rule:evenodd"
viewBox="0 0 661.58 197.58"
 xmlns:xlink="http://www.w3.org/1999/xlink"
 xmlns:xodm="http://www.corel.com/coreldraw/odm/2003">
 <defs>
  <style type="text/css">
   <![CDATA[
    .fil0 {fill:#2B2A29}
   ]]>
  </style>
 </defs>
 <g id="Слой_x0020_1">
  <metadata id="CorelCorpID_0Corel-Layer"/>
  <path class="fil0" d="M214.59 110.11l-0.01 0 0 30.12 53.26 0 80.49 -0.02c-2.8,-45.96 31.91,-82.43 74.3,-85.43 46.06,-3.27 83.13,32.22 85.79,74.48 0.23,3.7 0.22,7.34 -0.02,10.91l148.66 -0.04c4.52,-0.84 4.55,-4.71 4.52,-9.45 -0.05,-9.44 -0.04,-18.9 0,-28.34 0.04,-11.96 -5.46,-8.42 -19.3,-8.93 -0.74,-10.69 -0.08,-49.18 -0.08,-62.85 0,-5.21 0,-10.42 0,-15.63 0,-18 1.79,-14.7 -32.75,-14.7 -128.37,0 -257.34,0.42 -385.59,-0.01 -11.77,-0.04 -9.27,3.12 -9.27,23.5l-0.01 12.24 0 1.25 0 1.35 0 1.35 0 68.17 0.01 2.03zm207.99 -12.49l-0.34 0.07c-9.76,1.81 -18.73,7.3 -24.55,15.35 -5.22,7.24 -7.91,16.65 -6.31,27.35 2.57,17.17 14.03,26.99 27.2,30.09 5.34,1.25 10.98,1.43 16.41,0.58 5.38,-0.85 10.62,-2.74 15.18,-5.6 11.04,-6.92 18.29,-19.81 15.09,-38.04l-0.04 -0.25c-1.58,-8.56 -7.08,-16.87 -14.77,-22.58 -7.66,-5.68 -17.52,-8.78 -27.86,-6.98zm-10.65 98.24c-22.15,-5.13 -41.46,-21.74 -46.13,-51.57 -4.64,-29.64 8.51,-51.11 27.89,-62.68 7.53,-4.49 16.01,-7.47 24.74,-8.85 8.7,-1.37 17.71,-1.13 26.24,0.79 22.16,5 41.5,21.3 46.19,50.52 4.82,30.06 -8.37,51.91 -27.83,63.68 -7.52,4.54 -16.02,7.58 -24.78,8.97 -8.75,1.38 -17.77,1.12 -26.33,-0.85zm14.08 -76.68l-0.18 0.04c-4.12,0.76 -7.88,3.07 -10.32,6.44 -2.18,3.03 -3.31,6.97 -2.65,11.45 1.08,7.18 5.89,11.31 11.4,12.6 2.25,0.52 4.61,0.59 6.87,0.24 2.26,-0.35 4.47,-1.15 6.38,-2.35 4.61,-2.9 7.65,-8.3 6.3,-15.94l-0.02 -0.15c-0.66,-3.55 -2.98,-7.02 -6.18,-9.4 -3.19,-2.38 -7.3,-3.67 -11.6,-2.93zm-4.74 42c-9.59,-2.22 -17.95,-9.41 -19.96,-22.31 -2,-12.82 3.71,-22.12 12.08,-27.12 3.24,-1.93 6.91,-3.24 10.68,-3.83 3.76,-0.59 7.67,-0.49 11.35,0.34 9.59,2.16 17.96,9.22 19.99,21.86 2.09,12.99 -3.62,22.46 -12.04,27.55 -3.25,1.96 -6.93,3.26 -10.71,3.87 -3.77,0.6 -7.69,0.49 -11.37,-0.37zm-178.19 -106.46l0.04 -24.84 370.52 0.01 0.02 24.85c-43.66,-0.7 -90.81,-0.14 -135.19,0.01 -4.74,0.01 -5.87,-1.65 -9.54,-3.43 -11.6,-5.61 -25.34,-9.29 -40.29,-9.3 -17.13,-0.02 -27.81,3.97 -40.44,9.17 -3.83,1.58 -4.34,3.54 -8.9,3.66l-37.17 -0.12c-32.97,0 -66.09,-0.3 -99.04,-0.01zm399.12 49.73l8.31 -0.06 0.08 24.89 -8.39 -0.03 0 -24.8zm-433.24 5.77l-183.18 3.61 0.02 -8.96 29.45 0c4.6,0 9.02,-0.08 9.45,-4.96 0.49,-5.65 -4.07,-6.05 -8.96,-6.05 -9.61,0.02 -19.23,0.04 -28.83,0 -14.59,-0.02 -11.59,0.92 -12.16,20.18 -5.24,0.19 -11.98,-0.9 -13.87,2.84 -1.34,2.65 -0.73,12.18 -0.74,15.77 -0.03,6.72 2.13,7.62 8.69,7.59l200.14 -0.01 0 -30.02z"/>
 </g>
</svg>
