<?xml version="1.0" encoding="UTF-8"?>
<!DOCTYPE svg PUBLIC "-//W3C//DTD SVG 1.1//EN" "http://www.w3.org/Graphics/SVG/1.1/DTD/svg11.dtd">
<!-- Creator: CorelDRAW 2020 (64-Bit) -->
<svg xmlns="http://www.w3.org/2000/svg" xml:space="preserve" width="4.5289mm" height="8.9243mm" version="1.1" style="shape-rendering:geometricPrecision; text-rendering:geometricPrecision; image-rendering:optimizeQuality; fill-rule:evenodd; clip-rule:evenodd"
viewBox="0 0 82.42 162.41"
 xmlns:xlink="http://www.w3.org/1999/xlink"
 xmlns:xodm="http://www.corel.com/coreldraw/odm/2003">
 <defs>
  <style type="text/css">
   <![CDATA[
    .fil0 {fill:#2B2A29}
   ]]>
  </style>
 </defs>
 <g id="Слой_x0020_1">
  <metadata id="CorelCorpID_0Corel-Layer"/>
  <path class="fil0" d="M46.04 10.01c7.03,1.76 12.61,7.26 14.5,14.24 -5.91,-0.69 -12.46,-1.08 -19.33,-1.08 -6.88,0 -13.42,0.38 -19.33,1.08 1.89,-6.98 7.47,-12.48 14.5,-14.24l2.25 -4.94c3.08,-6.76 2.07,-6.76 5.16,0l2.25 4.94zm-5.13 126.3l7.3 0c2.09,0 3.81,1.71 3.81,3.81l0 18.48c0,2.09 -1.71,3.81 -3.81,3.81l-7.3 0c-2.09,0 -3.81,-1.71 -3.81,-3.81l0 -18.48c0,-2.09 1.71,-3.81 3.81,-3.81zm4.62 12.64c1.81,0 3.28,1.47 3.28,3.28 0,1.81 -1.47,3.28 -3.28,3.28 -1.81,0 -3.28,-1.47 -3.28,-3.28 0,-1.81 1.47,-3.28 3.28,-3.28zm-27.01 -34.14l45.38 0 0 14.94 0 0.01 0 0.6 -0.01 0c-0.28,5.84 -4.56,10.68 -10.14,11.82l0 -2.93c0,-2.58 -2.11,-4.68 -4.69,-4.68l-8.98 0c-2.58,0 -4.69,2.11 -4.69,4.68l0 3.19 -4.19 0c-6.77,0 -12.35,-5.38 -12.66,-12.07l-0.01 0 0 -0.6 0 -0.01 0 -14.94zm0 -24.72l45.38 0 0 11.84 -45.38 0 0 -11.84zm55.55 14.1l-65.73 0c-4.59,0 -8.35,3.75 -8.35,8.35l0 0 82.42 0 0 -0c0,-4.59 -3.76,-8.35 -8.35,-8.35zm-13.82 -24.72l-38.09 0c-4.59,0 -8.35,3.75 -8.35,8.35l0 0 54.78 0 0 -0c0,-4.59 -3.75,-8.35 -8.35,-8.35zm-14.88 -49.2l-0 0c-1.64,0 -2.98,1.34 -2.98,2.98l0 12.01c0,1.43 1.02,2.63 2.37,2.91l0 18.98 -2.99 0 0 -13.43 0 -0.49 0 -0.49c0,-0.34 -0.27,-0.61 -0.61,-0.61l0 0c-0.34,0 -0.61,0.27 -0.61,0.61l0 0.49 0 0.49 0 13.43 -4.29 0 0 -21.7 0 -0.49 0 -0.49c0,-0.34 -0.27,-0.61 -0.61,-0.61l0 0c-0.34,0 -0.61,0.27 -0.61,0.61l0 0.49 0 0.49 0 21.7 -0.13 0c-1.1,0 -1.64,0.95 -1.99,1.98l-2.03 6.04c-0.25,0.76 -0.45,1.61 -0.12,2.02l-5.73 0c-2.41,-3.3 -3.83,-7.36 -3.83,-11.74l0 -36.03c0,-0.9 0.06,-1.79 0.18,-2.66 6.02,-0.74 12.74,-1.15 19.84,-1.15 7.1,0 13.82,0.41 19.84,1.15 0.12,0.87 0.18,1.76 0.18,2.66l0 36.03c0,4.38 -1.42,8.44 -3.83,11.74l-5.77 0c0.28,-0.41 -0.02,-1.28 -0.27,-2.02l-2.03 -6.04c-0.35,-1.03 -0.89,-1.98 -1.99,-1.98l-1.35 0 0 -18.98c1.35,-0.28 2.37,-1.48 2.37,-2.91l0 -12.01c0,-1.64 -1.34,-2.98 -2.98,-2.98z"/>
 </g>
</svg>
