<?xml version="1.0" encoding="UTF-8"?>
<!DOCTYPE svg PUBLIC "-//W3C//DTD SVG 1.1//EN" "http://www.w3.org/Graphics/SVG/1.1/DTD/svg11.dtd">
<!-- Creator: CorelDRAW 2020 (64-Bit) -->
<svg xmlns="http://www.w3.org/2000/svg" xml:space="preserve" width="10.1591mm" height="7.6001mm" version="1.1" style="shape-rendering:geometricPrecision; text-rendering:geometricPrecision; image-rendering:optimizeQuality; fill-rule:evenodd; clip-rule:evenodd"
viewBox="0 0 535.96 400.96"
 xmlns:xlink="http://www.w3.org/1999/xlink"
 xmlns:xodm="http://www.corel.com/coreldraw/odm/2003">
 <defs>
  <style type="text/css">
   <![CDATA[
    .fil0 {fill:#2B2A29}
   ]]>
  </style>
 </defs>
 <g id="Слой_x0020_1">
  <metadata id="CorelCorpID_0Corel-Layer"/>
  <path class="fil0" d="M316.52 317.06c25.68,-0.23 19.42,0.18 21.76,-5.52 -9.08,-6.65 -39.56,-3.22 -52.55,-3.22l-48.07 0.63c-4.51,1.15 -2.32,0.49 -5.1,2.59 3.61,9.05 13.5,5.49 24.6,5.44l59.35 0.08zm136.16 14.65c-0.31,-0.47 -1.02,-1.75 -0.99,-1.39l0.99 -4.29c3.76,4.55 4.52,-6.09 1.93,2.91 -2.68,9.33 5.92,-1.41 -1.93,2.78zm-29.69 -35.52c-0.51,0.37 -1.23,0.62 -1.45,1.22l-4.05 -1.22c3.15,-2.46 -4.84,-3.63 4.03,-1.07 0.27,0.07 0.93,0.79 1.47,1.07zm21.7 53.95c0.08,3.55 0.87,2.32 -2.72,4.36 0.01,-7.41 -0.92,-3.79 2.72,-4.36zm-3.44 -40.8l-0.51 -5.2 4.83 0.03 -4.32 5.16c5.7,14.43 11.04,24.95 -0.86,38.16 -11.75,13.05 -25.76,8.8 -39.12,1.98 -0.33,-0.17 -1.01,-0.55 -1.54,-0.76 -1.44,8.07 2.18,2.99 -4.17,5.13l-1.48 -2.44c2.63,-2.47 1.2,-1.37 5.65,-2.69 -4.83,-13.3 -12.14,-24.69 0.97,-38.6 14.46,-15.34 26.92,-7.07 40.55,-0.79zm-55.85 21.39c1.19,-7.07 -1.27,-1.61 4.86,-5 -2.55,7.17 3.86,5.41 -4.86,5zm32.29 33.05c1.32,-7.23 -0.94,-2.64 5.55,-5.44 -2.86,7.28 2.79,4.57 -5.55,5.44zm-307.37 -116.22c1.67,5.42 2.64,4.41 -4.68,6.55l-0.34 -6.86c7.85,-3.52 3.58,-0.32 5.02,0.31zm-5.35 99.67l-0.94 -6.17 7.04 -0.28c-0.01,6.69 0.17,7.1 -6.09,6.45zm-48.23 -51.05c2.77,-3.19 0.52,-1.29 4.93,-2.76 0.3,0.51 5.82,1.48 0.84,5.93 -5.88,5.27 -5.58,-2.82 -5.77,-3.17zm88.09 32.88c-2.81,7.45 -4.51,8.28 -8.12,0 7.45,-5.56 3.61,-3.56 8.12,0zm-66.17 -65.76c-4.77,8.77 -6.52,7.14 -8.25,-2.84 7.39,0 2.83,-2.25 8.25,2.84zm65.49 3.37c-11.19,3.23 -3.76,0.48 -6.47,-0.6 -1.16,-7.17 -2.38,-2.71 3.06,-6.49 4.72,3.15 4.61,-0.94 3.41,7.1zm-65.24 65.01c-3.77,2.64 2.67,3.56 -4.1,1.87 -5.29,-1.31 -2.23,0.46 -4.2,-4.48 1.39,-1.09 -2.96,-4.13 4.28,-2.16 3.18,0.87 2.73,-2.98 4.03,4.77zm71.84 -33.3c3.3,-8.46 -5.99,-4.16 8.5,-5.23 -0.83,4.05 1.08,4.09 -2.14,6.27 -8.04,5.43 -5.46,-0.52 -6.36,-1.03zm-138.8 -21.29l-1.49 -16.44 3.68 -4.13c0.11,-13.07 3.27,-6.69 9.74,-13.22 7.3,-7.37 0.89,-18.66 22.33,-25.97 8.61,-2.93 8.13,-2.94 12.98,-8.97 13.51,-16.81 21.52,-4.18 34.04,-9.7 6.47,-2.85 3.77,-7.06 18.67,-4.85 13.36,1.98 2.7,4.06 14.71,7.06 12.18,3.04 17.73,-10.51 32.68,11.13 7.29,10.56 15.89,1.09 25.25,16.49 6.32,10.39 -2.59,8.62 6.89,17.28 8.42,7.69 5.95,-3 12.29,11.89 8.82,20.7 -11.08,12.79 6.76,29.77 0.9,9.23 1.96,14.55 -2.54,21.35 -2.16,3.27 -3.15,-2.36 -4.84,8.06 -1.56,9.6 0.66,5.03 1.32,7.62 4.93,19.66 -14.07,24.29 -15.73,26.55 -2.41,3.28 0.91,22.56 -18.61,25.03 -22.75,2.88 -3.81,11.95 -26.22,17.7 -17.34,4.45 -4.77,-4.81 -19.49,0.35 -1.31,0.46 -10.86,12.49 -28.15,3.61 -6.05,-3.11 3.08,-1.26 -7.3,-4.08 -10.2,-2.78 -19.34,6.76 -32.13,-9.23 -9.82,-12.26 -21.78,-5.89 -28.3,-22.65 -0.21,-0.53 -0.32,-1.16 -0.5,-1.7 -8.07,-24.3 -8.03,-5.76 -16.05,-23.18 -4.71,-10.22 -1.88,-9.04 -1.77,-17.02 0.21,-15.82 -3.51,-4.22 -5.81,-17.25 -1,-5.7 -1.29,-14.94 3.98,-16.99l3.59 -8.51zm497.18 -136.48c14.2,-0.79 18.5,-2.04 25.92,9.07l0.9 13.48 -6.19 28.54c-0.34,11.26 -3.76,23.71 -5.82,35.28 -2.81,15.73 -0.83,18.22 -11.21,27.09 15.76,2.81 26.52,1.59 19.84,20.85 -9.5,3.77 -23.77,2.59 -35.99,2.71 -19,0.18 -17.11,2.26 -29.23,-7.14 -53.74,-41.7 -120.66,-3.37 -122.74,56.72l-126.77 -0.13c4.96,-37.01 6.15,-56.4 -12.14,-87.08 -29.22,-49 -94.32,-69.45 -148.72,-40.46 -44.16,23.53 -35.16,43.7 -57,51.11 21.22,-53.15 77.52,-70.45 79.25,-72.06 5.42,-8.93 30.96,-120.1 34.12,-138.89 -0.6,-0.3 -1.41,-0.46 -1.92,-0.6l-12.99 -3.37c-8.13,-3.91 -14.13,-22.98 11.37,-24.63 25.84,-1.68 184.76,-7.68 190.51,-3.29 3.29,4.68 6.43,9.11 3.09,16.58 -4.63,10.38 -7.01,0.44 -4.01,18.93 2.05,12.61 3.13,29.82 8.02,40.05 -0.77,-19.96 -4.48,-35.29 1.24,-55.71 3.87,-13.79 14.98,-32.42 26.79,-26.6 -3.09,8.81 -21.74,18.71 -18.89,62.62 1.04,16.08 9.54,23.51 12.55,69.33l139.08 -0.1c4.72,3.3 5.11,4.33 8.63,7.33l12.56 -0.22 19.74 0.55zm-15.22 11.12l-19.87 1.06c-28.07,-2.15 -56.69,-0.55 -85.08,-0.55 -16.51,0 -84.92,-5.31 -66.11,11.98 5.7,5.23 145.21,2.25 163.72,1.92 15.56,0.87 23.22,4.43 22.94,-11.12l-15.6 -3.28zm-451.71 129.12l-1.72 4.01c-0.75,37.08 11.83,69.72 53.61,77.34 40.15,7.32 70.46,-19.41 77.44,-50.36 9.27,-41.11 -16.92,-70.64 -48.27,-79.27 -19.04,-5.24 -38.63,-0.52 -52.84,8.84 -13.24,8.72 -23.21,20.49 -28.22,39.44zm472.2 -94.07l-3.08 -0.01 1.01 36.38c15.9,-6.26 16.82,-27.66 2.07,-36.37zm-11.7 43.33l0.81 -51.41 -10.04 1.34c-10.32,4.71 -19.8,14.37 -16.33,30.08 1.16,5.25 5.71,11.88 9.59,14.92 4.67,3.66 8.39,4.13 15.97,5.07zm-387.52 28.66c12.54,3.02 18.67,5.58 25.19,15.91 20.1,31.88 -8.02,69.3 -42.88,60.44 -48.62,-12.36 -31.53,-88.2 17.69,-76.35zm350.14 74.69c2.22,-26.38 -17.24,-48.06 -41.37,-50.26 -26.73,-2.43 -48.54,17.66 -50.26,41.78 -4.37,61.37 86.77,66.36 91.63,8.48zm-111.69 -21.92c-0.31,-16.51 -0.04,-10.37 7.61,-18.88 8.77,-9.75 -0.08,-11.27 11.56,-17.05 8.74,-4.33 3.59,1.48 11.86,-5.87 17.09,-15.17 10.87,-4.44 24.35,-8.66 4.05,-1.27 6.44,-4.98 14.42,-3.48 11.25,2.12 -0.51,3.06 11.87,4.69 6.05,0.8 7.08,-2.85 14.7,1.42 10.62,5.96 -0.11,4.25 10.09,9.6 5.83,3.06 7.74,-0.12 12.57,7.41 4.93,7.67 -0.73,4.21 5.53,11.97 4.91,6.07 6.08,0.24 8.93,11.05 3.81,14.41 -2.27,3.62 0.33,13.31 1.52,5.63 5.85,2.33 4.24,13.8 -1.68,11.92 -3.3,1.81 -4.96,11.69 -1.32,7.89 3.78,4.8 -0.82,15.11 -4.55,10.21 -4.27,2.04 -9.34,10.5 -5.02,8.38 1.87,9.75 -13.29,15.23 -18.2,6.57 -1.61,7.43 -16.52,12.1 -9.13,2.86 -5.77,-0.85 -13.31,0.58 -8.88,1.69 -1.85,5.54 -15.68,3.82 -10.79,-1.34 -2.34,-2.91 -13.37,-4.16 -5.82,-0.66 -6.94,2.29 -14.34,-1.92 -9.55,-5.42 -0.34,-3.89 -10.58,-9.3 -6.09,-3.22 -7.69,-0.38 -12.21,-7.37 -3.91,-6.04 -0.28,-4.98 -5.67,-11.9 -4.67,-6 -5.89,-1.52 -8.46,-11.21l-3.95 -28.95c1.06,-6.05 4.56,-6.61 4.44,-13.53zm-109.87 -27.54c17.55,0.94 86.41,1.42 94.33,-3.15 0.44,-7.34 -4.95,-6.32 -12.63,-6.37l-52.93 0.17c-7.34,-0.02 -14.7,0.03 -22.03,-0.07 -19.81,-0.27 -15.06,-0.15 -18.05,4.08 3.9,6.87 0.85,4.78 11.31,5.34zm105.26 -86.89c-6.84,14.34 -21.9,40.62 -22.38,51.25 9.17,-3.46 7.63,-6.86 11.91,-15.65 5.77,-11.84 21.27,-41.53 22.61,-51.24 -7.33,2.63 -4.38,-0.47 -8.16,6.55 -1.3,2.43 -2.65,6.3 -3.98,9.09zm31.15 -15.65c-7.2,5.52 -34.03,59.2 -30.75,66.26 7.7,-3.76 14.2,-23.11 18.47,-31.74 3.08,-6.23 5.59,-11.43 8.62,-17.63 10.44,-21.38 4.75,-14.77 3.67,-16.89zm41.74 -0.01c-5.83,5.23 -31.44,58.96 -31.57,65.55 7.7,0.16 7.83,-5.43 11.2,-12.77l16.95 -35.67c0.48,-0.98 4.79,-8.65 4.84,-8.82 4.6,-14.08 0.49,-5.51 -1.42,-8.29zm-114.22 66.46c4.01,-2.72 27.89,-48.54 31.25,-58.86 1.41,-4.34 0.58,0.24 0.62,-4.52l-1.11 -2.83c-6.74,2.99 -3.24,-0.69 -11.11,15.6l-16.52 34.04c-9.52,17.48 -3.68,15.67 -3.12,16.57zm63.7 -0.37c7.12,-5.01 12.82,-22.35 17.69,-32.25 7.3,-14.81 16.36,-26.07 13.06,-33.63 -6.45,2.93 -2.02,-2.09 -6.9,6.82l-11.95 25.23c-2.96,6.29 -5.32,11.44 -8.48,17.84 -9.37,18.99 -4.66,14.18 -3.43,15.99zm-91.8 -74.4c-13.7,-0.27 -26.23,-2.69 -39.95,-4.33 -17.62,-2.12 -31.86,-6.84 -34.04,0.23 7.45,4.86 22.62,-0.71 23.98,17.56 1.06,14.16 -8.01,18.54 -20.52,19.18 2.15,32.66 11.52,29.39 17,54.19 55.23,-0.56 57.04,14.56 53.53,-86.83zm-4.63 -19.03c-2.52,-5.54 -6.83,-10.44 -11.73,-14.91l-17.17 15.19 28.9 -0.28zm-103.88 -106.29l-50.44 0.1c-3.21,22.04 -20.63,107.04 -18.78,122.34l46.27 -0.39c-1.01,-11.07 -7.82,-31.58 -10.83,-43.32 -2.77,-10.81 -15.87,-39.88 -0.48,-43.05 18.23,-3.77 20.74,48.5 33.54,81.03l0.72 -116.71zm119.04 106.55c5.86,-0.91 10.27,-3.81 12.93,-7.66 4.65,-6.72 3.34,-6.2 1.66,-16.19 -4.41,-26 -14.58,-77.97 -15.97,-98.72l-94.68 3.09 10.54 119.52 32.8 0.07c0.33,-0.55 0.51,-1.38 0.69,-1.8l1.42 -3.44c2.93,-5.94 13.2,-13.11 21.64,-20.1 5.35,-4.43 8.21,-6.05 13.52,-10.67 4.39,-3.83 8.8,-7.25 14.56,-4.83 -0.11,8.12 -7.52,9.53 -18.15,20.36 4.74,6.85 12.1,17.45 19.03,20.37z"/>
 </g>
</svg>
