<?xml version="1.0" encoding="UTF-8"?>
<!DOCTYPE svg PUBLIC "-//W3C//DTD SVG 1.1//EN" "http://www.w3.org/Graphics/SVG/1.1/DTD/svg11.dtd">
<!-- Creator: CorelDRAW 2020 (64-Bit) -->
<svg xmlns="http://www.w3.org/2000/svg" xml:space="preserve" width="7.522mm" height="7.522mm" version="1.1" style="shape-rendering:geometricPrecision; text-rendering:geometricPrecision; image-rendering:optimizeQuality; fill-rule:evenodd; clip-rule:evenodd"
viewBox="0 0 258.44 258.44"
 xmlns:xlink="http://www.w3.org/1999/xlink"
 xmlns:xodm="http://www.corel.com/coreldraw/odm/2003">
 <defs>
  <style type="text/css">
   <![CDATA[
    .fil0 {fill:#2B2A29}
   ]]>
  </style>
 </defs>
 <g id="Слой_x0020_1">
  <metadata id="CorelCorpID_0Corel-Layer"/>
  <path class="fil0" d="M37.85 37.85c50.46,-50.46 132.28,-50.46 182.74,0 50.46,50.46 50.46,132.28 0,182.74 -50.46,50.46 -132.28,50.46 -182.74,0 -50.46,-50.46 -50.46,-132.28 0,-182.74zm44.5 44.5c25.89,-25.89 67.86,-25.89 93.75,0 25.89,25.89 25.89,67.86 0,93.75 -25.89,25.89 -67.86,25.89 -93.75,0 -25.89,-25.89 -25.89,-67.86 0,-93.75zm38.35 34.4c1.76,-1.2 3.71,-1.99 5.72,-2.37l0 -6.7 0 -0.07 0 -0.07 0 -0.23 0.02 0c0.15,-1.4 1.34,-2.49 2.78,-2.49 1.55,0 2.8,1.25 2.8,2.8l-0.02 0.31 0 6.46c2.02,0.37 3.98,1.17 5.74,2.37l4.74 -4.74 0.05 -0.05 0.05 -0.05 0.16 -0.16 0.01 0.01c1.1,-0.89 2.71,-0.82 3.73,0.2 1.09,1.09 1.09,2.86 0,3.95l-0.23 0.21 -4.57 4.57c1.21,1.76 2,3.71 2.38,5.73l6.7 0 0.07 0 0.07 0 0.23 0 0 0.02c1.4,0.15 2.49,1.34 2.49,2.78 0,1.55 -1.25,2.8 -2.8,2.8l-0.31 -0.02 -6.46 0c-0.37,2.02 -1.17,3.98 -2.37,5.74l4.74 4.74 0.05 0.05 0.05 0.05 0.16 0.16 -0.01 0.01c0.89,1.1 0.82,2.71 -0.2,3.73 -1.09,1.09 -2.86,1.09 -3.95,0l-0.21 -0.23 -4.57 -4.57c-1.76,1.21 -3.73,2.01 -5.75,2.38l0 6.46 0.02 0.31c0,1.55 -1.25,2.8 -2.8,2.8 -1.44,0 -2.63,-1.09 -2.78,-2.49l-0.02 0 0 -0.23 0 -0.07 0 -0.07 0 -6.7c-2.02,-0.38 -3.98,-1.18 -5.73,-2.38l-4.57 4.57 -0.21 0.23c-1.09,1.09 -2.86,1.09 -3.95,0 -1.02,-1.02 -1.09,-2.63 -0.2,-3.73l-0.01 -0.01 0.16 -0.16 0.05 -0.05 0.05 -0.05 4.74 -4.74c-1.2,-1.76 -2,-3.72 -2.37,-5.74l-6.46 0 -0.31 0.02c-1.55,0 -2.8,-1.25 -2.8,-2.8 0,-1.44 1.09,-2.63 2.49,-2.78l0 -0.02 0.23 0 0.07 0 0.07 0 6.7 0c0.37,-2.02 1.17,-3.98 2.38,-5.74l-4.57 -4.57 -0.23 -0.21c-1.09,-1.09 -1.09,-2.86 0,-3.95 1.02,-1.02 2.63,-1.09 3.73,-0.2l0.01 -0.01 0.16 0.16 0.05 0.05 0.05 0.05 4.73 4.73zm1.41 5.36c3.93,-3.93 10.3,-3.93 14.23,0 3.93,3.93 3.93,10.3 0,14.23 -3.93,3.93 -10.3,3.93 -14.23,0 -3.93,-3.93 -3.93,-10.3 0,-14.23zm43.98 -31.81c-6.15,-6.15 -15.45,-7.21 -22.68,-3.18l25.86 25.86c4.02,-7.23 2.96,-16.54 -3.18,-22.68zm0 74.61c6.14,-6.14 7.2,-15.44 3.18,-22.68l-25.86 25.86c7.24,4.02 16.54,2.96 22.68,-3.18zm-74.61 0c-6.15,-6.15 -7.21,-15.45 -3.18,-22.68l25.86 25.86c-7.24,4.02 -16.54,2.96 -22.68,-3.18zm0 -74.61c6.14,-6.14 15.44,-7.2 22.68,-3.18l-25.86 25.86c-4.02,-7.24 -2.96,-16.54 3.18,-22.68zm-52.91 4.83c-0.74,2.79 -3.6,4.47 -6.39,3.73 -2.8,-0.74 -4.47,-3.6 -3.73,-6.39 0.73,-2.79 3.59,-4.46 6.38,-3.72 2.8,0.73 4.47,3.59 3.74,6.38zm-4.84 50.43c0.77,2.79 -0.85,5.67 -3.64,6.45 -2.79,0.78 -5.67,-0.85 -6.45,-3.64 -0.78,-2.78 0.85,-5.67 3.63,-6.44 2.79,-0.78 5.68,0.85 6.45,3.63zm20.48 45.06c2.05,2.04 2.06,5.35 0.02,7.4 -2.04,2.05 -5.35,2.06 -7.4,0.02 -2.05,-2.03 -2.05,-5.35 -0.02,-7.39 2.04,-2.06 5.35,-2.06 7.4,-0.02zm40.36 29.2c2.79,0.75 4.44,3.62 3.69,6.41 -0.76,2.79 -3.62,4.44 -6.41,3.69 -2.79,-0.75 -4.44,-3.62 -3.69,-6.41 0.75,-2.8 3.62,-4.45 6.41,-3.69zm49.6 5.3c2.79,-0.74 5.66,0.94 6.39,3.73 0.73,2.79 -0.94,5.66 -3.73,6.39 -2.79,0.74 -5.66,-0.94 -6.39,-3.73 -0.74,-2.8 0.93,-5.66 3.73,-6.39zm46.31 -20.58c2.04,-2.04 5.36,-2.04 7.4,0 2.04,2.04 2.04,5.36 0,7.4 -2.04,2.04 -5.36,2.04 -7.4,0 -2.04,-2.04 -2.04,-5.36 0,-7.4zm39.72 -38.45c-0.73,2.8 -3.59,4.46 -6.38,3.73 -2.8,-0.73 -4.47,-3.59 -3.73,-6.38 0.74,-2.79 3.6,-4.47 6.39,-3.73 2.8,0.74 4.47,3.6 3.73,6.39zm4.8 -55.9c0.78,2.79 -0.85,5.67 -3.63,6.44 -2.79,0.78 -5.68,-0.85 -6.45,-3.63 -0.77,-2.78 0.86,-5.67 3.64,-6.45 2.79,-0.78 5.67,0.85 6.45,3.64zm-23.18 -49.66c2.05,2.03 2.05,5.35 0.02,7.39 -2.04,2.05 -5.36,2.06 -7.4,0.02 -2.05,-2.04 -2.06,-5.35 -0.02,-7.4 2.04,-2.05 5.35,-2.06 7.4,-0.02zm-45.02 -31.89c2.79,0.75 4.44,3.62 3.69,6.41 -0.75,2.8 -3.62,4.45 -6.41,3.69 -2.79,-0.75 -4.44,-3.62 -3.69,-6.41 0.75,-2.79 3.62,-4.44 6.41,-3.69zm-54.99 -5.32c2.8,-0.73 5.66,0.94 6.39,3.73 0.74,2.8 -0.93,5.66 -3.73,6.39 -2.79,0.74 -5.66,-0.94 -6.39,-3.73 -0.73,-2.79 0.94,-5.66 3.73,-6.39zm-51.05 23.3c2.04,-2.04 5.36,-2.04 7.4,0 2.04,2.04 2.04,5.36 0,7.4 -2.04,2.04 -5.36,2.04 -7.4,0 -2.04,-2.04 -2.04,-5.36 0,-7.4zm12.39 26.54c5.47,-5.47 11.54,-9.97 18,-13.51l-6.73 -38.19c-13.71,5.69 -26.56,14.11 -37.71,25.26 -4.08,4.09 -7.8,8.4 -11.15,12.89l25.96 28.28c3.21,-5.25 7.08,-10.2 11.62,-14.74zm-39.63 -10.71c-11.14,15.92 -17.84,34.01 -20.11,52.52l36.56 11.74c0.39,-12.34 3.64,-24.6 9.75,-35.71l-26.21 -28.55zm-20.48 55.99c-0.33,3.58 -0.5,7.18 -0.5,10.77 0,15.16 2.94,30.32 8.82,44.56l37.6 -7.78c-5.84,-11.16 -8.85,-23.41 -9.02,-35.7l-36.9 -11.85zm9.7 58.54c5.64,12.59 13.64,24.39 23.97,34.73 3.28,3.27 6.7,6.31 10.24,9.11l28.96 -25.17c-4.52,-2.95 -8.8,-6.41 -12.76,-10.38 -4.94,-4.94 -9.09,-10.38 -12.46,-16.14l-37.95 7.85zm36.99 45.97c15.39,11.43 32.95,18.59 51.06,21.47l13.01 -36.12c-12.11,-0.82 -24.06,-4.41 -34.84,-10.77l-29.23 25.41zm54.51 21.97c4.96,0.64 9.96,0.96 14.96,0.96 14.02,0 28.05,-2.51 41.34,-7.54l-6.67 -37.81c-11.47,5.58 -24.02,8.23 -36.5,7.94l-13.14 36.45zm59.55 -7.86c13.78,-5.7 26.7,-14.14 37.91,-25.35 4.06,-4.06 7.76,-8.36 11.1,-12.83l-25.96 -28.28c-3.2,5.22 -7.06,10.16 -11.59,14.68 -5.52,5.53 -11.66,10.06 -18.2,13.62l6.73 38.17zm51.06 -41.01c11.18,-15.96 17.9,-34.09 20.16,-52.66l-36.57 -11.75c-0.38,12.39 -3.64,24.71 -9.8,35.86l26.2 28.55zm20.53 -56.14c0.33,-3.56 0.49,-7.13 0.49,-10.7 0,-15.23 -2.97,-30.46 -8.9,-44.75l-37.61 7.78c5.9,11.19 8.94,23.48 9.11,35.81l36.91 11.85zm-9.79 -58.65c-5.64,-12.52 -13.61,-24.25 -23.89,-34.54 -3.34,-3.34 -6.84,-6.44 -10.47,-9.29l-28.98 25.19c4.61,2.99 8.97,6.5 13.01,10.54 4.89,4.89 9.01,10.26 12.35,15.96l37.98 -7.85zm-37.14 -45.95c-15.41,-11.4 -32.99,-18.51 -51.11,-21.35l-13.03 36.14c12.11,0.78 24.08,4.33 34.88,10.64l29.26 -25.43zm-54.57 -21.83c-4.87,-0.61 -9.77,-0.92 -14.67,-0.92 -14.1,0 -28.19,2.54 -41.54,7.62l6.67 37.83c11.43,-5.6 23.94,-8.28 36.4,-8.04l13.15 -36.48zm-100.81 29.61c23.78,-23.79 54.97,-35.68 86.14,-35.68 31.18,0 62.36,11.89 86.14,35.68 23.79,23.78 35.68,54.96 35.68,86.14 0,31.17 -11.89,62.36 -35.68,86.14 -23.78,23.79 -54.96,35.68 -86.14,35.68 -31.17,0 -62.36,-11.89 -86.14,-35.68 -23.79,-23.78 -35.68,-54.96 -35.68,-86.14 0,-31.17 11.89,-62.36 35.68,-86.14z"/>
 </g>
</svg>
