<?xml version="1.0" encoding="UTF-8"?>
<!DOCTYPE svg PUBLIC "-//W3C//DTD SVG 1.1//EN" "http://www.w3.org/Graphics/SVG/1.1/DTD/svg11.dtd">
<!-- Creator: CorelDRAW 2020 (64-Bit) -->
<svg xmlns="http://www.w3.org/2000/svg" xml:space="preserve" width="11.6249mm" height="5.019mm" version="1.1" style="shape-rendering:geometricPrecision; text-rendering:geometricPrecision; image-rendering:optimizeQuality; fill-rule:evenodd; clip-rule:evenodd"
viewBox="0 0 758.55 327.5"
 xmlns:xlink="http://www.w3.org/1999/xlink"
 xmlns:xodm="http://www.corel.com/coreldraw/odm/2003">
 <defs>
  <style type="text/css">
   <![CDATA[
    .fil0 {fill:#2B2A29}
   ]]>
  </style>
 </defs>
 <g id="Слой_x0020_1">
  <metadata id="CorelCorpID_0Corel-Layer"/>
  <path class="fil0" d="M411.23 178.01l29.21 -144.75c2.45,-10.98 0.35,-18.65 -5.4,-25.24 -6.59,-7.58 -16.12,-8 -25.9,-7.99l-280.22 -0.03c-9.82,0.05 -13.22,0.64 -16.91,12.54 -2.04,6.59 -4.01,13.38 -6.07,19.52 -7.01,20.87 -12.91,42.02 -19.6,63.26 -4.09,11.65 -9.68,14.53 -25.82,23.97 -3.58,2.1 -6.98,4.3 -10.45,6.36 -9.65,5.7 -41.21,23.21 -47.7,27.78 -2.17,1.53 -2.26,3.19 -2.28,6.6 -0.18,21.9 0.03,43.91 0.03,65.82 -0.01,12.03 0.96,19.89 8.01,25.6 7.97,6.47 16.25,5.55 28.06,5.55 11.11,0 22.22,0 33.34,0 19.76,0 32.13,-0.13 32.08,-21.16l-0.09 -46.3c0.03,-6.86 4.4,-11.44 12.18,-11.44 99.18,-0.12 198.37,0.27 297.55,-0.08zm230.57 65.09l-0.29 0.05c-8.23,1.53 -15.82,6.17 -20.72,12.96 -4.41,6.11 -6.68,14.06 -5.33,23.09 2.17,14.5 11.85,22.79 22.96,25.41 4.51,1.05 9.27,1.21 13.85,0.49 4.54,-0.72 8.96,-2.31 12.82,-4.73 9.32,-5.85 15.45,-16.72 12.74,-32.11l-0.03 -0.21c-1.33,-7.23 -5.98,-14.24 -12.47,-19.06 -6.47,-4.8 -14.79,-7.42 -23.52,-5.89zm-8.99 82.94c-18.7,-4.33 -35.01,-18.36 -38.94,-43.54 -3.92,-25.02 7.18,-43.15 23.54,-52.92 6.36,-3.79 13.51,-6.31 20.89,-7.48 7.35,-1.15 14.95,-0.95 22.15,0.67 18.71,4.22 35.04,17.98 39.01,42.66 4.07,25.38 -7.07,43.83 -23.5,53.77 -6.34,3.83 -13.52,6.39 -20.92,7.57 -7.39,1.17 -15,0.95 -22.23,-0.72zm11.89 -64.74l-0.14 0.03c-3.48,0.63 -6.66,2.58 -8.72,5.44 -1.85,2.56 -2.8,5.88 -2.24,9.66 0.91,6.06 4.97,9.55 9.62,10.64 1.9,0.44 3.89,0.5 5.81,0.2 1.91,-0.3 3.77,-0.97 5.38,-1.98 3.9,-2.45 6.46,-7.01 5.32,-13.45l-0.02 -0.13c-0.55,-3 -2.51,-5.92 -5.22,-7.93 -2.69,-2 -6.17,-3.1 -9.79,-2.48zm-4.01 35.46c-8.09,-1.88 -15.15,-7.95 -16.85,-18.84 -1.69,-10.83 3.13,-18.67 10.2,-22.9 2.73,-1.62 5.83,-2.73 9.01,-3.23 3.18,-0.5 6.47,-0.41 9.59,0.29 8.09,1.82 15.16,7.79 16.87,18.45 1.77,10.98 -3.05,18.97 -10.16,23.26 -2.75,1.65 -5.85,2.76 -9.05,3.27 -3.18,0.51 -6.49,0.41 -9.61,-0.31zm-434.68 -53.66l-0.29 0.05c-8.23,1.53 -15.82,6.17 -20.72,12.96 -4.41,6.11 -6.68,14.06 -5.33,23.09 2.17,14.5 11.85,22.79 22.96,25.41 4.51,1.05 9.27,1.21 13.85,0.49 4.54,-0.72 8.96,-2.31 12.82,-4.73 9.32,-5.85 15.45,-16.72 12.74,-32.11l-0.03 -0.21c-1.33,-7.23 -5.98,-14.24 -12.47,-19.06 -6.47,-4.8 -14.79,-7.42 -23.52,-5.89zm-8.99 82.94c-18.7,-4.33 -35.01,-18.36 -38.94,-43.54 -3.92,-25.02 7.18,-43.15 23.54,-52.92 6.36,-3.79 13.51,-6.31 20.89,-7.48 7.35,-1.15 14.95,-0.95 22.15,0.67 18.71,4.22 35.04,17.98 39.01,42.66 4.07,25.38 -7.07,43.83 -23.5,53.77 -6.34,3.83 -13.52,6.39 -20.92,7.57 -7.39,1.17 -15,0.95 -22.23,-0.72zm11.89 -64.74l-0.14 0.03c-3.48,0.63 -6.66,2.58 -8.72,5.44 -1.85,2.56 -2.8,5.88 -2.24,9.66 0.91,6.06 4.97,9.55 9.62,10.64 1.9,0.44 3.89,0.5 5.81,0.2 1.91,-0.3 3.77,-0.97 5.38,-1.98 3.9,-2.45 6.46,-7.01 5.32,-13.45l-0.02 -0.13c-0.55,-3 -2.51,-5.92 -5.22,-7.93 -2.69,-2 -6.17,-3.1 -9.79,-2.48zm-4.01 35.46c-8.09,-1.88 -15.15,-7.95 -16.85,-18.84 -1.69,-10.83 3.13,-18.67 10.2,-22.9 2.73,-1.62 5.83,-2.73 9.01,-3.23 3.18,-0.5 6.47,-0.41 9.59,0.29 8.09,1.82 15.16,7.79 16.87,18.45 1.77,10.98 -3.05,18.97 -10.16,23.26 -2.75,1.65 -5.85,2.76 -9.05,3.27 -3.18,0.51 -6.49,0.41 -9.61,-0.31zm413.86 -163.73l-7.45 -14.96c-3.73,-7.57 -13.55,-29.56 -20.42,-43.44 -2.56,-5.17 -5.21,-7.24 -5.81,-7.63 -2.84,3.44 -7.18,8.4 -9.44,11.26 -1.16,1.47 -1.6,1.91 -1.64,3.89 -0.09,3.94 2.51,8.72 4.34,13.51l12.62 27.61c4.8,10.93 18.19,8.13 27.8,9.77zm86.02 108.83l3.02 -0.05c3.25,-0.11 4.87,0.51 4.95,-2.45 -0.03,-2.46 -0.05,-4.24 -0.05,-6.54l0.04 -27.23c0.01,-6.98 -4.47,-8.2 -11.46,-8.2l-89 0c-5.27,0 -6.02,0.88 -9.92,4.92 -7.29,9.1 -13.45,17.2 -19.2,27.78 -0.38,0.93 -0.29,0.44 -0.37,2.02l0.09 22.92c4.35,-15.95 14.68,-28.06 27.74,-35.85 7.83,-4.67 16.65,-7.78 25.74,-9.21 9.05,-1.42 18.41,-1.17 27.29,0.82 16.9,3.82 32.23,13.95 41.13,31.07zm-386.17 -34.21c-2.48,0 -4.5,2.3 -4.5,5.1l0 23.98c-14.82,-0.22 -28.25,-0.07 -42.72,-0.07 -1.52,0 -3.15,0.14 -4.71,0.14 -9.2,-14.37 -23.29,-23.05 -38.68,-26.52 -8.95,-2.01 -18.38,-2.25 -27.51,-0.83 -9.15,1.45 -18.04,4.58 -25.94,9.29 -7.93,4.74 -14.87,11.05 -20.09,18.84l-1.25 0.01c-8.42,-0.04 -9.91,-7.23 -16.67,-9.42 0.44,7.2 0.89,26.79 0.07,33.41 -0.97,7.73 -14.11,4.31 -20.35,4.76 -6.88,0.5 -6.04,-3.31 -6.04,-5.41l-0.15 -70.36c0.12,-2.41 1.41,-3.58 3.63,-3.91 113.69,-0.14 230.15,0.39 341.87,-0.29l0.23 23.43c-0.82,-1.3 -2.15,-2.15 -3.66,-2.15l-60.94 0 0 -12.78c0,-1.2 -0.97,-2.17 -2.17,-2.17l-7.33 0c-1.19,0 -2.15,0.97 -2.15,2.17l0 12.78 -60.95 0zm5.25 5.27l28.86 0 0 73.87 -28.86 0c-2.28,0 -4.15,-2.02 -4.15,-4.48l0 -64.91c0,-2.46 1.87,-4.47 4.15,-4.47zm35.16 0l20.53 0 0 9.8c0,1.19 0.97,2.16 2.15,2.16l7.33 0c1.2,0 2.17,-0.97 2.17,-2.16l0 -9.8 20.65 0 0 73.87 -52.83 0 0 -73.87zm59.14 0l28.74 0c2.28,0 4.15,2.02 4.15,4.47l0 64.91c0,2.46 -1.87,4.48 -4.15,4.48l-28.74 0 0 -73.87zm62.32 68.81l96.83 -0.01 0 -22.07 -96.83 0 0 22.09zm131.97 -111.12c-1.92,0.91 -2.11,-0.7 -2.38,1.75 -0.5,4.49 3.27,3.26 10.98,3.26l114.77 -0.23c1.18,-0.57 2.02,-3.48 0.28,-4.44 -2.06,-1.12 -6.92,-0.65 -9.18,-0.65l-114.46 0.32zm-125.15 -9.58l0 -6.53c0,-1.06 0.86,-1.93 1.92,-1.93l21.55 0c1.06,0 1.93,0.87 1.93,1.93l0 6.53c0,1.06 -0.87,1.93 -1.93,1.93l-21.55 0c-1.06,0 -1.92,-0.87 -1.92,-1.93zm90.01 87.65l0 -20.74 -96.83 0 0 20.74 96.83 0zm0 -27.33c3.33,-6.11 15.89,-20.77 22.86,-29.29 3,-3.67 3.59,-4.86 8.85,-4.79l87.18 0c2.96,0 6.84,-0.29 9.8,-0.03 5.19,0.48 13.25,3.35 15.62,8.91 1.27,3.13 1.85,4.23 1.85,7.76 4.05,1.66 7.15,4.44 8.35,8.99 2.24,6.88 -1.41,21.12 -8.35,21.7l0 7.19c1.83,0.75 7.07,0.33 9.31,0.33l7.83 0c2.84,-0.38 3.32,-8.44 3.32,-10.51l0.19 -58.49c-0.39,-4.31 -0.91,-9.54 -9.76,-13.15 -5.1,-2.22 -12.25,-4.89 -17.65,-6.47 -19.28,-5.15 -41.64,-8.46 -57.79,-10.54 -7.62,-0.82 -13.45,-1.53 -30.99,-3.11 -18.19,-0.7 -36.92,-1.14 -41.79,-14.21 -3.26,-6.59 -1.88,-4.41 -5.02,-10.98l-11.54 -27.15c-2.21,-6.54 -1.07,-9.12 2.81,-14.44 3.14,-4.33 4.14,-5.67 8.6,-9.49 -6.49,-4.85 -16.06,-5.12 -20.14,-5.12 -9.96,0 -59.56,-0.89 -78.33,-0.33 -19.07,0.55 -21.06,5.59 -21.16,25.82l0.38 137.39 18.73 0 96.83 0zm-96.79 -144.8l71.07 0c2.36,0 3.31,2.04 3.55,2.77l17.96 46.06c0.44,1.52 1.83,4.42 2.58,6.19 0.36,0.88 0.55,2.29 0.73,6.33l0.15 65.53c0.01,3.52 5.28,3.58 5.25,-0.1l-0.05 -60.15c0,-4.64 0.85,-9.61 -1.26,-13.57l-21.17 -54.77c-1.21,-3.14 -2.79,-3.28 -5.55,-3.35 -23.2,-0.64 -47.23,-0.28 -70.64,-0.48 -8.35,-0.07 -7.83,1.36 -7.83,8.2l0.29 132.42c0.03,4.29 5.27,4.37 5.22,0.01l-0.29 -135.09zm71.18 20.25l0 35.74 0 1.49 -0.81 0.57c-0.19,0.2 -0.4,0.37 -0.64,0.52 -1.04,0.87 -0.44,0.49 -5.62,0.44l-0.35 0 -1.59 0 -0.44 0 -0.08 0 -0.07 0c-1.2,0.04 -2.59,0.37 -3.86,-0.01 -1.56,-0.12 -2.78,-1.41 -2.78,-3l0 -39.3c0,-1.66 1.35,-3.01 3.02,-3.01l10.22 0c0.39,0 0.76,0.07 1.1,0.21 -0.12,-5.7 -4.13,-7.88 -7.79,-7.8 -6.3,0.15 -30.39,0.01 -44.19,0.01 -9.58,-0.01 -10.45,0.16 -10.45,11.71l0.01 33.64c0,5.36 0.16,9.36 7.46,9.36l62.12 -0.24c2.74,-0.01 5.38,-1.09 4.67,-4.41l-9.92 -35.9zm164.7 153.91c0.88,-0.31 3.72,-0.46 7.02,-0.51 5.15,-0.07 11.65,0.05 13.37,0.13l21.64 -0.4 0.08 9.98c0.07,3.38 0.1,5.24 -0.18,6.38 -0.59,2.41 -1.66,2.36 -3.93,2.28 -5.92,-0.12 -11.96,0.01 -17.9,0 -2.49,0.01 -4.91,0.02 -7.15,-0.08 -2.74,-0.11 -4.2,-0.07 -5.49,-0.04 -1.77,0.05 -3.32,0.09 -7.05,-0.22l-1.49 -0.12 0 -17.01 1.08 -0.39zm-631.14 -100.47l-0.08 80.83c0.01,2.14 -0.87,4.09 -2.28,5.51 -1.43,1.42 -3.38,2.3 -5.52,2.3l-53.27 0c-2.14,0 -4.1,-0.88 -5.51,-2.3 -1.41,-1.4 -2.29,-3.36 -2.29,-5.51l0.06 -48.95c-0.01,-3.8 0.01,-6.46 1.1,-8.99 1.17,-2.68 3.28,-4.63 7.3,-6.6l47.84 -24.5c4.21,-2.12 7.09,-2.86 9.5,-1.36 2.34,1.45 3.16,4.4 3.15,9.57zm-6.59 80.83l0.08 -80.83 -0.07 -4.03 -50.98 26.12c-2.55,1.25 -3.77,2.24 -4.27,3.37 -0.55,1.31 -0.56,3.41 -0.56,6.42l-0.06 48.95c0.01,0.35 0.16,0.67 0.39,0.9 0.22,0.23 0.55,0.38 0.9,0.38l53.27 0c0.35,0 0.67,-0.16 0.91,-0.38 0.22,-0.23 0.38,-0.56 0.38,-0.91zm60.89 -211.79l59.52 0 1.49 0.14c1.8,0.35 3.29,1.27 4.33,2.55 1.03,1.27 1.63,2.9 1.63,4.68l-0.16 1.61 -23.8 121.61c-0.42,2.15 -1.66,4.09 -3.3,5.46 -1.68,1.39 -3.8,2.26 -5.97,2.26l-59.52 0 -1.49 -0.14c-1.81,-0.35 -3.3,-1.28 -4.34,-2.56 -1.02,-1.28 -1.62,-2.9 -1.62,-4.67l0.16 -1.61 23.8 -121.61c0.42,-2.14 1.66,-4.09 3.31,-5.46 1.65,-1.38 3.79,-2.26 5.97,-2.26zm59.52 6.53l-59.52 0c-0.61,0 -1.27,0.29 -1.79,0.73 -0.55,0.46 -0.97,1.08 -1.09,1.72l-23.83 121.96c0,0.25 0.07,0.45 0.16,0.57l0.4 0.23 59.88 0.03c0.62,0 1.27,-0.28 1.79,-0.72 0.55,-0.47 0.96,-1.09 1.08,-1.73l23.83 -121.96c0,-0.25 -0.07,-0.46 -0.17,-0.59l-0.38 -0.22 -0.37 -0.03zm43.54 -6.53l59.52 0 1.49 0.14c1.8,0.35 3.29,1.27 4.33,2.55 1.03,1.27 1.63,2.9 1.63,4.68l-0.16 1.61 -23.8 121.61c-0.42,2.15 -1.66,4.09 -3.3,5.46 -1.68,1.39 -3.8,2.26 -5.97,2.26l-59.52 0 -1.49 -0.14c-1.81,-0.35 -3.3,-1.28 -4.34,-2.56 -1.02,-1.28 -1.62,-2.9 -1.62,-4.67l0.16 -1.61 23.8 -121.61c0.42,-2.14 1.66,-4.09 3.31,-5.46 1.65,-1.38 3.79,-2.26 5.97,-2.26zm59.52 6.53l-59.52 0c-0.61,0 -1.27,0.29 -1.79,0.73 -0.55,0.46 -0.97,1.08 -1.09,1.72l-23.83 121.96c0,0.25 0.07,0.45 0.16,0.57l0.4 0.23 59.88 0.03c0.62,0 1.27,-0.28 1.79,-0.72 0.55,-0.47 0.96,-1.09 1.08,-1.73l23.83 -121.96c0,-0.25 -0.07,-0.46 -0.17,-0.59l-0.38 -0.22 -0.37 -0.03zm43.54 -6.53l59.52 0 1.49 0.14c1.8,0.35 3.29,1.27 4.33,2.55 1.03,1.27 1.63,2.9 1.63,4.68l-0.16 1.61 -23.8 121.61c-0.42,2.15 -1.66,4.09 -3.3,5.46 -1.68,1.39 -3.8,2.26 -5.97,2.26l-59.52 0 -1.49 -0.14c-1.81,-0.35 -3.3,-1.28 -4.34,-2.56 -1.02,-1.28 -1.62,-2.9 -1.62,-4.67l0.16 -1.61 23.8 -121.61c0.42,-2.14 1.66,-4.09 3.31,-5.46 1.65,-1.38 3.79,-2.26 5.97,-2.26zm59.52 6.53l-59.52 0c-0.61,0 -1.27,0.29 -1.79,0.73 -0.55,0.46 -0.97,1.08 -1.09,1.72l-23.83 121.96c0,0.25 0.07,0.45 0.16,0.57l0.4 0.23 59.88 0.03c0.62,0 1.27,-0.28 1.79,-0.72 0.55,-0.47 0.96,-1.09 1.08,-1.73l23.83 -121.96c0,-0.25 -0.07,-0.46 -0.17,-0.59l-0.38 -0.22 -0.37 -0.03z"/>
 </g>
</svg>
